<svg width="513" height="437" viewBox="0 0 513 437" fill="none" xmlns="http://www.w3.org/2000/svg">
<g opacity="0.3">
<path fill-rule="evenodd" clip-rule="evenodd" d="M392.089 0.0073337L392.158 2.6108C392.158 33.2217 377.096 61.2584 352.931 81.8222C328.851 102.313 295.677 115.374 259.381 116.115L256.131 116.173C235.36 116.173 215.677 112.199 198.068 105.094C207.442 116.974 215.385 129.744 221.685 143.224C226.593 144.079 231.581 144.752 236.642 145.237C242.961 145.853 249.46 146.161 256.131 146.161C303.388 146.161 346.174 129.822 377.148 103.406C408.122 76.9824 427.275 40.4825 427.275 0.169183H443.308C443.308 44.2594 422.358 84.1841 388.478 113.072C354.607 141.974 307.815 159.846 256.131 159.846C249.03 159.846 241.938 159.494 234.889 158.812C232.522 158.582 230.168 158.315 227.828 158.011C231.49 168.051 234.264 178.424 236.073 189.063C238.404 189.245 240.722 189.394 243.022 189.511C247.157 189.723 251.533 189.826 256.132 189.826C317.53 189.826 373.117 168.595 413.341 134.281C453.591 99.9442 478.487 52.5245 478.487 0.169183H494.46C494.46 5.42238 494.226 10.6289 493.768 15.7817C495.18 15.69 496.602 15.6073 498.036 15.5331C502.876 15.2837 507.561 15.1591 512.074 15.1591V28.8364C507.475 28.8364 503.116 28.9464 498.973 29.1518C496.659 29.269 494.328 29.4196 491.983 29.6024C490.176 40.2456 487.404 50.6213 483.744 60.6626C486.094 60.357 488.457 60.0884 490.831 59.8576C497.7 59.1902 504.784 58.8528 512.074 58.8528V72.4789C505.592 72.4789 499.093 72.8015 492.585 73.4249C487.521 73.917 482.52 74.5921 477.606 75.4503C471.419 88.6947 463.649 101.252 454.494 112.952C471.239 106.227 489.779 102.46 509.203 102.46L512.255 102.519L511.876 116.145L511.885 116.152L509.203 116.145C477.713 116.145 448.862 127.439 427.688 145.546C406.437 163.719 392.889 188.719 392.123 216.052L392.115 218.501C392.115 246.758 405.543 272.346 427.25 290.856C448.957 309.373 478.942 320.829 512.065 320.829V334.506C474.515 334.506 440.523 321.518 415.911 300.529C391.307 279.54 376.082 250.535 376.082 218.501L376.151 215.737C376.617 199.094 381.254 183.223 389.172 168.912C375.22 176.932 360.22 183.726 344.384 189.113C343.38 193.302 342.591 197.561 342.021 201.882C341.299 207.272 340.938 212.817 340.938 218.508C340.938 258.821 360.092 295.321 391.057 321.744C422.031 348.167 464.817 364.507 512.074 364.507V378.184C460.39 378.184 413.589 360.312 379.727 331.41C345.847 302.515 324.897 262.598 324.897 218.508C324.897 212.45 325.309 206.4 326.109 200.386C326.379 198.364 326.693 196.352 327.05 194.353C315.278 197.478 303.115 199.846 290.639 201.389C290.427 203.378 290.251 205.355 290.115 207.317C289.865 210.844 289.745 214.577 289.745 218.501C289.745 270.878 314.624 318.298 354.857 352.612C395.107 386.949 450.693 408.187 512.066 408.187V421.806C505.907 421.806 499.804 421.607 493.763 421.216C493.871 422.422 493.968 423.638 494.055 424.864C494.348 428.992 494.494 432.989 494.494 436.84H478.461C478.461 432.916 478.332 429.198 478.091 425.663C477.954 423.687 477.777 421.696 477.562 419.693C465.088 418.152 452.928 415.787 441.16 412.666C441.519 414.674 441.834 416.694 442.105 418.726C442.887 424.578 443.283 430.621 443.283 436.84H427.31C427.31 431.311 426.932 425.766 426.201 420.215C425.624 415.893 424.832 411.624 423.825 407.43C408.301 402.153 393.581 395.525 379.866 387.716C387.75 402.001 392.166 417.818 392.166 434.389L392.097 437L376.125 436.677H376.116L376.125 434.389C376.125 407.533 362.886 382.914 341.66 364.851C320.357 346.722 291.051 335.164 259.011 334.511L256.14 334.504C223.017 334.504 193.022 345.959 171.324 364.477C149.617 382.995 136.189 408.582 136.189 436.831H120.156C120.156 404.798 135.381 375.8 159.985 354.804C184.598 333.815 218.598 320.827 256.14 320.827L259.389 320.885C278.889 321.283 297.488 325.238 314.26 331.989C304.861 320.089 296.898 307.295 290.584 293.787C285.674 292.931 280.684 292.258 275.62 291.772C269.302 291.156 262.803 290.848 256.132 290.848C208.875 290.848 166.089 307.188 135.115 333.611C104.141 360.027 84.9875 396.527 84.9875 436.84H68.9545C68.9545 392.75 89.9048 352.825 123.785 323.938C157.656 295.036 204.448 277.171 256.132 277.171C263.233 277.171 270.325 277.516 277.374 278.198C279.743 278.428 282.099 278.695 284.44 278.999C280.777 268.957 278.001 258.581 276.192 247.938C273.86 247.757 271.542 247.607 269.242 247.491C265.107 247.278 260.731 247.175 256.132 247.175C194.734 247.175 139.147 268.406 98.9229 302.721C58.6729 337.057 33.7767 384.477 33.7767 436.832H17.8125C17.8125 431.583 18.0455 426.38 18.503 421.23C17.0921 421.322 15.67 421.404 14.2364 421.476C9.39642 421.718 4.71119 421.842 0.197897 421.842V408.165C4.79716 408.165 9.15571 408.055 13.2993 407.85C15.6129 407.732 17.9436 407.582 20.2888 407.399C22.0954 396.759 24.867 386.386 28.5251 376.348C26.1744 376.653 23.8099 376.921 21.4319 377.151C14.5717 377.819 7.48794 378.156 0.197897 378.156V364.53C6.67985 364.53 13.179 364.207 19.6867 363.584C24.7497 363.092 29.7499 362.417 34.6628 361.559C40.9587 348.079 48.8957 335.31 58.2631 323.432C40.6518 330.538 20.9668 334.513 0.197725 334.513V320.836C33.321 320.836 63.3065 309.38 85.0133 290.863C106.72 272.353 120.148 246.765 120.148 218.508L120.14 216.059C119.374 188.726 105.835 163.726 84.5748 145.553C63.401 127.439 34.5417 116.152 3.06044 116.152L0.378257 116.159L0 102.533V102.526L3.06044 102.467C38.9433 102.467 71.8087 115.316 95.9139 135.931C119.933 156.473 135.244 184.773 136.112 215.744L136.181 218.508C136.181 236.222 131.526 253.01 123.203 268.028C137.126 260.034 152.092 253.261 167.89 247.887C168.893 243.701 169.681 239.445 170.25 235.127C170.972 229.737 171.333 224.192 171.333 218.501C171.333 178.188 152.18 141.688 121.206 115.265C90.2403 88.8415 47.4542 72.502 0.197897 72.502V58.8246C51.8816 58.8246 98.6823 76.6969 132.545 105.599C166.425 134.494 187.366 174.411 187.366 218.501C187.366 224.559 186.962 230.609 186.163 236.623C185.893 238.643 185.58 240.651 185.224 242.647C196.993 239.523 209.152 237.156 221.624 235.613C221.837 233.624 222.012 231.647 222.149 229.685C222.398 226.157 222.518 222.424 222.518 218.501C222.518 166.123 197.631 118.704 157.407 84.3892C117.157 50.0528 61.5701 28.8144 0.197897 28.8144V15.1884C6.35159 15.1884 12.4506 15.3871 18.4866 15.7774C18.3796 14.5758 18.284 13.365 18.1997 12.1451C17.916 8.01625 17.7699 4.01938 17.7699 0.169183H33.8028C33.8028 4.09271 33.9318 7.8109 34.1725 11.3457C34.3097 13.317 34.486 15.3028 34.6999 17.3009C47.1722 18.8422 59.3309 21.2066 71.0978 24.3275C70.7412 22.326 70.4279 20.3133 70.1577 18.2908C69.3754 12.4311 68.98 6.38816 68.98 0.169183H84.9527C84.9527 5.6988 85.331 11.2431 86.0617 16.7947C86.6381 21.1116 87.4288 25.375 88.4337 29.564C104.24 34.9371 119.213 41.7112 133.139 49.7064C124.808 34.6817 120.148 17.8876 120.148 0.168675H136.181C136.181 28.4254 149.609 54.0054 171.316 72.523C193.014 91.0406 223.008 102.496 256.131 102.496L259.003 102.489C291.043 101.836 320.349 90.2852 341.652 72.149C362.886 54.0861 376.116 29.4668 376.116 2.6108L376.108 0.322683L392.08 0L392.089 0.0073337ZM237.835 234.088C243.874 233.697 249.976 233.498 256.132 233.498C260.654 233.498 265.339 233.623 270.187 233.865C271.604 233.936 273.009 234.017 274.404 234.108C273.945 228.957 273.712 223.752 273.712 218.501C273.712 214.643 273.858 210.646 274.142 206.51C274.225 205.302 274.321 204.103 274.427 202.914C268.392 203.305 262.293 203.503 256.141 203.503C251.619 203.503 246.933 203.379 242.085 203.137C240.665 203.065 239.257 202.984 237.86 202.893C238.318 208.042 238.551 213.244 238.551 218.493C238.551 222.351 238.405 226.348 238.122 230.484C238.038 231.695 237.942 232.896 237.835 234.088Z" fill="url(#paint0_linear_92_25)"/>
<path d="M316.085 51.3218C331.439 38.2311 340.93 20.1462 340.93 0.169183H324.871C324.871 16.3693 317.177 31.0367 304.738 41.6486C292.298 52.2678 275.105 58.8315 256.115 58.8315C237.124 58.8315 219.939 52.2678 207.491 41.6486C195.052 31.0367 187.349 16.362 187.349 0.169183H171.316C171.316 20.1462 180.807 38.2311 196.161 51.3218C211.506 64.4124 232.706 72.5088 256.123 72.5088C279.541 72.5088 300.74 64.4124 316.085 51.3218Z" fill="url(#paint1_linear_92_25)"/>
<path d="M289.745 0.169183C289.745 8.08225 285.98 15.2473 279.902 20.4395C273.841 25.6098 265.434 28.8146 256.14 28.8146C246.839 28.8146 238.44 25.6171 232.379 20.4395C226.301 15.2473 222.536 8.07492 222.536 0.169183H238.569C238.569 4.30539 240.537 8.05292 243.709 10.7737C246.907 13.5019 251.309 15.1886 256.14 15.1886C260.972 15.1886 265.373 13.5019 268.571 10.7737C271.752 8.06025 273.721 4.31273 273.721 0.169183H289.745Z" fill="url(#paint2_linear_92_25)"/>
<path d="M0.197897 146.162C23.6154 146.162 44.815 154.258 60.1602 167.356C75.5054 180.447 84.9962 198.532 84.9962 218.509C84.9962 238.486 75.5054 256.571 60.1602 269.661C44.815 282.759 23.6154 290.856 0.197897 290.856V277.179C19.1795 277.179 36.3816 270.608 48.8211 259.996C61.2692 249.376 68.9633 234.716 68.9633 218.516C68.9633 202.316 61.2692 187.649 48.8211 177.037C36.3816 166.425 19.1881 159.861 0.197897 159.861V146.162Z" fill="url(#paint3_linear_92_25)"/>
<path d="M23.9593 198.23C17.8728 193.045 9.47379 189.833 0.197897 189.833V203.503C5.05506 203.503 9.448 205.183 12.6288 207.896C15.8268 210.624 17.804 214.379 17.804 218.501C17.804 222.622 15.8268 226.377 12.6288 229.105C9.4394 231.811 5.04646 233.491 0.197897 233.491V247.168C9.47379 247.168 17.8814 243.956 23.9593 238.771C30.0286 233.601 33.7768 226.436 33.7768 218.501C33.7768 210.573 30.0286 203.4 23.9593 198.23Z" fill="url(#paint4_linear_92_25)"/>
<path d="M463.451 177.021C475.891 166.409 493.093 159.845 512.074 159.845V146.146C488.657 146.146 467.457 154.242 452.112 167.34C436.767 180.431 427.276 198.516 427.276 218.493C427.276 238.47 436.767 256.555 452.112 269.645C467.457 282.743 488.657 290.84 512.074 290.84V277.162C493.084 277.162 475.891 270.591 463.451 259.979C451.003 249.367 443.309 234.7 443.309 218.5C443.309 202.3 451.003 187.64 463.451 177.021Z" fill="url(#paint5_linear_92_25)"/>
<path d="M512.073 203.51C507.225 203.51 502.832 205.189 499.642 207.903C496.444 210.631 494.467 214.378 494.467 218.507C494.467 222.629 496.444 226.384 499.642 229.112C502.823 231.818 507.216 233.497 512.073 233.497V247.175C502.797 247.175 494.398 243.963 488.312 238.778C482.251 233.607 478.494 226.435 478.494 218.507C478.494 210.572 482.243 203.407 488.312 198.237C494.398 193.052 502.806 189.84 512.073 189.84V203.51Z" fill="url(#paint6_linear_92_25)"/>
<path d="M324.897 436.839C324.897 420.646 317.203 405.971 304.763 395.36C292.315 384.74 275.13 378.177 256.14 378.177C237.15 378.177 219.956 384.74 207.517 395.36C195.077 405.971 187.375 420.639 187.375 436.839H171.342C171.342 416.862 180.832 398.777 196.186 385.686C211.531 372.596 232.731 364.499 256.149 364.499C279.566 364.499 300.766 372.596 316.111 385.686C331.465 398.777 340.955 416.862 340.955 436.839H324.897Z" fill="url(#paint7_linear_92_25)"/>
<path d="M268.562 426.235C271.743 428.949 273.712 432.704 273.712 436.84H289.736C289.736 428.934 285.971 421.762 279.893 416.57C273.815 411.385 265.416 408.172 256.132 408.172C246.856 408.172 238.448 411.385 232.37 416.57C226.292 421.762 222.527 428.927 222.527 436.84H238.56C238.56 432.696 240.528 428.941 243.701 426.235C246.881 423.522 251.283 421.842 256.132 421.842C260.989 421.842 265.39 423.522 268.562 426.235Z" fill="url(#paint8_linear_92_25)"/>
</g>
<defs>
<linearGradient id="paint0_linear_92_25" x1="512.69" y1="218.5" x2="-6.22999e-06" y2="218.5" gradientUnits="userSpaceOnUse">
<stop stop-color="#F8F7F6"/>
<stop offset="1" stop-color="#F8F7F6" stop-opacity="0"/>
</linearGradient>
<linearGradient id="paint1_linear_92_25" x1="512.69" y1="218.5" x2="-6.22999e-06" y2="218.5" gradientUnits="userSpaceOnUse">
<stop stop-color="#F8F7F6"/>
<stop offset="1" stop-color="#F8F7F6" stop-opacity="0"/>
</linearGradient>
<linearGradient id="paint2_linear_92_25" x1="512.69" y1="218.5" x2="-6.22999e-06" y2="218.5" gradientUnits="userSpaceOnUse">
<stop stop-color="#F8F7F6"/>
<stop offset="1" stop-color="#F8F7F6" stop-opacity="0"/>
</linearGradient>
<linearGradient id="paint3_linear_92_25" x1="512.69" y1="218.5" x2="-6.22999e-06" y2="218.5" gradientUnits="userSpaceOnUse">
<stop stop-color="#F8F7F6"/>
<stop offset="1" stop-color="#F8F7F6" stop-opacity="0"/>
</linearGradient>
<linearGradient id="paint4_linear_92_25" x1="512.69" y1="218.5" x2="-6.22999e-06" y2="218.5" gradientUnits="userSpaceOnUse">
<stop stop-color="#F8F7F6"/>
<stop offset="1" stop-color="#F8F7F6" stop-opacity="0"/>
</linearGradient>
<linearGradient id="paint5_linear_92_25" x1="512.69" y1="218.5" x2="-6.22999e-06" y2="218.5" gradientUnits="userSpaceOnUse">
<stop stop-color="#F8F7F6"/>
<stop offset="1" stop-color="#F8F7F6" stop-opacity="0"/>
</linearGradient>
<linearGradient id="paint6_linear_92_25" x1="512.69" y1="218.5" x2="-6.22999e-06" y2="218.5" gradientUnits="userSpaceOnUse">
<stop stop-color="#F8F7F6"/>
<stop offset="1" stop-color="#F8F7F6" stop-opacity="0"/>
</linearGradient>
<linearGradient id="paint7_linear_92_25" x1="512.69" y1="218.5" x2="-6.22999e-06" y2="218.5" gradientUnits="userSpaceOnUse">
<stop stop-color="#F8F7F6"/>
<stop offset="1" stop-color="#F8F7F6" stop-opacity="0"/>
</linearGradient>
<linearGradient id="paint8_linear_92_25" x1="512.69" y1="218.5" x2="-6.22999e-06" y2="218.5" gradientUnits="userSpaceOnUse">
<stop stop-color="#F8F7F6"/>
<stop offset="1" stop-color="#F8F7F6" stop-opacity="0"/>
</linearGradient>
</defs>
</svg>
