<svg width="12" height="16" viewBox="0 0 12 16" fill="none" xmlns="http://www.w3.org/2000/svg">
<path fill-rule="evenodd" clip-rule="evenodd" d="M8.84798 6.87175C8.84798 7.57899 8.56703 8.25727 8.06693 8.75736C7.56684 9.25746 6.88856 9.53841 6.18131 9.53841C5.47407 9.53841 4.79579 9.25746 4.2957 8.75736C3.7956 8.25727 3.51465 7.57899 3.51465 6.87175C3.51465 6.1645 3.7956 5.48622 4.2957 4.98613C4.79579 4.48603 5.47407 4.20508 6.18131 4.20508C6.88856 4.20508 7.56684 4.48603 8.06693 4.98613C8.56703 5.48622 8.84798 6.1645 8.84798 6.87175ZM7.51465 6.87175C7.51465 7.22537 7.37417 7.56451 7.12412 7.81455C6.87408 8.0646 6.53494 8.20508 6.18131 8.20508C5.82769 8.20508 5.48855 8.0646 5.23851 7.81455C4.98846 7.56451 4.84798 7.22537 4.84798 6.87175C4.84798 6.51812 4.98846 6.17898 5.23851 5.92894C5.48855 5.67889 5.82769 5.53841 6.18131 5.53841C6.53494 5.53841 6.87408 5.67889 7.12412 5.92894C7.37417 6.17898 7.51465 6.51812 7.51465 6.87175Z" fill="black"/>
<path fill-rule="evenodd" clip-rule="evenodd" d="M1.86267 11.0356C1.00323 10.2173 0.405739 9.16253 0.14576 8.00466C-0.11422 6.8468 -0.0250142 5.63785 0.402097 4.53068C0.829208 3.42352 1.57504 2.46787 2.54528 1.78459C3.51552 1.10131 4.66659 0.721079 5.85292 0.691989C7.03926 0.6629 8.20758 0.986254 9.21014 1.62116C10.2127 2.25607 11.0045 3.17401 11.4853 4.25891C11.9662 5.34381 12.1146 6.54694 11.9116 7.71616C11.7087 8.88537 11.1636 9.96815 10.3453 10.8276L6.208 15.1729L1.86267 11.0356ZM9.38 9.90825L6.162 13.2883L2.782 10.0703C2.11358 9.4338 1.64889 8.61344 1.4467 7.7129C1.24451 6.81236 1.31389 5.87209 1.64608 5.01098C1.97827 4.14987 2.55833 3.4066 3.31294 2.87516C4.06754 2.34372 4.96278 2.04797 5.88547 2.02532C6.80815 2.00266 7.71683 2.25412 8.4966 2.74788C9.27637 3.24165 9.89222 3.95556 10.2663 4.79933C10.6403 5.6431 10.7558 6.57883 10.598 7.48821C10.4403 8.39759 10.0164 9.23977 9.38 9.90825Z" fill="black"/>
</svg>
