<svg width="1184" height="730" viewBox="0 0 1184 730" fill="none" xmlns="http://www.w3.org/2000/svg">
<circle cx="862.356" cy="253.617" r="214.974" transform="rotate(-8.60622 862.356 253.617)" stroke="#83756C" stroke-width="0.903252"/>
<circle cx="337.455" cy="576.06" r="113.81" transform="rotate(-8.60622 337.455 576.06)" stroke="#83756C" stroke-width="0.903252"/>
<path d="M1001.16 247.226C1005.59 276.489 996.35 306.438 975.782 335.559C955.212 364.682 923.325 392.953 882.516 418.828C800.899 470.578 683.669 512.7 550.172 532.904C416.676 553.108 292.232 547.563 198.957 522.283C152.318 509.642 113.494 492.074 85.2268 470.342C56.9621 448.612 39.2748 422.737 34.846 393.475C30.4172 364.212 39.6558 334.263 60.2243 305.142C80.7946 276.018 112.682 247.748 153.491 221.873C235.108 170.123 352.337 128.001 485.834 107.797C619.33 87.5928 743.774 93.1378 837.049 118.418C883.688 131.058 922.512 148.627 950.779 170.359C979.044 192.089 996.731 217.964 1001.16 247.226Z" stroke="#83756C" stroke-width="0.903252"/>
<path d="M1159.48 405.973C1161.32 418.136 1154.33 431.151 1139.85 444.3C1125.39 457.435 1103.56 470.616 1075.96 483.093C1020.77 508.047 942.623 530.147 854.609 543.468C766.596 556.788 685.411 558.802 625.307 551.298C595.252 547.546 570.495 541.417 552.797 533.149C535.079 524.872 524.55 514.509 522.709 502.346C520.868 490.183 527.86 477.168 542.334 464.019C556.793 450.884 578.628 437.704 606.226 425.226C661.418 400.272 739.563 378.172 827.576 364.851C915.59 351.531 996.775 349.517 1056.88 357.021C1086.93 360.773 1111.69 366.902 1129.39 375.17C1147.11 383.447 1157.64 393.81 1159.48 405.973Z" stroke="#83756C" stroke-width="0.903252"/>
</svg>
