<?xml version="1.0" encoding="UTF-8"?> <svg xmlns="http://www.w3.org/2000/svg" width="288" height="144" viewBox="0 0 288 144" fill="none"><g clip-path="url(#clip0_67_14)"><path fill-rule="evenodd" clip-rule="evenodd" d="M149.841 -0.0400391C213.759 5.53416 262.481 26.138 262.44 61.8955C262.44 108.719 188.778 139.356 104.546 139.397C88.6221 139.422 72.7109 138.499 56.897 136.631C81.0165 141.419 105.556 143.77 130.146 143.65C214.378 143.65 287.999 112.435 287.999 64.6619C287.999 23.4542 225.857 1.9419 149.841 -0.0400391Z" fill="#005A9A"></path><path d="M82.3745 45.8738L88.6919 31.2983H90.3023L96.5371 45.8738H94.9681L92.8622 40.9603H86.0906L83.9435 45.8738H82.3745ZM89.6003 32.9912V32.5783V32.9912L86.8752 39.5151H92.4906L89.6003 32.9912Z" fill="#706F6F"></path><path d="M111.939 35.0152H110.287C109.941 34.5539 109.539 34.1377 109.09 33.7765C107.985 32.9052 106.615 32.4389 105.208 32.4552C104.148 32.4607 103.109 32.7456 102.194 33.281C101.266 33.8309 100.497 34.6137 99.9645 35.552C99.3929 36.453 99.0919 37.4992 99.0974 38.5662C99.0976 39.6454 99.3978 40.7032 99.9645 41.6217C100.513 42.5617 101.295 43.3439 102.235 43.8926C103.129 44.3769 104.13 44.6305 105.146 44.6305C106.163 44.6305 107.164 44.3769 108.057 43.8926C108.474 43.6807 108.863 43.4171 109.213 43.1081C109.634 42.7577 110.009 42.3553 110.328 41.9107H111.939C111.716 42.334 111.453 42.735 111.154 43.1081C110.912 43.4273 110.635 43.7181 110.328 43.9752C108.933 45.258 107.104 45.9659 105.208 45.9572C103.871 45.9734 102.555 45.6159 101.41 44.9249C100.253 44.2773 99.2936 43.329 98.6322 42.1806C97.9707 41.0321 97.6321 39.7262 97.6522 38.401C97.6374 37.0821 97.9798 35.7837 98.6432 34.6436C99.1681 33.7579 99.8658 32.9868 100.695 32.3761C101.524 31.7654 102.467 31.3277 103.468 31.0889C104.47 30.85 105.509 30.815 106.525 30.9859C107.54 31.1568 108.511 31.5301 109.379 32.0836C110.081 32.5498 110.707 33.1207 111.237 33.7765C111.526 34.1559 111.762 34.5725 111.939 35.0152V35.0152Z" fill="#706F6F"></path><path d="M127.917 35.0142H126.307C125.961 34.5529 125.559 34.1367 125.11 33.7755C124.544 33.4295 123.932 33.1654 123.293 32.991C122.639 32.7807 121.957 32.6693 121.27 32.6607C120.196 32.6609 119.142 32.9458 118.214 33.4865C117.286 34.0363 116.517 34.8192 115.984 35.7574C115.413 36.6585 115.112 37.7046 115.117 38.7716C115.118 39.8508 115.418 40.9087 115.984 41.8271C116.544 42.7583 117.324 43.5381 118.255 44.0981C119.185 44.6351 120.238 44.9198 121.311 44.9239C122.272 44.9259 123.221 44.6995 124.077 44.2632C124.494 44.0513 124.883 43.7877 125.234 43.4787C125.654 43.1283 126.029 42.7259 126.348 42.2813H127.959C127.751 42.7132 127.487 43.1158 127.174 43.4787C126.932 43.7979 126.655 44.0887 126.348 44.3458C124.968 45.6259 123.152 46.3343 121.27 46.3278C119.918 46.3496 118.588 45.9919 117.43 45.2955C116.273 44.6479 115.314 43.6997 114.652 42.5512C113.991 41.4027 113.652 40.0968 113.672 38.7716C113.657 37.4527 114 36.1543 114.663 35.0142C115.188 34.1285 115.886 33.3574 116.715 32.7467C117.544 32.136 118.487 31.6983 119.489 31.4595C120.49 31.2206 121.529 31.1856 122.545 31.3565C123.56 31.5274 124.531 31.9007 125.399 32.4542C126.109 32.9096 126.737 33.482 127.257 34.1471C127.514 34.4057 127.736 34.6973 127.917 35.0142V35.0142Z" fill="#706F6F"></path><path d="M137.248 31.0512C138.619 31.0405 139.97 31.3817 141.171 32.0422C142.366 32.6681 143.366 33.6109 144.061 34.7674C144.752 35.9128 145.11 37.2284 145.094 38.5661C145.103 39.9029 144.746 41.2168 144.061 42.3648C143.375 43.4992 142.408 44.4377 141.254 45.09C140.091 45.7764 138.764 46.1333 137.414 46.1222C136.062 46.144 134.732 45.7864 133.574 45.09C132.398 44.4513 131.415 43.5106 130.725 42.3648C130.035 41.2339 129.677 39.9319 129.692 38.6074C129.688 37.2843 130.045 35.9851 130.725 34.85C131.394 33.7056 132.347 32.7529 133.491 32.0835C134.622 31.3938 135.924 31.0361 137.248 31.0512V31.0512ZM137.248 32.4551C136.159 32.4352 135.086 32.7213 134.152 33.2809C133.212 33.8296 132.429 34.6119 131.881 35.5519C131.314 36.4703 131.014 37.5282 131.014 38.6074C131.007 39.6875 131.308 40.7471 131.881 41.6629C132.434 42.6028 133.234 43.3738 134.193 43.8925C135.135 44.4347 136.203 44.7196 137.29 44.7183C138.11 44.7187 138.922 44.5647 139.685 44.2641C140.43 43.9467 141.103 43.4834 141.667 42.9016C142.631 41.9555 143.251 40.7149 143.431 39.3762C143.61 38.0375 143.338 36.6772 142.658 35.5106C142.092 34.5806 141.295 33.8125 140.345 33.2809C139.447 32.7433 138.42 32.458 137.372 32.4551H137.248Z" fill="#706F6F"></path><path d="M157.357 45.8738H147.447V31.2983H149.099V44.5525H156.655V31.2983H158.141V44.5525H159.132V48.6816H157.357V45.8738Z" fill="#706F6F"></path><path d="M172.51 45.8731H171.065V33.486V33.7751L162.807 45.9144H161.486V31.2976H162.931V43.6847V43.3957L171.189 31.2563H172.634L172.51 45.8731Z" fill="#706F6F"></path><path d="M174.246 45.8738L180.522 31.2983H182.132L188.408 45.8738H186.839L184.733 40.9603H178.003L175.897 45.8738H174.246ZM181.43 32.9912V32.5783V32.9912L178.705 39.5151H184.362L181.43 32.9912Z" fill="#706F6F"></path><path d="M200.175 45.8738H190.141V31.2983H191.586V44.5525H199.142V31.2983H200.588V44.5525H201.62V48.6816H200.175V45.8738Z" fill="#706F6F"></path><path d="M215.164 45.8731H213.719V33.486V33.7751L205.461 45.9144H203.974V31.2976H205.461V43.6847V43.3957L213.719 31.2563H215.164V45.8731Z" fill="#706F6F"></path><path d="M227.551 31.2983V45.8738H226.064V32.6196H223.422C222.725 32.5934 222.028 32.677 221.357 32.8674C220.827 33.0206 220.368 33.3589 220.065 33.8209C219.762 34.2829 219.635 34.8382 219.706 35.3861C219.671 36.0809 219.908 36.7619 220.366 37.2854C220.802 37.8058 221.397 38.1684 222.059 38.3177C222.945 38.478 223.844 38.5472 224.743 38.5241H225.197L219.293 45.8738H217.476L223.133 39.4738H222.596C221.864 39.4857 221.14 39.3155 220.49 38.9783C219.875 38.6194 219.363 38.1073 219.004 37.4919C218.666 36.8125 218.496 36.0621 218.508 35.3035C218.504 34.6652 218.63 34.0329 218.88 33.4454C219.161 32.9123 219.556 32.4472 220.036 32.0829C220.499 31.7758 221.018 31.5652 221.564 31.4635C222.388 31.3839 223.217 31.3839 224.041 31.4635L227.551 31.2983Z" fill="#706F6F"></path><path d="M9.95162 74.7771H8.46517V67.7165C8.17143 68.4515 7.65065 69.0736 6.97872 69.492C6.25321 69.9208 5.42664 70.1488 4.58388 70.1526C4.00397 70.1782 3.42469 70.0893 2.87916 69.8909C2.33363 69.6926 1.83254 69.3886 1.40453 68.9965C0.918672 68.5406 0.550341 67.974 0.330979 67.3449C0.122046 66.48 0.0249095 65.5919 0.0419468 64.7023V60.2017H1.5284V64.9913C1.50765 65.6711 1.63443 66.3472 1.90001 66.9733C2.13316 67.4925 2.52301 67.9256 3.01485 68.212C3.57492 68.5034 4.20062 68.6456 4.83162 68.6249C5.70608 68.6656 6.56295 68.3701 7.22646 67.7991C7.68241 67.4168 8.0251 66.917 8.21743 66.3539C8.43896 65.604 8.53659 64.823 8.50646 64.0417V60.2017H9.95162V74.7771Z" fill="#706F6F"></path><path d="M11.6431 74.7771L17.9192 60.2017H19.5295L25.8056 74.7771H24.2366L22.1308 69.8636H15.3179L13.2121 74.7771H11.6431ZM18.8276 61.8946V61.4817V61.8946L16.1024 68.4184H21.5527L18.8276 61.8946Z" fill="#706F6F"></path><path d="M41.1654 63.9175H39.555C39.1978 63.466 38.7967 63.0511 38.3576 62.6788C37.7897 62.26 37.1637 61.9262 36.4996 61.6878C35.8461 61.4744 35.1637 61.363 34.4763 61.3575C33.4157 61.357 32.3745 61.6423 31.4621 62.1833C30.5309 62.7433 29.7512 63.523 29.1912 64.4543C28.6502 65.3666 28.3649 66.4078 28.3654 67.4685C28.3694 68.5415 28.6541 69.5949 29.1912 70.5239C29.7512 71.4552 30.5309 72.2349 31.4621 72.7949C32.3912 73.3319 33.4445 73.6166 34.5176 73.6207C35.4796 73.6276 36.4289 73.4009 37.2841 72.9601C37.713 72.7471 38.1149 72.4837 38.4815 72.1756C38.8811 71.8034 39.2537 71.4033 39.5963 70.9781H41.2066C40.9689 71.3924 40.707 71.7922 40.4221 72.1756C40.1649 72.4947 39.8742 72.7854 39.555 73.0427C38.1743 74.3228 36.3592 75.0311 34.4763 75.0246C33.1387 75.0409 31.8231 74.6834 30.6776 73.9923C29.5175 73.3622 28.5587 72.4176 27.9112 71.2672C27.2393 70.1136 26.8833 68.8034 26.8789 67.4685C26.8787 66.1459 27.2353 64.8478 27.9112 63.711C28.5544 62.5714 29.4967 61.6291 30.6363 60.9859C31.8028 60.3088 33.1276 59.9527 34.4763 59.9536C35.937 59.9627 37.3665 60.3772 38.6054 61.151C39.2985 61.6286 39.9236 62.1981 40.4634 62.8439C40.7401 63.172 40.9758 63.5325 41.1654 63.9175Z" fill="#706F6F"></path><path d="M45.5437 74.7771V61.5229H42.1992V60.2017H50.4573V61.5229H47.1128V74.7771H45.5437Z" fill="#706F6F"></path><path d="M51.9438 74.7771V60.2017H53.4303V66.6017H60.9451V60.2017H62.3903V74.7771H60.9038V67.9229H53.4303V74.7771H51.9438Z" fill="#706F6F"></path><path d="M65.4453 74.7771V60.2017H66.8905V66.4365H68.8724C69.6824 66.3548 70.4986 66.3548 71.3085 66.4365C71.8725 66.5185 72.4097 66.7305 72.8776 67.0559C73.438 67.4123 73.8939 67.911 74.1989 68.501C74.5065 69.1011 74.6624 69.7674 74.6531 70.4417C74.7357 70.8782 74.7357 71.3264 74.6531 71.7629C74.5393 72.1912 74.3273 72.5871 74.0337 72.9191C73.7812 73.2824 73.4582 73.5913 73.084 73.8275C72.5982 74.1179 72.0682 74.3271 71.515 74.4468C70.7041 74.5068 69.8898 74.5068 69.0789 74.4468L65.4453 74.7771ZM66.8905 73.4559H70.235C70.7699 73.4424 71.2939 73.3008 71.7627 73.043C72.1824 72.8016 72.5367 72.4614 72.795 72.052C73.0417 71.6255 73.17 71.1408 73.1666 70.6481C73.1579 70.2678 73.0882 69.8914 72.9602 69.5333C72.7923 69.2059 72.5843 68.9007 72.3408 68.6249C72.0489 68.3827 71.7122 68.2003 71.3498 68.0881C71.0047 67.9579 70.6436 67.8746 70.2763 67.8404H66.8905V73.4559ZM76.7589 74.7771V60.2017H78.2453V74.7771H76.7589Z" fill="#706F6F"></path><path d="M79.897 74.7777L84.8518 67.3041L80.186 60.2022H81.8789L85.7602 66.0241L89.6002 60.1196H91.2931L86.586 67.2216L91.5821 74.6951H89.8892L85.7602 68.3364L81.6312 74.6951L79.897 74.7777Z" fill="#706F6F"></path><path d="M109.79 74.776H108.304V62.3889V62.6779L100.046 74.8172H98.6006V60.2005H100.046V72.5876V72.2985L108.097 60.1592H109.584L109.79 74.776Z" fill="#706F6F"></path><path d="M118.213 74.7771V60.2017H119.7V66.6017H127.256V60.2017H128.701V74.7771H127.256V67.9229H119.7V74.7771H118.213Z" fill="#706F6F"></path><path d="M130.395 74.7771L136.712 60.2017H138.323L144.558 74.7771H142.989L140.841 69.8636H134.111L132.005 74.7771H130.395ZM137.621 61.8946V61.4817V61.8946L134.896 68.4184H140.552L137.621 61.8946Z" fill="#706F6F"></path><path d="M146.292 74.7763V60.2008H150.132C150.915 60.1238 151.703 60.1238 152.486 60.2008C153.029 60.3132 153.546 60.5231 154.014 60.8202C154.846 61.2867 155.467 62.0555 155.748 62.9673C155.811 63.4331 155.811 63.9053 155.748 64.3712C155.77 65.042 155.628 65.7081 155.335 66.3118C155.051 66.8908 154.625 67.3882 154.096 67.757C153.785 67.9801 153.453 68.1736 153.105 68.335L151.867 68.6241C151.345 68.6697 150.82 68.6697 150.298 68.6241H147.531V74.5286L146.292 74.7763ZM147.738 67.5505H150.256C150.847 67.6039 151.441 67.6039 152.032 67.5505C152.461 67.4934 152.87 67.3379 153.229 67.0963C153.633 66.8565 153.951 66.4952 154.138 66.0641C154.372 65.6343 154.486 65.1493 154.468 64.6602C154.471 64.0785 154.313 63.5072 154.014 63.0086C153.682 62.5448 153.223 62.1865 152.692 61.9763C151.97 61.6947 151.196 61.568 150.422 61.6047H147.738V67.5505Z" fill="#706F6F"></path><path d="M164.872 59.9546C166.311 59.9194 167.735 60.261 169.001 60.9456C170.176 61.5842 171.16 62.525 171.85 63.6708C172.554 64.8128 172.925 66.1281 172.924 67.4695C172.914 68.8036 172.558 70.1124 171.891 71.2682C171.187 72.3884 170.224 73.323 169.084 73.9933C167.319 74.9983 165.232 75.2759 163.266 74.767C161.3 74.2582 159.61 73.0031 158.555 71.2682C157.865 70.1373 157.507 68.8353 157.522 67.5108C157.518 66.1877 157.875 64.8885 158.555 63.7533C159.224 62.609 160.177 61.6562 161.321 60.9869C162.391 60.3316 163.617 59.9751 164.872 59.9546ZM164.872 61.3585C163.797 61.3441 162.738 61.6301 161.817 62.1843C160.867 62.7203 160.082 63.5056 159.546 64.4553C158.979 65.3737 158.679 66.4316 158.679 67.5108C158.672 68.5908 158.973 69.6505 159.546 70.5662C160.084 71.5033 160.87 72.2746 161.817 72.7959C162.776 73.3328 163.856 73.6169 164.955 73.6217C165.774 73.6183 166.586 73.4643 167.35 73.1675C168.089 72.8401 168.761 72.378 169.331 71.8049C169.923 71.2584 170.376 70.5791 170.653 69.823C171.034 68.9589 171.2 68.0149 171.135 67.0726C171.07 66.1302 170.777 65.2178 170.281 64.414C169.743 63.4769 168.957 62.7057 168.01 62.1843C167.095 61.6506 166.056 61.3659 164.996 61.3585H164.872Z" fill="#706F6F"></path><path d="M173.873 73.4559H174.822L179.901 60.2017H181.553L186.549 73.4559H187.581V77.7913H186.26V74.7771H175.318V77.7913H173.873V73.4559ZM184.98 73.4559L180.851 61.8946L176.722 73.4559H184.98Z" fill="#706F6F"></path><path d="M189.399 74.7771V60.2017H190.845V66.6017H198.401V60.2017H199.846V74.7771H198.401V67.9229H190.845V74.7771H189.399Z" fill="#706F6F"></path><path d="M202.776 74.7771V60.2017H204.221V66.4365H206.203C207.013 66.3548 207.829 66.3548 208.639 66.4365C209.205 66.5107 209.744 66.7234 210.208 67.0559C210.769 67.4123 211.224 67.911 211.529 68.501C211.862 69.0934 212.032 69.7626 212.025 70.4417C212.026 70.8938 211.942 71.342 211.777 71.7629C211.663 72.1912 211.451 72.5871 211.158 72.9191C210.905 73.2824 210.582 73.5913 210.208 73.8275C209.726 74.1251 209.195 74.3348 208.639 74.4468C207.828 74.5068 207.014 74.5068 206.203 74.4468L202.776 74.7771ZM204.221 73.4559H207.607C208.128 73.4375 208.637 73.296 209.093 73.043C209.522 72.8139 209.879 72.4709 210.126 72.052C210.372 71.6255 210.501 71.1408 210.497 70.6481C210.556 70.2788 210.556 69.9026 210.497 69.5333C210.359 69.1892 210.148 68.8792 209.878 68.6249C209.601 68.3828 209.278 68.2001 208.928 68.0881C208.569 67.9576 208.194 67.8744 207.813 67.8404H204.427L204.221 73.4559ZM214.131 74.7771V60.2017H215.576V74.7771H214.131Z" fill="#706F6F"></path><path d="M217.311 74.7777L222.265 67.3041L217.641 60.2022H219.292L223.174 66.0241L227.014 60.1196H228.707L224 67.2216L228.996 74.6951H227.303L223.174 68.3364L219.045 74.6951L217.311 74.7777Z" fill="#706F6F"></path><path d="M70.6469 101.533V102.029V101.533L75.7256 89.1463H77.9966V103.722H76.5101V90.7979L71.0598 103.763H69.8211L64.6185 90.7979V103.763H63.1733V89.105H65.403L70.6469 101.533Z" fill="#706F6F"></path><path d="M83.0339 103.68L84.9746 99.5514L79.772 89.105H81.5475L85.6765 97.8585L89.8055 89.105H91.292L84.6855 103.68H83.0339Z" fill="#706F6F"></path><path d="M98.105 95.8356C98.7514 95.8394 99.3878 95.995 99.9631 96.2898C100.503 96.5906 100.936 97.0525 101.202 97.6111C101.52 98.1924 101.677 98.8481 101.656 99.5104C101.663 100.047 101.564 100.58 101.367 101.079C101.136 101.657 100.784 102.178 100.335 102.607C99.9001 103.021 99.3972 103.356 98.8483 103.598C98.2383 103.815 97.5961 103.926 96.9489 103.928C96.2742 103.933 95.6037 103.821 94.967 103.598C94.3995 103.368 93.8811 103.031 93.4392 102.607C92.9986 102.17 92.6479 101.651 92.407 101.079C92.2012 100.538 92.0894 99.9655 92.0767 99.3865H93.6044V99.593C93.5894 100.125 93.749 100.647 94.0586 101.079C94.3531 101.539 94.767 101.91 95.256 102.153C95.7624 102.429 96.3309 102.571 96.9076 102.566C97.4855 102.581 98.0565 102.438 98.5592 102.153C99.0482 101.91 99.4621 101.539 99.7567 101.079C100.036 100.619 100.179 100.09 100.17 99.5517C100.176 98.9636 100.003 98.3874 99.6741 97.9001C99.3577 97.4129 98.8724 97.06 98.3115 96.9091C97.3688 96.6638 96.3938 96.5663 95.4212 96.6201V95.2988C95.9705 95.3513 96.5235 95.3513 97.0728 95.2988C97.4223 95.258 97.7596 95.1455 98.0638 94.9685C98.4295 94.768 98.7304 94.4671 98.9309 94.1014C99.1413 93.7071 99.2545 93.2682 99.2612 92.8214C99.2713 92.3538 99.142 91.8938 98.8896 91.5001C98.678 91.0889 98.3266 90.7668 97.8986 90.5917C97.4491 90.3707 96.9543 90.2576 96.4534 90.2614C95.9196 90.2417 95.3908 90.3703 94.9257 90.633C94.6908 90.7927 94.4819 90.9877 94.3063 91.2111C94.1529 91.3982 94.0277 91.6069 93.9347 91.8304C93.8242 92.1364 93.7547 92.4558 93.7283 92.7801H92.2831C92.2529 92.3815 92.2529 91.9812 92.2831 91.5827C92.418 91.1966 92.6131 90.8343 92.8612 90.5091C93.1249 90.1671 93.4463 89.8737 93.8109 89.642C94.5497 89.1695 95.4114 88.9254 96.2883 88.9401C97.0336 88.9282 97.7706 89.0983 98.4354 89.4356C99.0626 89.7562 99.5907 90.2415 99.9631 90.8394C100.254 91.4158 100.405 92.0521 100.405 92.6975C100.405 93.3429 100.254 93.9792 99.9631 94.5556C99.8037 94.8028 99.6089 95.0254 99.385 95.2162C98.9974 95.4951 98.5643 95.7047 98.105 95.8356Z" fill="#706F6F"></path><path d="M103.679 103.68V89.105H111.937V90.4263H105.207V95.5463H111.483V96.8676H105.207V102.359H111.937V103.68H103.679Z" fill="#706F6F"></path><path d="M114.292 103.68V89.105H122.303V90.4263H115.779V95.5463H122.055V96.8676H115.779V102.359H122.303V103.68H114.292Z" fill="#706F6F"></path><path d="M124.863 103.679V89.1039H128.456C129.609 89.0257 130.763 89.2536 131.8 89.7645C132.334 90.0921 132.763 90.5647 133.039 91.1271C133.325 91.7054 133.48 92.3399 133.493 92.9852C133.492 93.5167 133.365 94.0404 133.121 94.5129C132.969 94.7894 132.774 95.0402 132.543 95.2561C132.079 95.5886 131.54 95.8013 130.974 95.8755C131.533 95.9353 132.077 96.0888 132.585 96.3297C132.933 96.5327 133.241 96.7988 133.493 97.1142C133.741 97.4394 133.936 97.8017 134.071 98.1877C134.361 99.0448 134.361 99.9733 134.071 100.83C133.948 101.255 133.737 101.649 133.452 101.986C133.199 102.35 132.876 102.659 132.502 102.895C132.016 103.185 131.486 103.394 130.933 103.514C130.122 103.574 129.308 103.574 128.497 103.514L124.863 103.679ZM126.35 95.4213H127.919C128.495 95.4787 129.076 95.4787 129.653 95.4213C130.017 95.3874 130.369 95.2747 130.685 95.091C131.04 94.8936 131.338 94.6094 131.552 94.2652C131.762 93.9006 131.876 93.4885 131.883 93.0677C131.869 92.6741 131.756 92.2903 131.552 91.9529C131.183 91.3844 130.629 90.9613 129.983 90.7555H129.323H126.35V95.4213ZM126.35 102.441H129.694C130.229 102.427 130.753 102.286 131.222 102.028C131.642 101.786 131.996 101.446 132.254 101.037C132.501 100.61 132.629 100.126 132.626 99.6329C132.685 99.2636 132.685 98.8874 132.626 98.5181C132.458 98.1907 132.25 97.8855 132.007 97.6097C131.715 97.3675 131.378 97.1851 131.016 97.0729C130.67 96.9427 130.309 96.8594 129.942 96.8252H126.556L126.35 102.441Z" fill="#706F6F"></path><path d="M141.668 103.68V89.1042H145.467C146.249 89.0271 147.038 89.0271 147.82 89.1042C148.376 89.2162 148.907 89.4259 149.389 89.7235C149.788 89.9578 150.138 90.2662 150.422 90.6319C150.706 91.0073 150.929 91.4254 151.082 91.8706C151.246 92.3207 151.329 92.7957 151.33 93.2745C151.339 93.9487 151.183 94.615 150.876 95.2151C150.592 95.7942 150.166 96.2915 149.637 96.6603C149.335 96.8981 149.002 97.0927 148.646 97.2383L147.449 97.5274C146.913 97.573 146.374 97.573 145.838 97.5274H143.113V103.432L141.668 103.68ZM143.113 96.4538H145.632C146.223 96.5057 146.817 96.5057 147.407 96.4538C147.824 96.398 148.22 96.2422 148.563 95.9996C148.986 95.7514 149.318 95.3755 149.513 94.9261C149.729 94.4896 149.842 94.0093 149.843 93.5222C149.85 92.9341 149.677 92.3579 149.348 91.8706C149.036 91.388 148.571 91.0244 148.027 90.8383C147.304 90.5567 146.53 90.4301 145.756 90.4667H143.113V96.4538Z" fill="#706F6F"></path><path d="M160.248 88.8575C161.687 88.8222 163.11 89.1638 164.377 89.8484C165.552 90.4871 166.536 91.4278 167.226 92.5736C167.917 93.719 168.275 95.0346 168.258 96.3723C168.268 97.7091 167.911 99.023 167.226 100.171C166.54 101.305 165.573 102.244 164.418 102.896C163.252 103.574 161.927 103.932 160.578 103.932C159.229 103.932 157.904 103.574 156.738 102.896C155.563 102.258 154.579 101.317 153.889 100.171C153.217 99.0326 152.861 97.7356 152.857 96.4136C152.871 95.0903 153.228 93.7932 153.894 92.6496C154.56 91.5059 155.512 90.5549 156.656 89.8897C157.743 89.2383 158.981 88.8825 160.248 88.8575V88.8575ZM160.248 90.2613C159.159 90.2414 158.086 90.5276 157.151 91.0871C156.211 91.6358 155.429 92.4181 154.88 93.3581C154.326 94.2799 154.04 95.3381 154.054 96.4136C154.033 97.4899 154.32 98.5499 154.88 99.4691C155.433 100.409 156.233 101.18 157.192 101.699C158.134 102.241 159.202 102.526 160.289 102.525C161.109 102.525 161.921 102.371 162.684 102.07C163.442 101.754 164.129 101.291 164.707 100.708C165.285 100.15 165.736 99.474 166.029 98.7258C166.404 97.8584 166.563 96.9127 166.491 95.9703C166.419 95.0279 166.118 94.1172 165.616 93.3168C165.062 92.3768 164.263 91.6059 163.303 91.0871C162.417 90.5566 161.405 90.2716 160.372 90.2613H160.248Z" fill="#706F6F"></path><path d="M184.114 92.8208H182.463C182.117 92.3595 181.714 91.9433 181.265 91.5821C180.717 91.1554 180.104 90.8207 179.448 90.5911C178.794 90.3808 178.112 90.2695 177.425 90.2608C176.349 90.262 175.292 90.5494 174.363 91.0936C173.434 91.6377 172.667 92.4191 172.14 93.3576C171.568 94.2586 171.267 95.3048 171.273 96.3718C171.273 97.451 171.573 98.5088 172.14 99.4273C172.7 100.358 173.48 101.138 174.411 101.698C175.34 102.235 176.393 102.52 177.466 102.524C178.428 102.526 179.376 102.3 180.233 101.863C180.656 101.641 181.057 101.378 181.43 101.079C181.83 100.707 182.202 100.307 182.545 99.8815H184.155C183.921 100.308 183.645 100.709 183.33 101.079C183.088 101.398 182.811 101.689 182.504 101.946C181.123 103.226 179.308 103.934 177.425 103.928C176.422 103.944 175.427 103.761 174.495 103.389C173.564 103.016 172.717 102.462 172.002 101.759C171.287 101.056 170.719 100.217 170.332 99.2923C169.944 98.3674 169.745 97.3746 169.745 96.3718C169.723 95.0464 170.081 93.7425 170.777 92.6144C171.421 91.4747 172.363 90.5324 173.503 89.8892C174.656 89.2174 175.966 88.8613 177.301 88.8569C178.764 88.8549 180.196 89.2703 181.43 90.0544C182.145 90.5202 182.785 91.0909 183.33 91.7473C183.62 92.0834 183.882 92.4425 184.114 92.8208Z" fill="#706F6F"></path><path d="M200.134 92.8208H198.647C198.313 92.35 197.909 91.9324 197.45 91.5821C196.902 91.1554 196.288 90.8207 195.633 90.5911C194.98 90.3777 194.297 90.2663 193.61 90.2608C192.533 90.262 191.477 90.5494 190.548 91.0936C189.619 91.6377 188.852 92.4191 188.325 93.3576C187.766 94.2621 187.479 95.3086 187.499 96.3718C187.503 97.4449 187.788 98.4982 188.325 99.4273C188.885 100.358 189.664 101.138 190.596 101.698C191.525 102.235 192.578 102.52 193.651 102.524C194.613 102.526 195.561 102.3 196.418 101.863C196.841 101.641 197.242 101.378 197.615 101.079C197.986 100.704 198.331 100.304 198.647 99.8815H200.258C200.02 100.296 199.758 100.696 199.473 101.079L198.647 101.946C197.267 103.226 195.451 103.934 193.569 103.928C192.218 103.943 190.889 103.586 189.729 102.896C188.587 102.232 187.639 101.28 186.98 100.135C186.32 98.9903 185.973 97.6928 185.971 96.3718C185.949 95.0464 186.307 93.7425 187.003 92.6144C187.647 91.4747 188.589 90.5324 189.729 89.8892C190.882 89.2174 192.192 88.8613 193.527 88.8569C194.99 88.8549 196.422 89.2703 197.656 90.0544C198.371 90.5202 199.011 91.0909 199.556 91.7473C199.775 92.0904 199.968 92.4492 200.134 92.8208V92.8208Z" fill="#706F6F"></path><path d="M213.594 103.679H212.149V91.2922V91.5812L203.891 103.721H202.405V89.1038H203.891V101.491V101.202L212.149 89.0625H213.594V103.679Z" fill="#706F6F"></path><path d="M227.552 103.679H226.107V91.2922V91.5812L217.848 103.721H216.403V89.1038H217.848V101.491V101.202L226.107 89.0625H227.552V103.679Z" fill="#706F6F"></path></g><defs><clipPath id="clip0_67_14"><rect width="288" height="143.814" fill="white"></rect></clipPath></defs></svg> 