<?xml version="1.0" encoding="UTF-8"?> <svg xmlns="http://www.w3.org/2000/svg" width="320" height="114" viewBox="0 0 320 114" fill="none"><rect width="319.5" height="113.3" fill="#B70618"></rect><path d="M35.3999 32.9998V32.6998C35.0999 31.3998 34.7999 30.1998 34.2999 28.7998C33.9999 27.9998 33.6999 27.2998 33.2999 26.7998C32.8999 26.1998 32.6999 25.4998 32.1999 24.8998V24.7998L31.9999 24.6998C31.5999 24.1998 31.0999 23.5998 30.4999 23.0998C29.8999 22.4998 29.1999 21.9998 28.6999 21.5998C28.0999 21.0998 27.5999 20.6998 26.6999 20.2998C26.0999 19.9998 25.3999 19.6998 24.6999 19.3998C23.2999 18.8998 21.7999 18.4998 20.3999 18.3998C19.4999 18.2998 18.8999 18.2998 18.0999 18.2998H15.2999L14.9999 18.7998C13.4999 19.2998 12.3999 20.8998 12.3999 22.5998V27.0998V27.1998C12.4999 28.5998 12.4999 29.7998 12.4999 31.1998V31.2998V31.3998C12.5999 32.7998 12.5999 34.1998 12.5999 35.5998C12.5999 36.1998 12.5999 36.8998 12.5999 37.5998C12.5999 38.2998 12.5999 39.0998 12.5999 39.8998C12.5999 40.4998 12.5999 41.2998 12.5999 41.8998C12.5999 42.6998 12.5999 43.3998 12.5999 44.1998V48.1998C12.5999 49.6998 12.5999 51.0998 12.6999 52.5998V56.9998C12.6999 57.7998 12.6999 58.4998 12.6999 59.0998C12.6999 59.6998 12.6999 60.4998 12.6999 61.1998V61.2998V61.3998C12.7999 62.6998 12.7999 63.9998 12.7999 65.5998V65.6998V65.7998C12.7999 66.5998 12.7999 67.3998 12.7999 68.2998C12.7999 68.7998 12.7999 69.2998 12.7999 69.7998V74.0998L12.4999 82.6998V84.6998L12.3999 86.6998V86.9998C12.3999 87.7998 12.3999 88.3998 12.3999 89.0998C12.3999 89.7998 12.3999 90.4998 12.3999 91.1998V91.4998C12.3999 92.5998 12.8999 93.5998 13.6999 94.3998C14.4999 95.1998 15.5999 95.6998 16.6999 95.6998C16.7999 95.6998 16.9999 95.6998 16.9999 95.6998C18.0999 95.6998 19.2999 95.1998 19.9999 94.2998C20.7999 93.3998 21.0999 92.2998 20.9999 91.0998C20.9999 90.4998 20.9999 89.6998 20.8999 89.0998C20.8999 88.2998 20.8999 87.6998 20.7999 86.9998V84.8998L20.6999 82.5998L20.3999 69.6998C20.3999 68.8998 20.3999 68.1998 20.3999 67.3998C20.3999 66.7998 20.3999 65.9998 20.3999 65.3998C20.3999 64.5998 20.3999 63.9998 20.3999 63.2998C20.3999 62.8998 20.3999 62.4998 20.3999 62.1998H20.7999C22.0999 62.1998 23.2999 62.0998 24.6999 61.8998C25.4999 61.8998 26.2999 61.5998 26.9999 61.3998C27.9999 61.0998 28.7999 60.7998 29.3999 60.4998L29.4999 60.3998L30.4999 59.7998C30.9999 59.3998 31.3999 58.9998 31.7999 58.7998C32.5999 57.9998 33.1999 57.2998 33.5999 56.4998C34.3999 55.1998 34.8999 53.6998 35.0999 52.0998C35.3999 51.0998 35.4999 50.1998 35.5999 49.2998C35.5999 48.8998 35.6999 48.4998 35.6999 48.1998V47.9998V47.8998C35.9999 45.3998 35.9999 42.8998 35.9999 40.4998V36.7998V36.3998C35.7999 35.4998 35.6999 34.2998 35.3999 32.9998ZM27.9999 48.4998C27.8999 49.0998 27.6999 49.8998 27.5999 50.3998V50.4998V50.5998C27.4999 51.3998 27.0999 52.0998 26.7999 52.5998C26.3999 53.1998 26.1999 53.3998 25.9999 53.4998V53.6998L25.8999 53.7998C25.7999 53.8998 25.2999 54.0998 23.9999 54.1998H23.8999H23.7999C22.9999 54.2998 21.8999 54.2998 20.9999 54.2998C20.9999 54.2998 20.8999 54.2998 20.6999 54.2998V43.9998C20.6999 43.1998 20.6999 42.4998 20.6999 41.6998C20.6999 40.8998 20.6999 40.2998 20.6999 39.6998V39.5998V39.4998C20.5999 38.1998 20.5999 36.6998 20.5999 35.2998V35.1998V34.9998C20.5999 34.0998 20.5999 33.1998 20.5999 32.3998C20.5999 31.8998 20.5999 31.4998 20.5999 30.9998V30.6998C20.6999 29.2998 20.6999 28.0998 20.6999 26.6998C20.6999 26.3998 20.6999 26.2998 20.6999 26.0998C21.1999 26.0998 21.7999 26.1998 22.5999 26.3998L23.8999 26.8998C24.1999 26.9998 24.3999 27.1998 24.6999 27.3998C25.4999 27.8998 25.9999 28.3998 26.2999 28.8998V28.9998V29.0998C26.7999 29.6998 27.1999 30.4998 27.5999 31.1998L27.8999 31.7998C27.8999 31.7998 27.8999 31.7998 27.8999 31.8998V32.1998L27.9999 32.5998C28.0999 32.9998 28.2999 33.3998 28.2999 33.9998C28.3999 34.5998 28.3999 35.2998 28.3999 35.8998C28.3999 36.2998 28.3999 36.6998 28.3999 36.8998V40.6998V40.9998C28.2999 43.0998 28.2999 45.3998 27.9999 47.5998C28.0999 47.7998 28.0999 48.0998 27.9999 48.4998Z" fill="white"></path><path d="M49 26.7999C49.6 26.7999 50.3 26.7999 50.9 26.7999C51.5 26.7999 52.2 26.7999 52.7 26.7999L54.6 26.6999H56.5L58.4 26.5999H60.5H60.6C61.9 26.4999 63 25.7999 63.6 24.7999C64.2 23.8999 64.5 22.7999 64.4 21.5999C64.1 19.4999 62.3 17.8999 60.1 17.8999C60 17.8999 59.7 17.8999 59.6 17.8999H59.2C58.7 17.9999 58.3 17.9999 57.9 17.9999L55.9 18.3999L52.2 18.7999H52C50.9 18.8999 49.6 18.8999 48.5 19.1999L45 19.4999H44.7H44.4C42.5 19.8999 41.2 21.2999 41.2 23.1999V25.2999C41.2 25.6999 41.2 25.8999 41.2 26.2999C41.2 26.6999 41.2 26.8999 41.2 27.2999C41.1 28.0999 41.1 28.8999 41.1 29.5999C41.1 29.8999 41.1 30.0999 41.1 30.4999C41.1 30.8999 41.1 31.2999 41.1 31.7999L41 35.9999V44.5999C41.1 45.8999 41.1 47.1999 41.1 48.5999C41.1 49.8999 41 51.1999 40.8 52.5999C40.7 53.9999 40.5 55.4999 40.5 56.9999C40.5 58.3999 40.5 59.8999 40.6 61.3999C40.6 62.1999 40.6 62.7999 40.6 63.4999C40.6 64.0999 40.6 64.8999 40.6 65.4999V65.5999V65.6999C40.7 66.9999 40.7 68.2999 40.7 69.6999V78.0999L40.6 82.2999L40.5 90.9999C40.5 93.0999 42.1 94.7999 44.2 94.7999L60.5 94.9999C62.6 94.9999 64.5 93.1999 64.5 91.0999C64.5 88.9999 62.7 87.0999 60.6 87.0999L48.4 87.3999V73.8999C48.4 72.4999 48.4 71.0999 48.5 69.6999V69.5999C48.5 68.9999 48.5 68.2999 48.5 67.5999C48.5 66.9999 48.5 66.1999 48.5 65.4999L48.8 61.4999C48.8 61.3999 48.8 61.0999 48.8 60.9999C49.1 60.9999 49.3 60.9999 49.6 60.8999C50 60.8999 50.2 60.8999 50.5 60.8999C50.9 60.8999 51.1 60.8999 51.4 60.8999C52 60.8999 52.9 60.8999 53.7 60.7999H55.3C56.2 60.7999 56.9 60.7999 57.2 60.6999C58.3 60.6999 59.3 60.1999 60 59.2999C60.8 58.4999 61 57.3999 61 56.3999C60.9 54.2999 59.2 52.5999 57.1 52.5999C57 52.5999 56.8 52.5999 56.7 52.5999C56.4 52.5999 55.8 52.5999 54.9 52.6999C54.4 52.6999 53.8 52.6999 53 52.7999C52.6 52.7999 52.4 52.7999 52.1 52.7999C51.7 52.7999 51.5 52.7999 51.2 52.7999C50.7 52.7999 50.3 52.7999 49.9 52.7999C49.6 52.7999 49.4 52.7999 49.1 52.7999H48.8C48.8 52.6999 48.8 52.3999 48.8 52.2999C48.7 50.9999 48.7 49.7999 48.7 48.3999C48.7 47.0999 48.8 45.7999 49 44.3999V44.2999V43.9999C49 43.3999 49 42.6999 49 41.9999C49 41.1999 49 40.5999 49 39.8999V29.1999C49 28.5999 49 27.6999 48.9 26.8999V26.7999H49V26.7999Z" fill="white"></path><path d="M95.6997 20.7999C95.2997 18.8999 93.5997 17.3999 91.4997 17.3999C91.1997 17.3999 91.0997 17.3999 90.8997 17.3999C90.6997 17.3999 90.3997 17.3999 89.9997 17.4999C89.8997 17.4999 89.5997 17.4999 89.4997 17.4999C89.4997 17.4999 89.4997 17.4999 89.3997 17.4999H89.0997L88.7997 17.5999C88.6997 17.5999 88.6997 17.5999 88.2997 17.5999H88.1997H87.9997C87.8997 17.5999 87.5997 17.5999 87.4997 17.6999C87.1997 17.6999 87.0997 17.6999 86.8997 17.7999H85.4997H85.1997C84.8997 17.7999 84.3997 17.7999 84.0997 17.7999C83.4997 17.7999 82.9997 17.7999 82.2997 17.8999H79.0997H78.7997C78.3997 17.9999 77.9997 17.9999 77.7997 17.9999H73.5997H73.4997C72.1997 18.0999 71.1997 18.5999 70.2997 19.5999C69.4997 20.4999 69.2997 21.5999 69.3997 22.7999C69.6997 25.0999 71.3997 26.6999 73.6997 26.6999C73.7997 26.6999 73.9997 26.6999 74.0997 26.6999C74.1997 26.6999 74.5997 26.6999 74.9997 26.5999C75.4997 26.5999 75.9997 26.4999 76.5997 26.4999H76.9997C77.3997 26.4999 77.8997 26.4999 78.3997 26.3999C78.4997 26.3999 78.6997 26.3999 78.6997 26.3999C78.6997 26.7999 78.6997 26.9999 78.6997 27.4999C78.6997 27.9999 78.6997 28.4999 78.7997 29.0999C78.7997 29.6999 78.7997 30.4999 78.8997 31.1999V33.2999C78.8997 33.7999 78.8997 34.2999 78.8997 34.6999C78.8997 35.0999 78.8997 35.4999 78.8997 35.7999V36.8999C78.7997 37.3999 78.7997 37.8999 78.7997 38.2999C78.6997 39.2999 78.6997 40.2999 78.6997 41.1999C78.6997 41.5999 78.6997 42.0999 78.6997 42.5999C78.6997 43.0999 78.6997 43.5999 78.6997 44.1999V45.9999C78.6997 46.4999 78.6997 47.0999 78.7997 47.7999C78.7997 48.2999 78.7997 48.7999 78.7997 49.1999C78.7997 49.6999 78.7997 50.1999 78.7997 50.6999C78.7997 51.6999 78.7997 52.6999 78.6997 53.5999C78.5997 54.5999 78.3997 55.8999 78.3997 56.9999C78.3997 58.0999 78.4997 59.0999 78.6997 60.1999V60.2999C78.6997 61.3999 78.7997 62.2999 78.9997 63.2999V63.5999C79.0997 64.4999 79.0997 65.4999 79.0997 66.4999V69.4999C78.9997 71.4999 78.9997 73.3999 78.9997 75.2999C78.8997 77.1999 78.8997 78.7999 78.8997 80.4999L78.5997 91.1999C78.5997 93.2999 80.4997 95.1999 82.5997 95.1999H82.6997H82.7997C84.8997 94.8999 86.4997 93.1999 86.4997 91.1999C86.4997 91.1999 86.3997 86.8999 86.1997 80.5999V75.2999V75.1999C86.0997 73.3999 86.0997 71.4999 86.0997 69.4999V66.2999C86.0997 65.2999 86.0997 64.2999 86.1997 63.3999V63.2999V63.3999C86.1997 62.4999 86.2997 61.5999 86.2997 60.7999V60.4999C86.2997 59.8999 86.3997 59.3999 86.3997 58.8999C86.3997 58.3999 86.3997 57.8999 86.4997 57.3999V57.2999V57.1999C86.4997 56.2999 86.3997 55.3999 86.1997 54.6999C86.1997 54.3999 86.0997 54.0999 86.0997 53.7999C85.9997 52.7999 85.9997 51.8999 85.9997 50.8999V50.7999C86.0997 49.7999 86.2997 48.7999 86.2997 47.7999V41.7999C86.2997 40.8999 86.2997 39.8999 86.1997 38.8999C86.1997 38.5999 86.1997 38.3999 86.0997 38.0999C86.0997 37.9999 86.0997 37.7999 86.0997 37.6999V33.7999C86.0997 33.3999 86.0997 33.1999 86.0997 32.7999C86.0997 32.3999 86.1997 31.8999 86.1997 31.4999C86.1997 31.1999 86.1997 30.9999 86.1997 30.5999C86.1997 30.1999 86.2997 29.7999 86.2997 29.2999C86.2997 28.1999 86.3997 27.1999 86.3997 26.2999V26.1999C86.6997 26.1999 86.8997 26.1999 87.2997 26.0999H89.6997L89.9997 26.1999H91.9997H92.2997C94.7997 25.4999 96.1997 23.1999 95.6997 20.7999Z" fill="white"></path><path d="M108.8 26.7999C109.4 26.7999 110.2 26.7999 110.8 26.7999C111.4 26.7999 111.9 26.7999 112.6 26.7999H112.7L114.6 26.6999H116.5L118.4 26.5999H120.5H120.6C121.9 26.4999 123 25.7999 123.6 24.7999C124.2 23.8999 124.5 22.7999 124.4 21.5999C124.1 19.4999 122.3 17.8999 120.1 17.8999C120 17.8999 119.7 17.8999 119.6 17.8999H119.2C118.7 17.9999 118.3 17.9999 117.9 17.9999H117.6L115.6 18.3999L111.9 18.7999H111.6C110.5 18.8999 109.2 18.8999 108.1 19.1999L104.6 19.4999H104.3H104C102.1 19.8999 100.8 21.2999 100.8 23.1999V25.2999C100.8 25.6999 100.8 25.8999 100.8 26.2999C100.8 26.6999 100.8 26.8999 100.8 27.2999C100.7 28.0999 100.7 28.8999 100.7 29.5999C100.7 29.8999 100.7 30.0999 100.7 30.4999C100.7 30.8999 100.7 31.2999 100.7 31.7999L100.6 35.9999V44.5999V44.6999C100.7 45.9999 100.7 47.2999 100.7 48.6999C100.7 49.9999 100.6 51.2999 100.4 52.6999C100.3 54.0999 100.1 55.5999 100.1 57.0999C100.1 58.4999 100.1 59.9999 100.2 61.4999C100.2 62.2999 100.2 62.8999 100.2 63.5999C100.2 64.1999 100.2 64.9999 100.2 65.5999V65.6999V65.7999C100.3 67.0999 100.3 68.3999 100.3 69.7999V78.1999L100.2 82.3999L100.1 90.9999C100.1 93.0999 101.7 94.7999 103.8 94.7999L119.9 94.8999C122 94.8999 123.9 93.0999 123.9 90.9999C123.9 88.8999 122.1 86.9999 120 86.9999L108 87.2999V73.8999C108 72.4999 108 71.0999 108.1 69.6999V69.5999C108.1 68.9999 108.1 68.2999 108.1 67.5999C108.1 66.9999 108.1 66.1999 108.1 65.4999L108.4 61.4999C108.4 61.3999 108.4 61.0999 108.4 60.9999C108.7 60.9999 108.9 60.9999 109.2 60.8999C109.6 60.8999 109.8 60.8999 110.1 60.8999C110.5 60.8999 110.7 60.8999 111 60.8999C111.6 60.8999 112.5 60.8999 113.3 60.7999H114.9C115.8 60.7999 116.5 60.7999 116.8 60.6999C117.9 60.6999 118.9 60.1999 119.6 59.2999C120.4 58.4999 120.6 57.3999 120.6 56.3999C120.5 54.2999 118.8 52.5999 116.7 52.5999C116.6 52.5999 116.4 52.5999 116.3 52.5999C116 52.5999 115.4 52.5999 114.5 52.6999C114 52.6999 113.4 52.6999 112.6 52.7999C112.2 52.7999 112 52.7999 111.7 52.7999C111.3 52.7999 111.1 52.7999 110.8 52.7999C110.3 52.7999 109.9 52.7999 109.5 52.7999C109.2 52.7999 109 52.7999 108.7 52.7999H108.4C108.4 52.6999 108.4 52.3999 108.4 52.2999C108.3 50.9999 108.3 49.7999 108.3 48.3999C108.3 47.0999 108.4 45.7999 108.6 44.3999V44.6999V44.5999C108.6 43.9999 108.6 43.2999 108.6 42.5999C108.6 41.8999 108.6 41.1999 108.6 40.4999V29.5999C108.6 28.9999 108.6 28.0999 108.5 27.2999V26.7999H108.8Z" fill="white"></path><path d="M154 90.8998C154 90.5998 154 90.3998 153.9 90.0998C153.9 89.9998 153.9 89.7998 153.9 89.6998V89.3998L153.5 87.3998V87.2998C153.2 86.6998 153.1 85.8998 153 85.1998L152.4 82.3998V82.2998C152.3 81.8998 152.1 81.3998 152 80.8998C151.9 80.3998 151.7 79.8998 151.6 79.4998L149.8 73.1998V73.0998C149.7 72.7998 149.7 72.6998 149.7 72.4998C149.6 72.1998 149.6 71.9998 149.4 71.5998C149.3 70.9998 149 70.2998 148.9 69.7998C148.6 68.7998 148.3 67.6998 148 66.7998L147.2 63.9998V63.8998C147.1 63.4998 146.9 62.9998 146.8 62.5998L146.5 61.4998C146.4 61.1998 146.4 60.8998 146.2 60.5998C146.1 60.1998 146.1 59.7998 145.9 59.4998C146 59.3998 146.3 59.3998 146.4 59.1998C147.3 58.6998 147.9 58.1998 148.5 57.6998C149.4 56.8998 149.9 56.2998 150.3 55.6998C151.4 54.2998 152.1 52.7998 152.4 51.3998V51.2998L152.5 50.7998C152.8 49.6998 153 48.3998 153.1 47.0998C153.4 45.7998 153.4 44.5998 153.5 43.2998C153.6 41.9998 153.6 40.7998 153.6 39.3998V35.5998V35.1998C153.5 34.0998 153.3 32.7998 153.2 31.4998V31.1998L153.1 31.0998C153.1 30.9998 153.1 30.7998 153 30.7998V30.3998L152.6 29.2998C152.5 28.6998 152.2 28.2998 152.1 27.7998C152 27.6998 152 27.3998 152 27.2998V27.1998V27.0998C151.4 25.5998 150.5 24.0998 149.5 22.8998C148.4 21.4998 146.9 20.5998 145.8 19.9998L145.7 19.8998L145.6 19.7998C145 19.3998 144.2 19.1998 143.3 18.7998C142.7 18.4998 142 18.2998 141.2 18.2998C139.9 17.9998 138.6 17.7998 136.9 17.7998C136.1 17.7998 135.5 17.7998 134.6 17.8998C134.3 17.8998 134.1 17.8998 134 17.9998H133.9C133.6 17.9998 133.4 17.9998 133.1 18.0998H132.1L131.8 18.3998C130.3 18.8998 129.3 20.3998 129.3 22.0998V22.1998C129.3 22.7998 129.3 23.4998 129.3 24.1998C129.3 24.8998 129.3 25.6998 129.3 26.4998C129.3 27.8998 129.3 29.3998 129.4 30.8998C129.5 32.2998 129.7 33.6998 129.7 35.0998V39.3998C129.7 39.9998 129.7 40.7998 129.7 41.3998C129.7 42.1998 129.7 42.7998 129.7 43.4998C129.6 44.9998 129.6 46.4998 129.6 47.8998V52.1998L129.7 56.4998C129.7 57.9998 129.7 59.3998 129.8 60.8998C129.8 61.6998 129.8 62.2998 129.8 62.8998C129.8 63.4998 129.8 64.2998 129.8 64.9998C129.8 66.3998 129.8 67.7998 129.7 69.1998V69.2998V73.5998L129.4 82.1998C129.4 82.9998 129.4 83.5998 129.4 84.2998C129.4 84.8998 129.4 85.6998 129.4 86.2998C129.4 87.0998 129.3 87.6998 129.3 88.3998C129.3 89.1998 129.3 89.7998 129.2 90.3998V90.4998V90.9998C129.2 92.0998 129.7 93.0998 130.5 93.9998C131.3 94.7998 132.4 95.2998 133.4 95.2998C133.5 95.2998 133.7 95.2998 133.7 95.2998C136 95.1998 137.9 93.2998 137.9 90.8998V91.1998C137.8 89.7998 137.6 88.5998 137.6 86.9998V86.8998V86.7998C137.5 85.4998 137.5 84.1998 137.5 82.5998L137.2 69.6998V65.3998C137.2 64.5998 137.2 63.9998 137.2 63.2998C137.2 62.6998 137.2 61.8998 137.2 61.2998C137.2 61.1998 137.2 60.9998 137.2 60.8998C137.2 60.8998 137.7 60.8998 137.8 60.8998C137.8 60.9998 137.8 61.1998 137.9 61.2998V61.3998C138 61.6998 138 61.7998 138.2 61.9998C138.3 62.3998 138.5 62.9998 138.7 63.4998L139 64.4998L139.4 65.9998V66.0998C139.7 66.8998 139.8 67.6998 140 68.5998V68.6998V68.7998C140.1 69.2998 140.3 69.7998 140.4 70.2998C140.5 70.7998 140.7 71.2998 140.8 71.8998L141.2 73.4998V73.5998C141.3 73.9998 141.5 74.3998 141.5 74.8998V74.9998L143.1 81.3998C143.2 81.9998 143.4 82.6998 143.5 83.1998C143.6 83.5998 143.8 83.9998 143.8 84.2998C143.9 84.8998 144.1 85.3998 144.3 85.8998C144.4 86.2998 144.6 86.4998 144.6 86.8998C144.9 87.6998 145 88.4998 145.2 89.1998L145.7 90.9998C145.8 91.3998 146 91.4998 146.1 91.7998L146.2 92.0998V92.1998C146.3 92.5998 146.5 92.7998 146.6 93.0998C147.2 94.3998 148.5 95.1998 150 95.1998C150.1 95.1998 150.3 95.1998 150.4 95.1998C151.4 95.1998 152.4 94.6998 153.2 93.7998C153.8 92.9998 154.2 91.9998 154.1 90.9998L154 90.8998ZM137.5 43.8998C137.4 42.5998 137.4 41.0998 137.4 39.6998V39.5998V39.4998C137.3 38.1998 137.3 36.8998 137.3 35.4998L137.6 31.1998V30.9998C137.6 30.4998 137.6 29.9998 137.6 29.5998C137.6 28.5998 137.6 27.6998 137.6 26.6998V25.7998C138 25.7998 138.2 25.7998 138.6 25.7998C139.1 25.7998 139.6 25.7998 140.1 25.8998C140.6 25.9998 141 25.9998 141.4 26.1998H141.5H141.6C141.9 26.1998 142 26.2998 142.2 26.4998H142.3C142.9 26.8998 143.7 27.3998 144.1 27.8998H144.2C144.7 28.3998 145.1 29.1998 145.5 29.8998C145.9 30.6998 146 31.4998 146.3 32.4998C146.4 33.4998 146.6 34.3998 146.6 35.3998V37.1998C146.6 37.2998 146.6 37.5998 146.6 37.7998C146.6 38.1998 146.6 38.3998 146.5 38.7998C146.4 41.1998 146.2 43.2998 146 45.4998C145.9 46.3998 145.6 47.4998 145.2 48.3998C144.9 49.1998 144.7 49.8998 144.2 50.3998C144.1 50.6998 143.8 50.8998 143.7 50.9998C143.4 51.2998 143.2 51.3998 142.9 51.4998H142.8L142.7 51.5998C142.2 51.8998 141.4 51.9998 140.6 52.1998C139.6 52.2998 138.6 52.2998 137.6 52.2998L137.5 43.8998Z" fill="white"></path><path d="M184.3 70.7001C184.2 69.3001 183.9 67.9001 183.7 66.7001C183.4 65.4001 183.1 64.1001 182.6 62.5001C182.1 61.1001 181.2 59.9001 180.2 58.5001C179.7 57.7001 178.9 57.0001 178.2 56.5001C178.7 56.1001 179.2 55.6001 179.6 55.1001C180.7 54.0001 181.6 52.6001 182.2 51.2001C183 49.8001 183.3 48.3001 183.6 46.8001L184 44.7001V44.6001C184 44.6001 184 44.6001 184 44.5001C184 44.2001 184.1 44.0001 184.1 43.6001V42.6001C184.1 42.2001 184.1 41.8001 184.1 41.5001C184.1 40.7001 184.1 39.9001 184.1 39.0001C184.1 38.4001 184.1 37.7001 184 37.0001C184 36.7001 184 36.4001 183.9 36.0001C183.9 35.7001 183.9 35.4001 183.8 35.0001C183.7 33.6001 183.3 32.4001 183 31.1001V31.0001L182.4 29.1001C182.1 28.5001 181.9 27.7001 181.5 27.0001C180.7 25.5001 179.9 24.2001 178.9 23.1001L178.8 23.0001L177.2 21.5001L177.1 21.4001C176.6 21.0001 176 20.5001 175.1 20.0001C174.2 19.5001 173.3 19.1001 172.8 19.0001C172.2 18.7001 171.3 18.5001 170.5 18.4001H170.4C169.6 18.3001 168.8 18.1001 168 18.1001C167.2 18.1001 166.5 18.1001 165.6 18.2001L163.5 18.6001L162.4 19.0001H162.3H161.9L160.8 19.5001C159.7 20.1001 158.9 21.4001 158.9 22.8001V25.1001L159 27.4001L159.4 44.3001L159.5 46.6001L159.6 48.6001L159.7 52.9001V53.0001C159.8 54.3001 159.8 55.6001 159.8 57.0001V69.7001L159.7 73.9001C159.6 75.3001 159.6 76.8001 159.6 78.1001C159.6 78.9001 159.5 79.5001 159.5 80.2001C159.5 80.9001 159.5 81.6001 159.4 82.2001L159.3 84.5001V86.6001C159.3 87.0001 159.2 87.4001 159.2 87.6001C159.2 88.0001 159.2 88.2001 159.1 88.5001V88.8001V88.9001C159.1 89.5001 159.1 90.2001 159 90.7001V90.8001V91.6001C159 93.2001 160 94.6001 161.4 95.3001L162.4 95.7001H162.7L163.5 96.0001H163.9C164 96.0001 164 96.0001 164.2 96.0001L164.6 96.1001H164.7C165.3 96.2001 166.1 96.4001 166.8 96.4001C167.4 96.5001 167.9 96.5001 168.7 96.5001C169.6 96.5001 170.3 96.5001 171.2 96.4001H171.3H171.4C173.2 96.1001 174.8 95.5001 176.2 94.8001C178 93.9001 179.2 92.9001 180.2 91.8001C181.3 90.4001 182.2 89.2001 182.8 87.9001C183.4 86.5001 183.9 85.1001 184.2 83.6001V83.5001L184.3 83.0001C184.4 81.9001 184.7 80.7001 184.8 79.5001L184.9 78.4001V75.5001C184.9 74.2001 184.8 73.0001 184.8 71.7001L184.3 70.7001ZM166.9 26.0001C167.2 26.0001 167.5 26.0001 168 26.0001H168.3H168.6C168.7 26.0001 169.1 26.0001 169.2 26.1001H169.5H169.8C169.9 26.1001 170.1 26.1001 170.2 26.2001C170.3 26.2001 170.5 26.3001 170.6 26.3001C170.9 26.4001 171.1 26.6001 171.2 26.6001L171.3 26.7001L171.4 26.8001C171.8 27.1001 171.9 27.2001 172.2 27.4001C172.5 27.6001 172.7 28.0001 173 28.3001C173.5 28.9001 173.9 29.7001 174.3 30.4001L174.8 31.8001L175.1 32.6001L175.4 33.5001C175.7 34.4001 175.8 35.3001 176 36.3001C176 36.6001 176 36.8001 176.1 36.9001C176.1 36.9001 176.1 36.9001 176.1 37.0001V37.5001L176.2 37.8001V38.1001V38.4001C176.3 38.9001 176.3 39.4001 176.3 39.7001V39.8001L176.6 43.3001V44.7001C176.6 45.0001 176.5 45.3001 176.5 45.6001C176.5 45.9001 176.5 46.0001 176.4 46.2001V46.3001C176.3 46.8001 176.3 47.2001 176.1 47.6001L175.6 49.0001C175.3 49.6001 175 50.3001 174.3 50.9001C173.8 51.4001 173.2 51.9001 172.4 52.4001C171.8 52.8001 171 53.0001 170 53.3001C169.1 53.4001 168.2 53.7001 167.4 53.7001V45.0001L167.3 40.7001V36.4001L167 28.0001C166.7 26.8001 166.7 26.5001 166.9 26.0001ZM167.5 88.0001V78.4001C167.5 77.0001 167.5 75.5001 167.4 74.0001V69.8001L167.3 65.6001V63.3001L167.2 61.2001V60.3001C168.3 60.3001 169.2 60.4001 170 60.6001H170.1H170.2C171 60.7001 171.8 61.0001 172.5 61.4001C173.2 61.8001 173.8 62.3001 174.3 62.9001C174.8 63.5001 175.1 64.2001 175.4 65.2001V65.3001C175.8 66.1001 176 66.9001 176.2 67.9001V68.0001V68.1001C176.5 69.1001 176.6 70.1001 176.6 71.3001C176.7 72.3001 176.7 73.4001 176.7 74.6001V76.2001L176.6 77.1001V78.0001C176.5 79.0001 176.3 79.9001 176.1 81.0001V81.1001V81.2001C176 82.0001 175.6 82.8001 175.2 83.7001C174.8 84.5001 174.3 85.2001 173.8 85.8001C173.4 86.3001 172.8 86.7001 172 87.1001H171.9C171.4 87.4001 170.6 87.6001 169.9 87.7001H169.8H169.7C169 88.0001 168.6 88.0001 168 88.0001C168 88.1001 167.7 88.1001 167.5 88.0001Z" fill="white"></path><path d="M210.7 18.4998C209.6 18.4998 208.4 18.9998 207.5 19.8998C206.7 20.7998 206.4 21.8998 206.4 23.0998V24.5998C206.4 25.0998 206.4 25.5998 206.4 26.3998C206.4 27.2998 206.5 28.1998 206.5 29.2998C206.5 30.2998 206.6 31.5998 206.6 32.7998C206.6 33.8998 206.6 35.0998 206.7 36.4998V36.5998C206.8 37.8998 206.8 39.1998 206.8 40.7998V40.8998C206.9 42.2998 206.9 43.8998 206.9 45.5998V45.6998V45.7998C207 47.3998 207 49.0998 207 50.9998C207 52.7998 207 54.6998 206.9 56.4998C206.9 57.3998 206.9 58.2998 206.8 59.0998V59.1998V62.3998C206.8 63.3998 206.8 64.3998 206.8 65.3998C206.8 66.3998 206.8 67.3998 206.8 68.3998C206.7 69.3998 206.7 70.4998 206.7 71.5998C206.7 72.0998 206.6 72.5998 206.6 73.1998C206.6 73.6998 206.6 74.1998 206.5 74.6998V74.7998C206.4 76.7998 206.4 78.7998 206 80.9998L205.7 82.4998C205.7 82.5998 205.6 82.8998 205.6 82.9998C205.5 83.2998 205.5 83.4998 205.3 83.7998C205 84.5998 204.7 85.2998 204.3 85.8998C204.2 86.1998 203.9 86.3998 203.5 86.6998L203 86.7998H201.5H201.4L201.1 86.6998C200.8 86.5998 200.5 86.1998 200.1 85.6998C199.7 84.8998 199.3 84.1998 199.2 83.3998V83.2998L199.1 83.1998C199 83.0998 199 82.7998 199 82.6998C198.9 82.3998 198.9 82.1998 198.7 81.8998L198.4 80.4998C198 78.5998 197.8 76.5998 197.5 74.4998C197.5 74.0998 197.5 73.8998 197.4 73.4998C197.4 73.1998 197.4 73.0998 197.4 72.8998C197.4 72.4998 197.4 72.2998 197.3 71.8998C197.3 71.5998 197.3 71.4998 197.3 71.2998C197.3 70.7998 197.3 70.1998 197.3 69.6998C197.3 69.1998 197.3 68.6998 197.3 68.1998C197.2 63.9998 197.2 59.9998 197.2 56.0998C197.2 54.1998 197.3 52.3998 197.3 50.6998C197.3 48.7998 197.3 46.9998 197.4 45.2998L197.7 28.8998C197.8 24.9998 197.8 22.5998 197.8 22.5998C197.8 20.1998 195.9 18.2998 193.5 18.2998C191.1 18.2998 189.2 20.1998 189.2 22.5998C189.2 22.6998 189.2 24.9998 189.3 28.8998C189.3 32.6998 189.3 38.4998 189.4 45.1998C189.4 46.7998 189.4 48.5998 189.4 50.3998C189.4 52.2998 189.4 54.1998 189.4 56.1998C189.4 57.5998 189.4 58.7998 189.5 60.1998C189.5 62.7998 189.6 65.5998 189.8 68.3998V68.4998C189.8 68.9998 189.9 69.4998 189.9 69.9998C189.9 70.4998 189.9 70.9998 190 71.5998C190 72.6998 190.1 73.8998 190.3 74.9998V75.4998C190.4 77.5998 190.7 79.6998 190.9 81.7998V81.8998C191.3 84.2998 191.8 86.7998 193.2 89.4998C193.6 90.0998 193.8 90.7998 194.3 91.4998L194.4 91.7998L196.3 93.6998L196.6 93.7998C197.4 94.2998 198.1 94.6998 199 94.8998C199.5 95.1998 199.9 95.1998 200.1 95.2998H200.2L200.6 95.3998H200.7C200.8 95.3998 201.1 95.4998 201.5 95.4998H201.9L202.2 95.5998H202.6C203 95.5998 203.2 95.4998 203.4 95.4998L204.5 95.3998L204.8 95.2998C205.6 94.9998 206.4 94.7998 207.2 94.2998H207.3H207.4C208.4 93.7998 209 93.1998 209.7 92.3998C210.5 91.5998 210.8 90.9998 211.3 90.2998C212.1 88.9998 212.4 87.6998 212.8 86.3998V86.2998V85.9998C212.8 85.8998 212.9 85.5998 212.9 85.4998C213 85.0998 213.2 84.6998 213.2 84.3998C213.2 84.2998 213.3 83.9998 213.3 83.8998C213.4 83.4998 213.6 83.0998 213.6 82.5998C214 80.1998 214.4 77.8998 214.5 75.6998C214.6 74.5998 214.8 73.3998 214.8 72.1998C214.8 71.6998 214.8 71.1998 214.8 70.6998C214.8 70.1998 214.8 69.6998 214.8 69.0998C214.9 66.7998 214.9 64.7998 214.9 62.7998V62.6998V62.5998C214.8 61.5998 214.8 60.6998 214.8 59.6998V56.7998V56.3998C214.7 54.4998 214.7 52.6998 214.7 51.0998V36.2998C214.8 33.4998 214.8 31.0998 214.8 29.0998C214.8 28.1998 214.9 27.4998 214.9 26.7998C214.9 25.8998 214.9 25.1998 215 24.6998V24.5998V22.7998C215 20.3998 213.1 18.4998 210.7 18.4998Z" fill="white"></path><path d="M244.6 90.8998C244.6 90.5998 244.6 90.3998 244.5 90.0998C244.5 89.9998 244.5 89.7998 244.5 89.6998V89.3998L244.1 87.3998V87.2998C243.8 86.6998 243.7 85.8998 243.6 85.1998L243 82.3998V82.2998C242.9 81.8998 242.7 81.3998 242.6 80.8998C242.5 80.3998 242.3 79.8998 242.2 79.4998L240.4 73.1998V73.0998C240.3 72.7998 240.3 72.6998 240.3 72.4998C240.2 72.1998 240.2 71.9998 240 71.5998C239.9 70.9998 239.6 70.2998 239.5 69.7998C239.2 68.7998 238.9 67.6998 238.6 66.7998L237.8 63.9998V63.8998C237.7 63.4998 237.5 62.9998 237.4 62.5998L237.1 61.4998C237 61.1998 237 60.8998 237 60.5998C236.9 60.1998 236.9 59.7998 236.7 59.4998C236.8 59.3998 237.1 59.3998 237.2 59.1998C238 58.6998 238.7 58.1998 239.3 57.6998C240.2 56.8998 240.7 56.2998 241.1 55.6998C242.2 54.2998 242.9 52.7998 243.2 51.3998V51.2998L243.3 50.7998C243.6 49.6998 243.8 48.3998 243.9 47.0998C244.2 45.7998 244.2 44.5998 244.3 43.2998C244.4 41.9998 244.4 40.7998 244.4 39.3998V35.5998V35.1998C244.3 34.0998 244.1 32.7998 244 31.4998V31.1998L243.9 31.0998C243.9 30.9998 243.8 30.7998 243.8 30.7998V30.3998L243.4 29.2998C243.3 28.6998 243 28.2998 242.9 27.7998C242.8 27.6998 242.8 27.3998 242.8 27.2998V27.1998V27.0998C242.2 25.5998 241.3 24.0998 240.3 22.8998C239 21.4998 237.7 20.5998 236.6 19.9998L236.5 19.8998L236.4 19.7998C235.8 19.3998 235 19.1998 234.1 18.7998C233.5 18.4998 232.7 18.2998 232 18.2998C230.7 17.9998 229.4 17.7998 227.7 17.7998C226.9 17.7998 226.3 17.7998 225.4 17.8998C225.1 17.8998 224.9 17.8998 224.8 17.9998H225C224.7 17.9998 224.5 17.9998 224.2 18.0998H223.1L222.8 18.3998C221.3 18.8998 220.3 20.3998 220.3 22.0998V22.1998C220.3 22.7998 220.3 23.4998 220.3 24.1998C220.3 24.8998 220.3 25.6998 220.3 26.4998C220.3 27.8998 220.3 29.3998 220.4 30.8998C220.5 32.2998 220.5 33.6998 220.5 35.0998V39.3998C220.5 39.9998 220.5 40.7998 220.5 41.3998C220.5 42.1998 220.5 42.7998 220.5 43.4998C220.4 44.9998 220.4 46.4998 220.4 47.8998V52.1998L220.5 56.4998C220.5 57.9998 220.5 59.3998 220.6 60.8998C220.6 61.6998 220.6 62.2998 220.6 62.8998C220.6 63.4998 220.6 64.2998 220.6 64.9998C220.6 66.3998 220.6 67.7998 220.5 69.1998V69.2998V73.5998L220.2 82.1998C220.2 82.9998 220.2 83.5998 220.2 84.2998C220.2 84.8998 220.2 85.6998 220.2 86.2998C220.2 87.0998 220.1 87.6998 220.1 88.3998C220.1 89.1998 220.1 89.7998 220 90.3998V90.4998V90.9998C220 92.0998 220.5 93.0998 221.3 93.9998C222.1 94.7998 223.2 95.2998 224.2 95.2998C224.3 95.2998 224.3 95.2998 224.5 95.2998C226.9 95.1998 228.7 93.2998 228.7 90.8998V91.1998V90.9998C228.6 89.5998 228.6 88.3998 228.6 86.7998V86.6998V86.5998C228.5 85.2998 228.5 83.9998 228.5 82.3998L228.2 69.4998V65.1998C228.2 64.3998 228.2 63.7998 228.2 63.0998C228.2 62.4998 228.2 61.6998 228.2 61.0998C228.2 60.9998 228.2 60.7998 228.2 60.6998C228.2 60.6998 228.7 60.6998 228.8 60.6998C228.8 60.7998 228.8 60.9998 228.9 61.0998V61.1998C229 61.4998 229 61.5998 229.2 61.7998C229.3 62.1998 229.5 62.7998 229.7 63.2998L230 64.2998L230.4 65.7998V65.9998C230.7 66.7998 230.8 67.5998 231 68.4998V68.5998V68.6998C231.1 69.1998 231.3 69.6998 231.4 70.1998C231.5 70.6998 231.7 71.1998 231.8 71.7998L232.2 73.3998V73.4998C232.3 73.8998 232.5 74.2998 232.5 74.7998V74.8998L234.1 81.2998C234.2 81.8998 234.4 82.5998 234.5 83.0998C234.6 83.4998 234.6 83.8998 234.8 84.1998C234.9 84.7998 235.1 85.2998 235.3 85.7998C235.4 86.1998 235.4 86.3998 235.6 86.7998C235.9 87.5998 236 88.3998 236.2 89.0998L236.7 90.8998C236.8 91.2998 237 91.3998 237 91.6998L237.1 91.9998V92.0998C237.2 92.4998 237.4 92.6998 237.5 92.9998C238.1 94.2998 239.4 95.0998 240.9 95.0998C241 95.0998 241.2 95.0998 241.3 95.0998C242.3 95.0998 243.3 94.5998 244.1 93.6998C244.7 92.8998 245.1 91.8998 245 90.8998H244.6ZM228.1 43.8998C228 42.5998 228 41.0998 228 39.6998V39.5998V39.4998C227.9 38.1998 227.9 36.8998 227.9 35.4998L228.2 31.1998V30.9998C228.2 30.4998 228.2 29.9998 228.2 29.5998C228.2 28.5998 228.2 27.6998 228.2 26.6998V25.7998C228.6 25.7998 228.8 25.7998 229.2 25.7998C229.7 25.7998 230.2 25.7998 230.7 25.8998C231.2 25.9998 231.6 25.9998 232 26.1998H232.1H232.2C232.5 26.1998 232.6 26.2998 232.8 26.4998H232.9C233.5 26.8998 234.3 27.3998 234.7 27.8998H234.8C235.3 28.3998 235.7 29.1998 236.1 29.8998C236.5 30.6998 236.6 31.4998 236.9 32.4998C237 33.4998 237.2 34.3998 237.2 35.3998V37.1998C237.2 37.2998 237.2 37.5998 237.2 37.7998C237.2 38.1998 237.2 38.3998 237.2 38.7998C237.1 41.1998 237.1 43.2998 236.7 45.4998C236.6 46.3998 236.3 47.4998 235.9 48.3998C235.6 49.1998 235.4 49.8998 234.9 50.3998C234.8 50.6998 234.5 50.8998 234.4 50.9998C234.1 51.2998 233.9 51.3998 233.6 51.4998H233.5L233.4 51.5998C232.9 51.8998 232.1 51.9998 231.3 52.1998C230.3 52.2998 229.3 52.2998 228.3 52.2998V43.8998H228.1Z" fill="white"></path><path d="M275.5 34.3999C275.5 34.0999 275.5 33.8999 275.4 33.7999C275.4 33.7999 275.4 33.6999 275.4 33.4999V33.1999L274.9 30.6999V30.5999C274.8 29.9999 274.5 29.0999 274.1 28.2999C273.8 27.4999 273.6 26.7999 273.2 25.9999C272.4 24.1999 271.3 22.5999 270 21.2999C269.2 20.3999 268.2 19.7999 267.4 19.3999C266.4 18.8999 265.4 18.5999 264.4 18.4999C263.8 18.3999 263.3 18.3999 262.8 18.3999C262.4 18.3999 262 18.3999 261.8 18.4999C261.7 18.4999 261.7 18.4999 261.7 18.4999H261.6H261.5C260.6 18.5999 259.7 18.7999 258.9 18.9999H258.8C257.7 19.3999 256.7 19.8999 255.8 20.5999C254.9 21.1999 254.2 21.9999 253.7 22.9999C253.3 23.4999 253.2 23.8999 253.1 24.0999C253.1 24.0999 253.1 24.1999 253 24.1999C252.9 24.4999 252.7 24.6999 252.6 24.9999V25.0999L252.5 25.3999L252.4 25.7999C252.4 26.0999 252.3 26.1999 252.3 26.3999C252.2 26.8999 251.9 27.3999 251.8 27.9999C251.4 29.5999 251 30.9999 250.9 32.3999C250.6 33.8999 250.5 35.2999 250.5 36.7999C250.4 38.1999 250.2 39.5999 250.2 41.0999C250.1 42.4999 250.1 43.9999 250.1 45.3999V49.5999C250.1 50.9999 250.1 52.4999 250.1 53.8999C250.1 55.2999 250.1 56.6999 250.1 58.0999C250.1 59.1999 250.1 60.3999 250 61.5999C249.9 63.1999 249.9 64.8999 249.9 66.5999C250 69.8999 250.3 72.5999 250.7 75.2999L251.3 79.6999C251.4 80.2999 251.6 81.0999 251.7 81.7999C251.8 82.1999 251.8 82.6999 252 83.0999C252 83.3999 252.1 83.5999 252.1 83.8999V83.9999V84.0999C252.5 85.5999 253 86.9999 253.6 88.5999C254 89.5999 254.6 90.4999 255.2 91.1999C255.7 91.7999 256.5 92.6999 257.3 93.2999C258.2 93.8999 259.2 94.3999 260.5 94.6999C261.6 94.9999 262.6 94.9999 263.4 94.9999H263.8C264.2 94.9999 264.4 94.9999 264.7 94.8999C265 94.8999 265.2 94.7999 265.5 94.5999C266 94.4999 266.5 94.2999 267 94.0999C268.3 93.4999 269 92.6999 269.6 92.0999L269.7 91.9999C270.8 90.6999 271.7 89.1999 272.5 87.2999C273.1 85.8999 273.5 84.3999 273.9 82.7999C274.7 79.8999 274.9 76.8999 275.3 74.0999V73.9999C275.6 71.0999 275.6 68.2999 275.7 65.5999C275.8 62.6999 275.8 59.7999 275.8 57.1999V56.9999V56.8999C275.5 54.9999 273.9 53.5999 272 53.5999C271.9 53.5999 271.7 53.5999 271.6 53.5999H271.5L261.9 54.4999H261.8C259.7 54.7999 258.1 56.7999 258.4 58.9999C258.7 60.8999 260.4 62.3999 262.3 62.3999C262.4 62.3999 262.7 62.3999 262.8 62.3999L268 61.7999V65.6999C268 68.2999 267.9 70.9999 267.7 73.7999C267.6 76.1999 267.2 78.7999 266.7 81.4999C266.4 82.5999 266.1 83.7999 265.7 84.7999V84.8999V84.9999C265.4 85.8999 264.9 86.5999 264.3 87.2999L264.2 87.3999L264.1 87.4999L264 87.5999L263.7 87.6999H263.6L263.3 87.7999C263.2 87.7999 263 87.7999 262.9 87.8999C262.8 87.8999 262.5 87.8999 262.4 87.8999L262.1 87.7999H261.8C261.5 87.7999 261.3 87.6999 261 87.4999C260.9 87.3999 260.7 87.1999 260.5 87.0999L259.7 85.7999C259.3 84.7999 258.9 83.7999 258.7 82.4999C258.1 79.8999 257.9 77.0999 257.8 74.7999C257.7 72.2999 257.5 69.4999 257.5 66.5999V66.4999C257.5 65.0999 257.4 63.6999 257.2 62.2999C257.1 60.8999 256.9 59.4999 256.9 58.0999C256.9 55.2999 257 52.2999 257.2 49.8999V49.9999C257.2 49.3999 257.2 48.6999 257.2 47.9999C257.2 47.3999 257.2 46.5999 257.2 45.8999L257.3 41.6999V41.3999C257.4 38.8999 257.4 36.1999 257.7 33.6999C257.8 33.2999 257.8 32.8999 257.8 32.3999C257.9 31.4999 258.1 30.7999 258.2 29.8999V29.7999V29.6999C258.3 28.6999 258.7 27.7999 259.1 27.1999C259.4 26.7999 259.5 26.6999 259.6 26.5999C259.9 26.4999 260.1 26.2999 260.4 26.1999L261.7 25.8999H262.5H262.6C262.7 25.8999 263 25.8999 263.1 25.9999C263.6 26.0999 264.1 26.3999 264.5 26.7999C265 27.2999 265.4 28.0999 265.9 29.0999C266.3 30.0999 266.5 31.1999 266.8 32.3999C266.9 32.7999 266.9 33.3999 266.9 33.8999V33.9999L267 34.9999V36.0999V36.1999C267.3 38.2999 269.1 40.0999 271.2 40.0999C271.3 40.0999 271.5 40.0999 271.6 40.0999C273.9 39.7999 275.6 37.9999 275.6 35.6999V34.9999L275.5 34.6999V34.3999Z" fill="white"></path><path d="M308.9 90.2C308.8 88.2 307.1 86.5 305 86.5C304.9 86.5 304.7 86.5 304.7 86.5C304.3 86.5 304.1 86.5 303.8 86.6C303.7 86.6 303.7 86.6 303.5 86.6C303.1 86.6 302.9 86.6 302.6 86.7C302.5 86.7 302.5 86.7 302.3 86.7C301.8 86.7 301.3 86.7 300.8 86.8H299.8C299.3 86.8 298.8 86.8 298.4 86.8C298 86.8 297.6 86.8 297.3 86.8H294.8H294.7C293.3 86.9 291.9 86.9 290.5 86.9V87C291.4 85.1 292.3 83.2 293.1 81.3L295.7 75.6L298.2 70.1V70C298.3 69.7 298.5 69.5 298.6 69.2C298.7 69.1 298.7 68.8 298.9 68.7L299.3 67.8L299.6 67L300.9 64.4C301.4 63.5 301.8 62.6 302.3 61.5C302.7 60.7 303.1 60 303.3 59.2C303.4 58.9 303.7 58.4 303.7 58.4C304.1 57.4 304.6 56.3 304.8 55.2L305.7 52.3L306.5 49.3C306.8 48.7 306.9 48.2 306.9 47.8C307 47.5 307 47.3 307.2 47C307.2 46.9 307.3 46.6 307.3 46.5L307.4 46.2V45.9C307.4 45.8 307.5 45.5 307.5 45.4C307.6 45.1 307.6 44.8 307.8 44.5L307.9 43.9C308 43.6 308 43.5 308 43.3V43C308.4 41.9 308.5 40.7 308.8 39.5V39.4L308.9 38.4V38.3L309 38V35.7C309 34.6 309 33.4 308.9 32.3C308.6 30.2 308.5 27.9 307.8 25.4V25.3C307.2 23.7 306.5 22.5 305.8 21.5C305.2 20.7 304.5 20.2 304 19.7C303.4 19.2 302.7 18.9 302.2 18.7C302.1 18.6 301.9 18.6 301.8 18.4H301.7H301.6C300.8 18.1 300.1 18 299.5 17.9C298.6 17.8 298 17.6 297.5 17.6C297.4 17.6 297.1 17.6 296.9 17.6C296.6 17.6 296.3 17.5 295.9 17.5C295.3 17.5 294.5 17.5 293.8 17.6C292.3 17.9 291 18.2 289.8 18.7C288.3 19.3 287.2 20.3 286.3 21.1L286.2 21.2L286.1 21.3C285.3 22.1 284.5 23.2 283.7 24.6C283.1 25.7 282.6 26.9 282.2 28.1C281.7 29.4 281.6 30.5 281.3 31.6C281.3 31.9 281.2 32.1 281.2 32.4C281.2 32.7 281.1 33 281.1 33.3V33.6V34.2C281 34.7 281 35.1 281 35.5V35.6V36C281.3 38.3 283 40 285.2 40C285.3 40 285.5 40 285.6 40C287.9 39.9 289.8 38 289.8 35.6V35L289.7 34.7V34.3C289.8 33.7 289.8 33.2 289.8 32.8C289.9 32.2 290.1 31.4 290.2 30.8V30.5C290.5 29.7 290.7 29 291 28.4C291.4 27.8 291.8 27.1 292.1 26.6C292.6 26.1 293 25.7 293.4 25.6C294 25.3 294.5 25.1 295.2 25.1H295.3H295.4C295.5 25.1 295.9 25.1 296 25.1H297.5C298.1 25.1 298.6 25.2 299.3 25.5C299.6 25.6 299.7 25.8 299.8 25.9L299.9 26L300 26.1C300.1 26.4 300.3 26.5 300.4 26.6C300.4 26.7 300.5 27 300.7 27.4L300.8 27.8C301.1 28.4 301.2 29.3 301.3 30.1V30.2V30.3C301.4 30.8 301.4 31.3 301.4 31.9C301.4 32.3 301.4 32.5 301.5 32.9C301.5 33.3 301.5 33.5 301.6 33.8C301.6 34.1 301.6 34.2 301.6 34.3V37.1L301.3 38.5V38.6L301.2 38.9V39.5L301.1 39.8V40.2V40.5L301 41.5V41.6C301 41.7 301 41.9 300.9 42.1L300.8 42.6L300.5 44.1C300.1 45.7 299.5 47.4 298.6 49.4L297.3 52.4V52.7C297.3 53 297.2 53.2 297 53.5L296.9 53.6L296.4 55.2L294.4 61V61.1C293.9 62.9 293 64.8 292.3 66.5C291.5 68.4 290.7 70.3 289.9 72C289.8 72.4 289.5 72.6 289.4 73C289.1 73.5 288.9 74.1 288.5 74.8L287.2 77.4C286.3 79.3 285.4 81.1 284.4 82.9C283.5 84.7 282.6 86.4 281.6 88.2L281.2 88.8V89.3C281.2 89.6 281.1 89.8 281.1 90.2C281.1 92.3 282.9 94 284.9 94C285.7 94 286.5 94 287.4 94C288.3 94 289.2 94 290 94H300.5L301.8 93.9H302.9C303.3 93.9 303.9 93.9 304.4 93.8C304.9 93.8 305.4 93.8 305.9 93.7C306.9 93.6 307.8 93.1 308.4 92.3C308.7 92.4 309 91.4 308.9 90.2Z" fill="white"></path></svg> 