<?xml version="1.0" encoding="UTF-8"?> <svg xmlns="http://www.w3.org/2000/svg" width="391" height="99" viewBox="0 0 391 99" fill="none"><g clip-path="url(#clip0_67_11)"><path d="M384.22 84.5201L385.51 93.09H382.94L384.22 84.5201ZM386.3 81.5201H382.44L379.73 98.4601H382.17L382.63 95.39H385.9L386.36 98.4601H389.04L386.3 81.5201ZM370.44 83.94C371.38 83.94 371.79 84.4701 371.79 85.6801V86.63C371.79 87.98 371.19 88.42 370.19 88.42H369.19V83.94H370.44ZM370.34 90.84C371.55 90.84 372.06 91.32 372.06 92.89V94.37C372.06 95.63 371.57 96.04 370.68 96.04H369.15V90.84H370.34ZM370.51 81.5201H366.51V98.4601H370.7C373.36 98.4601 374.7 97.0601 374.7 94.4601V93.08C374.7 91.29 374.14 90.01 372.7 89.45C373.89 88.9 374.42 87.78 374.42 86.04V85.44C374.42 82.82 373.24 81.54 370.48 81.54M352.96 83.9601H355.74V98.48H358.44V83.94H361.23V81.5201H353L352.96 83.9601ZM345.48 92.16V94.58C345.48 95.79 344.95 96.23 344.1 96.23C343.25 96.23 342.72 95.79 342.72 94.58V85.44C342.72 84.23 343.25 83.7701 344.1 83.7701C344.95 83.7701 345.48 84.23 345.48 85.44V87.25H348V85.59C348 82.88 346.64 81.33 344 81.33C341.36 81.33 340 82.88 340 85.59V94.39C340 97.1 341.36 98.65 344 98.65C346.64 98.65 348 97.1 348 94.39V92.14L345.48 92.16ZM332.03 92.16V94.58C332.03 95.79 331.49 96.23 330.65 96.23C329.81 96.23 329.27 95.79 329.27 94.58V85.44C329.27 84.23 329.8 83.7701 330.65 83.7701C331.5 83.7701 332.03 84.23 332.03 85.44V87.25H334.54V85.59C334.54 82.88 333.19 81.33 330.54 81.33C327.89 81.33 326.54 82.88 326.54 85.59V94.39C326.54 97.1 327.89 98.65 330.54 98.65C333.19 98.65 334.54 97.1 334.54 94.39V92.14L332.03 92.16ZM321.6 81.54H318.81L317.6 87.35L316.98 91.29L316.15 87.29L314.7 81.51H312.06L315.74 94.58V94.72C315.52 95.96 314.74 96.2 313.39 96.1V98.47C317.09 98.72 318.13 97.19 318.76 94.14L321.6 81.54ZM304.78 98.48H307.51L303.81 89.09L307.51 81.54H304.85L301.37 88.92V81.54H298.71V98.48H301.37V93.28L302.19 91.73L304.78 98.48ZM290.44 92.14V94.56C290.44 95.77 289.91 96.2101 289.06 96.2101C288.21 96.2101 287.68 95.77 287.68 94.56V85.42C287.68 84.21 288.22 83.75 289.06 83.75C289.9 83.75 290.44 84.21 290.44 85.42V87.23H292.96V85.59C292.96 82.88 291.61 81.33 288.96 81.33C286.31 81.33 284.96 82.88 284.96 85.59V94.39C284.96 97.1 286.32 98.65 288.96 98.65C291.6 98.65 292.96 97.1 292.96 94.39V92.14H290.44ZM275.76 90.69L276.84 86.53V98.4601H279.24V81.5201H276.31L274.13 88.5201L273.13 92.25V81.5201H270.75V98.4601H273.49L275.76 90.69ZM242.03 94.39C242.03 97.1 243.46 98.65 246.03 98.65C248.6 98.65 250.03 97.1 250.03 94.39V85.59C250.03 82.88 248.61 81.33 246.03 81.33C243.45 81.33 242.03 82.88 242.03 85.59V94.39ZM244.69 85.39C244.69 84.18 245.23 83.72 246.07 83.72C246.91 83.72 247.45 84.18 247.45 85.39V94.53C247.45 95.74 246.92 96.2 246.07 96.2C245.22 96.2 244.69 95.74 244.69 94.53V85.39ZM231.99 98.39V83.94H236.34V81.5201H229.34V98.4601L231.99 98.39ZM215.44 94.39C215.44 97.1 216.87 98.65 219.44 98.65C222.01 98.65 223.44 97.1 223.44 94.39V85.59C223.44 82.88 222.01 81.33 219.44 81.33C216.87 81.33 215.44 82.88 215.44 85.59V94.39ZM218.1 85.39C218.1 84.18 218.63 83.72 219.48 83.72C220.33 83.72 220.86 84.18 220.86 85.39V94.53C220.86 95.74 220.33 96.2 219.48 96.2C218.63 96.2 218.1 95.74 218.1 94.53V85.39ZM203.87 91.17H206.87V98.4301H209.58V81.5201H206.87V88.79H203.87V81.53H201.21V98.47H203.87V91.17ZM189.42 91.17H192.42V98.4301H195.13V81.5201H192.44V88.79H189.44V81.53H186.78V98.47H189.44L189.42 91.17ZM176.42 83.91H181.01V81.4901H173.75V98.4301H181.01V96.01H176.42V91.01H180.07V88.59H176.42V83.91ZM160.23 81.4901H156.44V98.4301H158.77V86.4301L160.77 98.4301H163.29L165.13 86.28V98.4301H167.64V81.5201H163.94L162.13 93.5201L160.23 81.4901ZM146.23 83.91H150.83V81.4901H143.44V98.4301H150.7V96.01H146.1V91.01H149.76V88.59H146.14L146.23 83.91ZM134.23 83.91C135.08 83.91 135.54 84.3 135.54 85.51V88.05C135.54 89.26 135.08 89.65 134.23 89.65H132.97V83.91H134.23ZM134.23 81.4901H130.24V98.4301H132.9V92.07H134.16C136.83 92.07 138.16 90.59 138.16 87.88V85.6801C138.16 82.9701 136.86 81.4901 134.16 81.4901M120.25 83.91C121.19 83.91 121.6 84.44 121.6 85.65V86.6C121.6 87.95 121 88.39 120.01 88.39H119.01V83.91H120.25ZM120.15 90.81C121.36 90.81 121.87 91.29 121.87 92.86V94.34C121.87 95.6 121.39 96.01 120.49 96.01H118.97V90.81H120.15ZM120.32 81.4901H116.32V98.4301H120.51C123.17 98.4301 124.51 97.0301 124.51 94.4301V93.05C124.51 91.26 123.96 89.98 122.51 89.42C123.69 88.87 124.23 87.75 124.23 86.01V85.41C124.23 82.79 123.04 81.51 120.28 81.51M102.44 94.39C102.44 97.1 103.87 98.65 106.44 98.65C109.01 98.65 110.44 97.1 110.44 94.39V85.59C110.44 82.88 109.01 81.33 106.44 81.33C103.87 81.33 102.44 82.88 102.44 85.59V94.39ZM105.1 85.39C105.1 84.18 105.63 83.72 106.48 83.72C107.33 83.72 107.86 84.18 107.86 85.39V94.53C107.86 95.74 107.33 96.2 106.48 96.2C105.63 96.2 105.1 95.74 105.1 94.53V85.39ZM94.4101 92.11V94.53C94.4101 95.74 93.8701 96.1801 93.0301 96.1801C92.1901 96.1801 91.6501 95.74 91.6501 94.53V85.39C91.6501 84.18 92.1801 83.72 93.0301 83.72C93.8801 83.72 94.4101 84.18 94.4101 85.39V87.2H96.9201V85.59C96.9201 82.88 95.5701 81.33 92.9201 81.33C90.2701 81.33 88.9201 82.88 88.9201 85.59V94.39C88.9201 97.1 90.2701 98.65 92.9201 98.65C95.5701 98.65 96.9201 97.1 96.9201 94.39V92.14L94.4101 92.11ZM65.2801 77.79C65.2101 78.68 64.7901 78.9 64.0701 78.9C63.3501 78.9 63.0001 78.68 62.9301 77.79H61.2901C61.3328 78.505 61.647 79.1767 62.1683 79.6678C62.6897 80.159 63.3789 80.4325 64.0951 80.4325C64.8114 80.4325 65.5006 80.159 66.0219 79.6678C66.5433 79.1767 66.8574 78.505 66.9001 77.79H65.2801ZM62.5401 98.5H59.8101V81.5201H62.1801V92.2401L63.1801 88.51L65.3601 81.51H68.2901V98.45H65.8901V86.53L64.8001 90.69L62.5401 98.5ZM49.4401 83.94H54.0401V81.5201H46.7801V98.4601H54.0401V96.04H49.4401V91.04H53.1001V88.62H49.4401V83.94ZM38.2101 86.63C38.2101 87.98 37.6101 88.42 36.6201 88.42H35.8201V90.84H36.4401C37.6501 90.84 38.1801 91.4201 38.1801 92.9901V94.32C38.1801 95.82 37.6501 96.23 36.8101 96.23C35.9701 96.23 35.4401 95.79 35.4401 94.56V92.56H32.9201V94.42C32.9201 97.13 34.2701 98.6801 36.9201 98.6801C39.5701 98.6801 40.9201 97.13 40.9201 94.42V93.09C40.9201 91.38 40.3801 90.09 39.0501 89.54C40.3401 89 40.9201 87.87 40.9201 86.05V85.62C40.9201 82.91 39.5601 81.36 36.9201 81.36C34.2801 81.36 33.0001 82.86 33.0001 85.57V86.79H35.4401V85.41C35.4401 84.2 36.0001 83.7401 36.8501 83.7401C37.7001 83.7401 38.2201 84.15 38.2201 85.67L38.2101 86.63ZM27.8601 81.5201H25.0701L23.8601 87.33L23.2401 91.2701L22.4101 87.2701L20.9601 81.4901H18.3201L22.0001 94.56V94.7C21.7801 95.94 21.0001 96.18 19.6501 96.08V98.45C23.3501 98.7 24.3901 97.17 25.0201 94.12L27.8601 81.5201ZM5.57013 81.5201H1.87012V98.4601H4.19012V86.4601L6.19012 98.4601H8.70012L10.5401 86.31V98.4601H13.0601V81.5201H9.36012L7.54013 93.5201L5.57013 81.5201Z" fill="#931214"></path><path d="M367.96 39.3198H349.72L358.93 10.3898L367.96 39.3198ZM390.22 67.7898V65.7898H386.1L364.82 1.05978H358.93L338.73 65.7898H334.61V67.7898H349.52V65.7898H341.58L349.23 41.2698H368.44L376.29 65.7898H369.44V67.7898H390.22ZM335.59 50.0398C335.59 41.1198 327.94 33.9598 319.22 32.4898C319.12 32.4898 319.12 32.1898 319.12 32.1898C327.85 29.7398 332.85 24.1898 332.85 16.3098C332.85 5.61978 326.18 0.0297852 311.37 0.0297852C306.07 0.0297852 298.62 1.09979 294.5 3.02979V22.4398H297.05C297.74 16.8498 299.31 10.0898 302.35 6.15979C303.397 4.90095 304.72 3.90116 306.217 3.23849C307.714 2.57583 309.344 2.26824 310.98 2.33978C320.79 2.33978 323.98 7.33981 323.98 16.2698C323.98 25.3898 318.2 31.0698 311.43 31.0698H307.74C307.55 31.0698 307.35 32.0698 307.35 32.3498C307.35 32.6298 307.55 33.6198 307.74 33.6198H311.57C320.1 33.6198 326.28 40.4898 326.28 50.8898C326.28 60.0998 320.2 66.4798 310.88 66.4798C307.25 66.4798 302.74 65.7898 300.78 62.2598C298.13 57.7498 296.27 50.7898 295.48 45.4898H292.93V63.6298C296.56 66.4798 304.93 68.8298 311.37 68.8298C325.79 68.8298 335.59 60.8898 335.59 49.9998M288.03 2.99979V0.999786H273.12V2.99979H281.26L267.73 44.9998L252.14 2.99979H259.14V0.999786H238.21V2.99979H242.33L263.02 58.4098L262.02 61.5398C261.443 62.7772 260.531 63.8284 259.388 64.5742C258.244 65.32 256.915 65.7307 255.55 65.7598C252.7 65.7598 250.25 64.3898 249.47 62.3298C247.204 55.9459 245.625 49.3385 244.76 42.6198H242.31V65.7898C244.86 67.4598 250.64 68.7898 255.31 68.7898C260.41 68.7898 263.31 65.1598 264.92 60.7898L283.75 3.02979L288.03 2.99979ZM230.36 67.7898V65.7898H225.07V3.03979H230.36V1.03979H214.97L198.1 54.4898L180.54 1.06979H165.34V3.06979H170.54V65.7898H165.34V67.7898H180.34V65.7898H172.88V6.56979L192.88 67.7598H196.31L216.03 6.46979V65.7898H208.47V67.7898H230.36ZM132.19 65.7898H126.11V67.7898H147.3V65.7898H141.22V3.03979H146.61C149.46 3.03979 151.42 5.09978 152.61 7.64978C154.48 11.8598 155.07 17.6498 155.75 22.4498H158.2V1.06979H115.23V22.4498H117.68C118.37 17.6498 118.96 12.0598 120.82 7.64978C121.9 5.09978 124.05 3.03979 126.82 3.03979H132.21L132.19 65.7898ZM98.75 18.7198C98.75 25.7198 94.54 32.9398 84.63 32.9398H75.8V3.03979H85.02C93.65 3.03979 98.75 10.4898 98.75 18.7298M108.56 18.7298C108.56 8.3298 101.11 1.06979 87.18 1.06979H61.44V3.06979H66.73V65.7898H61.44V67.7898H83.31V65.7898H75.85V34.9098H85.27C99.49 34.9098 108.61 29.4198 108.61 18.7298M33.34 39.3198H15.1L24.32 10.3898L33.34 39.3198ZM55.6 67.7898V65.7898H51.44L30.16 1.05978H24.28L4.11 65.7898H0V67.7898H14.9V65.7898H6.96001L14.61 41.2698H33.83L41.68 65.7898H34.81V67.7898H55.6Z" fill="#931214"></path></g><defs><clipPath id="clip0_67_11"><rect width="390.22" height="98.66" fill="white"></rect></clipPath></defs></svg> 