<?xml version="1.0" encoding="UTF-8"?> <svg xmlns="http://www.w3.org/2000/svg" width="16" height="16" viewBox="0 0 16 16" fill="none"><path d="M4.69057 1.26489C5.07426 1.26489 6.60903 4.71817 6.60903 5.10187C6.60903 5.86927 5.45795 6.63666 5.07426 7.40406C4.69057 8.17145 5.45795 8.93885 6.22534 9.70624C6.52462 10.0055 7.76011 11.241 8.5275 10.8573C9.29488 10.4736 10.0623 9.32254 10.8297 9.32254C11.2133 9.32254 14.6666 10.8573 14.6666 11.241C14.6666 12.7758 13.5155 13.9269 12.3644 14.3106C11.2133 14.6943 10.446 14.6943 8.91119 14.3106C7.37642 13.9269 6.22534 13.5432 4.30687 11.6247C2.38841 9.70624 2.00471 8.55515 1.62102 7.02036C1.23733 5.48557 1.23733 4.71817 1.62102 3.56708C2.00471 2.41599 3.15579 1.26489 4.69057 1.26489Z" stroke="black" stroke-width="1.53478" stroke-linecap="round" stroke-linejoin="round"></path></svg> 