<?xml version="1.0" encoding="UTF-8"?> <svg xmlns="http://www.w3.org/2000/svg" width="14" height="14" viewBox="0 0 14 14" fill="none"><path d="M7 0.264893C10.682 0.264893 13.6667 3.2496 13.6667 6.93164C13.6667 10.6137 10.682 13.5984 7 13.5984C3.31796 13.5984 0.333252 10.6137 0.333252 6.93164C0.333252 3.2496 3.31796 0.264893 7 0.264893ZM7 1.59824C5.58549 1.59824 4.22892 2.16015 3.22872 3.16036C2.22851 4.16056 1.6666 5.51714 1.6666 6.93164C1.6666 8.34615 2.22851 9.70272 3.22872 10.7029C4.22892 11.7031 5.58549 12.265 7 12.265C8.41451 12.265 9.77108 11.7031 10.7713 10.7029C11.7715 9.70272 12.3334 8.34615 12.3334 6.93164C12.3334 5.51714 11.7715 4.16056 10.7713 3.16036C9.77108 2.16015 8.41451 1.59824 7 1.59824ZM7 2.93159C7.16329 2.93161 7.3209 2.99156 7.44292 3.10007C7.56495 3.20858 7.6429 3.3581 7.66201 3.52027L7.66667 3.59827V6.65564L9.47136 8.46033C9.59093 8.5803 9.66035 8.74129 9.66552 8.91059C9.67069 9.07989 9.61122 9.24481 9.4992 9.37186C9.38717 9.4989 9.23099 9.57854 9.06238 9.59461C8.89376 9.61067 8.72535 9.56195 8.59135 9.45834L8.52869 9.403L6.52866 7.40298C6.42505 7.29928 6.3585 7.16431 6.33932 7.01897L6.33332 6.93164V3.59827C6.33332 3.42145 6.40356 3.25188 6.52859 3.12686C6.65362 3.00183 6.82319 2.93159 7 2.93159Z" fill="black"></path></svg> 