<?xml version="1.0" encoding="UTF-8"?> <svg xmlns="http://www.w3.org/2000/svg" width="20" height="12" viewBox="0 0 20 12" fill="none"><path d="M19.1962 11.999H17.0064C16.1782 11.999 15.9287 11.3216 14.4442 9.82126C13.1468 8.5584 12.5989 8.40139 12.2707 8.40139C11.8168 8.40139 11.693 8.52739 11.693 9.15833V11.1471C11.693 11.685 11.5202 12 10.1288 12C8.77889 11.9084 7.46984 11.4942 6.30947 10.7916C5.14911 10.0889 4.17063 9.11789 3.45463 7.95847C1.75516 5.82105 0.572326 3.31299 0 0.633326C0 0.301863 0.124751 0.00141336 0.750423 0.00141336H2.93836C3.5007 0.00141336 3.70318 0.254373 3.92389 0.838795C4.98619 3.99642 6.79891 6.74311 7.53494 6.74311C7.81707 6.74311 7.9399 6.61711 7.9399 5.9067V2.65409C7.84682 1.17026 7.06665 1.04523 7.06665 0.508301C7.07651 0.366644 7.14067 0.234454 7.24549 0.139807C7.35031 0.0451605 7.48754 -0.00448592 7.62802 0.00141336H11.0673C11.5375 0.00141336 11.693 0.237896 11.693 0.805842V5.19628C11.693 5.67021 11.8945 5.82722 12.0365 5.82722C12.3186 5.82722 12.5355 5.67021 13.0528 5.14879C14.161 3.78287 15.0668 2.26148 15.7416 0.632357C15.8104 0.436545 15.9408 0.268902 16.1129 0.155116C16.285 0.0413305 16.4893 -0.0123212 16.6945 0.00238248H18.8834C19.5398 0.00238248 19.6789 0.333846 19.5398 0.806812C18.7434 2.60786 17.7584 4.31757 16.6014 5.9067C16.3654 6.27014 16.2713 6.45913 16.6014 6.88558C16.8183 7.21704 17.586 7.86446 18.1013 8.4799C18.8517 9.23587 19.4745 10.1101 19.9457 11.0676C20.1338 11.684 19.821 11.999 19.1962 11.999Z" fill="black"></path></svg> 