<?xml version="1.0" encoding="UTF-8"?> <svg xmlns="http://www.w3.org/2000/svg" width="304" height="42" viewBox="0 0 304 42" fill="none"><path d="M25.7091 13.4921C25.1783 13.1809 24.66 13.0236 24.2503 13.0236C23.843 13.0236 23.5449 13.1809 23.4547 13.4921C23.2706 14.1149 23.9867 15.1243 25.0495 15.7471C25.5815 16.0594 26.0992 16.215 26.5077 16.215C26.915 16.215 27.2131 16.0594 27.3057 15.7471C27.488 15.1243 26.7731 14.1149 25.7091 13.4921ZM17.2957 30.5855C16.9127 30.4484 16.373 30.4211 15.7662 30.5357C14.5549 30.7678 13.5432 31.4803 13.5058 32.1281C13.4868 32.4517 13.716 32.6993 14.1007 32.8352C14.4849 32.9724 15.0252 32.9985 15.6302 32.8833C16.8421 32.653 17.8544 31.9411 17.8918 31.2915C17.9108 30.9679 17.6816 30.7209 17.2957 30.5855ZM23.1572 29.2668C22.7736 29.1308 22.2321 29.1023 21.6277 29.2181C20.417 29.4491 19.4059 30.1598 19.3685 30.8094C19.3507 31.1336 19.5793 31.38 19.9634 31.5165C20.3476 31.6531 20.8885 31.6798 21.4929 31.5658C22.7059 31.3342 23.7147 30.6229 23.7533 29.974C23.7699 29.6498 23.5419 29.404 23.1572 29.2668ZM28.7764 28.1185C28.3935 27.9825 27.8514 27.9552 27.2458 28.0704C26.0363 28.3014 25.0239 29.0127 24.9877 29.6622C24.9699 29.9858 25.1979 30.2328 25.5827 30.3694C25.9662 30.506 26.5077 30.5327 27.1134 30.4175C28.3252 30.1865 29.3352 29.4752 29.3726 28.8268C29.3904 28.5021 29.1612 28.2556 28.7764 28.1185ZM12.6941 17.6038C12.3735 17.8555 12.0618 18.2985 11.8338 18.872C11.3814 20.0191 11.4419 21.253 11.9686 21.6312C12.2334 21.82 12.5647 21.76 12.8853 21.5083C13.2077 21.2565 13.5194 20.8136 13.7463 20.2406C14.1987 19.0941 14.1387 17.8585 13.6115 17.4803C13.3473 17.2915 13.0154 17.3514 12.6941 17.6038ZM6.16289 15.6153C5.84048 15.8671 5.52876 16.3088 5.30195 16.8824C4.84832 18.0289 4.90829 19.2645 5.43792 19.6415C5.70035 19.8309 6.03167 19.7698 6.35407 19.518C6.6747 19.2663 6.98642 18.8239 7.21323 18.2504C7.66685 17.1044 7.60629 15.8688 7.07845 15.49C6.81482 15.3018 6.48351 15.3624 6.16289 15.6153Z" fill="white"></path><path d="M36.6296 23.2105L32.7376 11.4733C32.1498 9.70034 30.3008 7.84962 28.5267 7.26181L16.7883 3.36977C16.0556 3.12693 15.3971 3.12812 14.8901 3.3674C14.3414 3.51643 13.7144 3.75274 13.072 4.05199C12.1938 4.46109 11.1108 5.08274 10.6513 5.62365C10.5996 5.66803 10.5495 5.71417 10.5011 5.76199L2.62853 13.6363C1.40481 14.8594 0.860342 17.1869 1.38937 18.9355L4.81056 30.2666C4.8731 30.4745 4.9497 30.6682 5.04034 30.8479C5.31584 31.6863 6.44515 32.8613 6.7919 33.2081C7.13984 33.5554 8.31665 34.6877 9.15503 34.9626C9.33315 35.0511 9.5285 35.1283 9.73453 35.1906L21.0651 38.6118C21.5044 38.7454 21.9872 38.8125 22.5007 38.8125C23.9727 38.8125 25.4891 38.2472 26.3631 37.3732L34.2374 29.4983C34.2869 29.4485 34.3332 29.3984 34.3763 29.3481C34.9178 28.8868 35.5395 27.8038 35.9474 26.9286C36.2484 26.2832 36.4847 25.6544 36.6338 25.1052C36.8737 24.5951 36.8725 23.942 36.6296 23.2105ZM6.83347 31.5491C6.40181 31.0243 6.17322 30.6354 6.1275 30.4739L6.08356 30.3646C6.0123 30.2273 5.95463 30.0833 5.91137 29.9347L2.489 18.603C2.08584 17.2701 2.52165 15.3677 3.44078 14.4491L11.3151 6.57424C11.3555 6.53327 11.3982 6.49765 11.4392 6.46202L11.5152 6.38246C11.6494 6.21265 12.0133 5.93596 12.5358 5.6284C13.034 5.78574 13.4579 6.25599 13.6877 7.01956L17.1089 18.3513C17.5744 19.8909 17.084 22.0082 16.0134 23.0787L8.14031 30.953C7.71162 31.3811 7.25681 31.567 6.83347 31.5491ZM33.6157 28.4854L33.5344 28.5644C33.4994 28.6047 33.4649 28.6457 33.424 28.6861L25.5508 36.561C24.8918 37.2201 23.6657 37.6624 22.5013 37.6624C22.128 37.6666 21.7555 37.6158 21.397 37.5116L10.0664 34.0904C9.91786 34.047 9.77388 33.9891 9.63656 33.9176L9.52672 33.8749C9.36581 33.8297 8.9769 33.6 8.45203 33.1683C8.43362 32.7444 8.61828 32.2901 9.04756 31.8609L16.9201 23.9871C17.9912 22.916 20.1073 22.4256 21.6475 22.8911L32.9781 26.3129C33.7428 26.5438 34.2131 26.9684 34.3698 27.4665C34.0634 27.9878 33.7856 28.3506 33.6157 28.4854ZM35.5834 24.6379L35.5383 24.7566C35.4825 24.9686 35.4059 25.2037 35.3174 25.4472C34.9986 25.5083 34.6067 25.4751 34.1525 25.3243L22.4147 21.4322C20.8187 20.9038 19.0956 19.1807 18.5683 17.5853L14.6763 5.84749C14.5261 5.39327 14.4922 5.00199 14.5534 4.68256C14.7957 4.59527 15.029 4.51868 15.2404 4.46287L15.3609 4.41596C15.4642 4.36252 15.5954 4.33561 15.7546 4.33521C15.9517 4.33521 16.1779 4.37737 16.4279 4.4599L28.1657 8.35193C29.5836 8.82218 31.1772 10.417 31.6469 11.8343L35.5395 23.5715C35.6867 24.0192 35.7034 24.4069 35.5834 24.6379Z" fill="white"></path><path d="M63.5078 33.18C63.1478 33.18 62.8958 33.06 62.7518 32.82L54.6518 14.496H54.5438L54.6158 28.788C54.6398 29.436 54.6878 29.94 54.7598 30.3C54.8318 30.636 55.0238 30.936 55.3358 31.2C55.6718 31.44 56.1878 31.56 56.8838 31.56H57.0998C57.3398 31.56 57.5078 31.608 57.6038 31.704C57.7238 31.776 57.7958 31.98 57.8198 32.316C57.8198 32.532 57.7598 32.724 57.6398 32.892C57.5438 33.036 57.3878 33.108 57.1718 33.108L56.2718 33.072C55.1678 33.024 54.3758 33 53.8958 33C53.0798 33 51.8918 33.036 50.3318 33.108C50.1158 33.108 49.9478 33.036 49.8278 32.892C49.7318 32.724 49.6838 32.532 49.6838 32.316C49.7078 31.956 49.7798 31.74 49.8998 31.668C50.0198 31.596 50.2478 31.56 50.5838 31.56C51.2798 31.56 51.7838 31.44 52.0958 31.2C52.4318 30.936 52.6358 30.636 52.7078 30.3C52.7798 29.94 52.8278 29.436 52.8518 28.788L52.9238 14.496C52.9238 13.752 52.8398 13.2 52.6718 12.84C52.5038 12.456 52.2518 12.192 51.9158 12.048C51.6038 11.88 51.1358 11.736 50.5118 11.616C50.4158 11.592 50.2718 11.568 50.0798 11.544C49.8878 11.496 49.7558 11.424 49.6838 11.328C49.6358 11.208 49.6118 11.028 49.6118 10.788C49.6118 10.5 49.6838 10.308 49.8278 10.212C49.9958 10.116 50.2478 10.068 50.5838 10.068C51.9998 10.068 53.1638 10.164 54.0758 10.356C54.9878 10.524 55.7798 10.884 56.4518 11.436C57.1478 11.988 57.7238 12.804 58.1798 13.884L64.3718 27.78H64.4798L71.5718 10.284H73.6238C74.9438 10.284 76.3718 10.248 77.9078 10.176C78.1238 10.176 78.2798 10.26 78.3758 10.428C78.4958 10.572 78.5558 10.752 78.5558 10.968C78.5318 11.328 78.4478 11.544 78.3038 11.616C78.1838 11.688 77.9678 11.724 77.6558 11.724C76.9598 11.724 76.4438 11.856 76.1078 12.12C75.7718 12.36 75.5558 12.672 75.4598 13.056C75.3878 13.416 75.3398 13.896 75.3158 14.496V28.788C75.3398 29.388 75.3878 29.88 75.4598 30.264C75.5558 30.624 75.7718 30.936 76.1078 31.2C76.4438 31.44 76.9598 31.56 77.6558 31.56H77.8718C78.0878 31.56 78.2438 31.608 78.3398 31.704C78.4598 31.776 78.5318 31.98 78.5558 32.316C78.5558 32.532 78.4958 32.724 78.3758 32.892C78.2798 33.036 78.1238 33.108 77.9078 33.108C76.3718 33.036 74.9318 33 73.5878 33C72.1958 33 70.7198 33.036 69.1598 33.108C68.9438 33.108 68.7758 33.036 68.6558 32.892C68.5598 32.724 68.5118 32.532 68.5118 32.316C68.5358 31.956 68.6078 31.74 68.7278 31.668C68.8478 31.596 69.0758 31.56 69.4118 31.56C70.1078 31.56 70.6238 31.44 70.9598 31.2C71.2958 30.936 71.4998 30.624 71.5718 30.264C71.6678 29.88 71.7278 29.388 71.7518 28.788V14.496H71.6438L64.2278 32.82C64.1318 33.06 63.8918 33.18 63.5078 33.18ZM86.2158 33.612C84.8958 33.612 83.8398 33.3 83.0478 32.676C82.2798 32.028 81.8958 31.212 81.8958 30.228C81.8958 29.364 82.1478 28.668 82.6518 28.14C83.1798 27.612 83.8038 27.348 84.5238 27.348C84.9558 27.348 85.3158 27.444 85.6038 27.636C85.9158 27.804 86.0718 27.96 86.0718 28.104C86.0718 28.152 85.9638 28.296 85.7478 28.536C85.5318 28.776 85.4238 29.136 85.4238 29.616C85.4238 30.144 85.5798 30.588 85.8918 30.948C86.2038 31.308 86.6598 31.488 87.2598 31.488C88.0758 31.488 88.7958 31.212 89.4198 30.66C90.0678 30.108 90.6558 29.256 91.1838 28.104C90.1518 26.256 88.6878 23.412 86.7918 19.572C85.6158 17.22 84.7398 15.516 84.1638 14.46C83.7798 13.716 83.4798 13.188 83.2638 12.876C83.0718 12.564 82.8318 12.312 82.5438 12.12C82.2558 11.904 81.8598 11.748 81.3558 11.652C81.2598 11.628 81.1158 11.604 80.9238 11.58C80.7318 11.532 80.5998 11.46 80.5278 11.364C80.4798 11.244 80.4558 11.064 80.4558 10.824C80.4558 10.512 80.5278 10.308 80.6718 10.212C80.8158 10.116 81.0438 10.068 81.3558 10.068C82.6278 10.068 83.6238 10.176 84.3438 10.392C85.0638 10.584 85.6638 10.944 86.1438 11.472C86.6478 11.976 87.2118 12.768 87.8358 13.848C88.0278 14.208 88.3998 14.988 88.9518 16.188C90.3198 19.068 91.6758 21.708 93.0198 24.108H93.1278L97.7718 13.524C97.8678 13.308 97.9158 13.08 97.9158 12.84C97.9158 12.36 97.6878 12.06 97.2318 11.94C96.7758 11.796 96.1038 11.724 95.2158 11.724H94.9998C94.7598 11.724 94.5918 11.688 94.4958 11.616C94.3998 11.52 94.3398 11.304 94.3158 10.968C94.3158 10.752 94.3638 10.572 94.4598 10.428C94.5798 10.26 94.7358 10.176 94.9278 10.176C96.4878 10.248 97.8798 10.284 99.1038 10.284C99.9438 10.284 101.132 10.248 102.668 10.176C102.884 10.176 103.04 10.26 103.136 10.428C103.256 10.572 103.316 10.752 103.316 10.968C103.292 11.304 103.232 11.52 103.136 11.616C103.04 11.688 102.872 11.724 102.632 11.724C101.96 11.724 101.456 11.808 101.12 11.976C100.808 12.12 100.568 12.324 100.4 12.588C100.232 12.852 99.9558 13.38 99.5718 14.172L93.0558 28.032C92.1678 29.904 91.1718 31.308 90.0678 32.244C88.9878 33.156 87.7038 33.612 86.2158 33.612ZM113.146 33.72C110.794 33.72 108.838 33.3 107.278 32.46C105.742 31.596 104.974 30.288 104.974 28.536C104.974 27.552 105.286 26.712 105.91 26.016C106.558 25.296 107.374 24.936 108.358 24.936C108.982 24.936 109.474 25.08 109.834 25.368C110.218 25.656 110.422 25.92 110.446 26.16C110.446 26.208 110.29 26.352 109.978 26.592C109.666 26.832 109.378 27.132 109.114 27.492C108.874 27.852 108.754 28.284 108.754 28.788C108.706 29.916 109.09 30.78 109.906 31.38C110.746 31.98 111.826 32.28 113.146 32.28C114.658 32.28 115.87 31.812 116.782 30.876C117.694 29.94 118.15 28.596 118.15 26.844C118.15 25.38 117.622 24.168 116.566 23.208C115.51 22.248 114.202 21.744 112.642 21.696H111.31C111.142 21.696 111.01 21.624 110.914 21.48C110.818 21.336 110.77 21.168 110.77 20.976C110.77 20.76 110.818 20.58 110.914 20.436C111.01 20.268 111.142 20.172 111.31 20.148H112.642C115.57 19.932 117.034 18.48 117.034 15.792C117.034 14.472 116.674 13.356 115.954 12.444C115.258 11.508 114.238 11.04 112.894 11.04C111.574 11.04 110.53 11.508 109.762 12.444C108.994 13.356 108.406 14.724 107.998 16.548C107.95 16.74 107.806 16.884 107.566 16.98C107.326 17.076 107.062 17.1 106.774 17.052C106.558 17.004 106.354 16.908 106.162 16.764C105.97 16.596 105.886 16.404 105.91 16.188L106.342 10.932C106.654 10.86 107.122 10.728 107.746 10.536C108.946 10.2 109.966 9.96 110.806 9.816C111.67 9.648 112.666 9.564 113.794 9.564C115.21 9.564 116.458 9.828 117.538 10.356C118.618 10.86 119.446 11.556 120.022 12.444C120.598 13.332 120.886 14.316 120.886 15.396C120.886 16.74 120.466 17.856 119.626 18.744C118.786 19.632 117.598 20.292 116.062 20.724V20.832C118.078 21.144 119.578 21.84 120.562 22.92C121.546 24 122.038 25.272 122.038 26.736C122.038 28.224 121.63 29.496 120.814 30.552C119.998 31.608 118.906 32.4 117.538 32.928C116.194 33.456 114.73 33.72 113.146 33.72ZM125.319 33.108C125.127 33.108 124.971 33.036 124.851 32.892C124.755 32.724 124.707 32.532 124.707 32.316C124.731 31.956 124.803 31.74 124.923 31.668C125.043 31.596 125.271 31.56 125.607 31.56C126.303 31.56 126.819 31.44 127.155 31.2C127.491 30.936 127.695 30.624 127.767 30.264C127.863 29.88 127.923 29.388 127.947 28.788V14.496C127.923 13.896 127.863 13.416 127.767 13.056C127.695 12.672 127.491 12.36 127.155 12.12C126.819 11.856 126.303 11.724 125.607 11.724H125.391C125.151 11.724 124.983 11.688 124.887 11.616C124.791 11.52 124.731 11.304 124.707 10.968C124.707 10.752 124.755 10.572 124.851 10.428C124.971 10.26 125.127 10.176 125.319 10.176C126.903 10.248 128.331 10.284 129.603 10.284H140.907C141.531 10.284 141.843 10.572 141.843 11.148L141.951 16.188C141.951 16.404 141.843 16.584 141.627 16.728C141.411 16.848 141.195 16.908 140.979 16.908C140.691 16.908 140.439 16.86 140.223 16.764C140.007 16.644 139.887 16.476 139.863 16.26C139.671 15.084 139.455 14.196 139.215 13.596C138.999 12.972 138.663 12.516 138.207 12.228C137.775 11.916 137.151 11.748 136.335 11.724H131.511V20.868H138.027C138.195 20.892 138.327 20.988 138.423 21.156C138.519 21.3 138.567 21.48 138.567 21.696C138.567 21.888 138.519 22.056 138.423 22.2C138.327 22.344 138.195 22.416 138.027 22.416H131.511V29.22C131.559 29.724 131.619 30.132 131.691 30.444C131.763 30.732 131.979 30.996 132.339 31.236C132.699 31.476 133.263 31.584 134.031 31.56H137.343C138.183 31.536 138.819 31.404 139.251 31.164C139.683 30.9 140.019 30.504 140.259 29.976C140.523 29.448 140.835 28.584 141.195 27.384C141.363 26.952 141.771 26.784 142.419 26.88C142.659 26.928 142.863 27.024 143.031 27.168C143.223 27.312 143.307 27.492 143.283 27.708L142.563 32.244C142.491 32.556 142.383 32.76 142.239 32.856C142.095 32.952 141.855 33 141.519 33H129.639C128.343 33 126.903 33.036 125.319 33.108ZM146.726 33.108C146.294 33.084 146.078 32.82 146.078 32.316C146.102 31.956 146.174 31.74 146.294 31.668C146.414 31.596 146.642 31.56 146.978 31.56C147.674 31.56 148.19 31.44 148.526 31.2C148.862 30.936 149.066 30.624 149.138 30.264C149.234 29.88 149.294 29.388 149.318 28.788V14.496C149.294 13.896 149.234 13.416 149.138 13.056C149.066 12.672 148.862 12.36 148.526 12.12C148.19 11.856 147.674 11.724 146.978 11.724H146.762C146.522 11.724 146.354 11.688 146.258 11.616C146.162 11.52 146.102 11.304 146.078 10.968C146.078 10.752 146.126 10.572 146.222 10.428C146.342 10.26 146.51 10.176 146.726 10.176C148.262 10.248 149.678 10.284 150.974 10.284C152.414 10.284 153.914 10.248 155.474 10.176C155.69 10.176 155.846 10.26 155.942 10.428C156.062 10.572 156.122 10.752 156.122 10.968C156.098 11.328 156.026 11.544 155.906 11.616C155.786 11.688 155.558 11.724 155.222 11.724C154.526 11.724 154.01 11.856 153.674 12.12C153.338 12.36 153.122 12.672 153.026 13.056C152.954 13.416 152.906 13.896 152.882 14.496V27.24L163.214 14.208C164.126 13.056 164.846 12.216 165.374 11.688C165.902 11.16 166.358 10.8 166.742 10.608C167.15 10.416 167.618 10.296 168.146 10.248C168.722 10.2 169.334 10.176 169.982 10.176C170.414 10.176 170.63 10.44 170.63 10.968C170.606 11.328 170.534 11.544 170.414 11.616C170.294 11.688 170.066 11.724 169.73 11.724C169.034 11.724 168.518 11.856 168.182 12.12C167.846 12.36 167.63 12.672 167.534 13.056C167.462 13.416 167.414 13.896 167.39 14.496V28.788C167.414 29.388 167.462 29.88 167.534 30.264C167.63 30.624 167.846 30.936 168.182 31.2C168.518 31.44 169.034 31.56 169.73 31.56H169.946C170.186 31.56 170.354 31.608 170.45 31.704C170.546 31.776 170.606 31.98 170.63 32.316C170.63 32.532 170.57 32.724 170.45 32.892C170.354 33.036 170.198 33.108 169.982 33.108C168.446 33.036 167.03 33 165.734 33C164.318 33 162.83 33.036 161.27 33.108C161.054 33.108 160.886 33.036 160.766 32.892C160.67 32.724 160.622 32.532 160.622 32.316C160.646 31.956 160.718 31.74 160.838 31.668C160.982 31.596 161.21 31.56 161.522 31.56C162.218 31.56 162.734 31.44 163.07 31.2C163.406 30.936 163.61 30.624 163.682 30.264C163.778 29.88 163.838 29.388 163.862 28.788V16.08L153.494 29.04C152.582 30.168 151.874 30.996 151.37 31.524C150.89 32.028 150.458 32.4 150.074 32.64C149.714 32.856 149.294 32.988 148.814 33.036C148.022 33.108 147.326 33.132 146.726 33.108ZM163.502 2.544C164.03 2.544 164.45 2.712 164.762 3.048C165.098 3.36 165.266 3.804 165.266 4.38C165.266 5.604 164.582 6.552 163.214 7.224C161.846 7.872 160.226 8.196 158.354 8.196C156.482 8.196 154.862 7.872 153.494 7.224C152.126 6.552 151.442 5.604 151.442 4.38C151.442 3.804 151.598 3.36 151.91 3.048C152.246 2.712 152.678 2.544 153.206 2.544C153.734 2.544 154.154 2.712 154.466 3.048C154.778 3.384 155.09 3.888 155.402 4.56C155.786 5.328 156.182 5.928 156.59 6.36C156.998 6.768 157.586 6.972 158.354 6.972C159.122 6.972 159.71 6.768 160.118 6.36C160.526 5.928 160.922 5.328 161.306 4.56C161.618 3.888 161.93 3.384 162.242 3.048C162.554 2.712 162.974 2.544 163.502 2.544ZM187.858 30.264C187.618 30.264 187.414 30.18 187.246 30.012C186.166 28.908 185.194 27.96 184.33 27.168C183.466 26.352 182.47 25.5 181.342 24.612C181.438 24.54 182.218 23.82 183.682 22.452C186.25 20.028 187.618 18.816 187.786 18.816C187.978 18.816 188.146 18.876 188.29 18.996C188.434 19.116 188.506 19.296 188.506 19.536C188.458 19.752 188.266 20.16 187.93 20.76C187.594 21.336 187.114 22.032 186.49 22.848L185.194 24.576L186.598 26.556C187.126 27.276 187.57 27.912 187.93 28.464C188.29 29.016 188.482 29.4 188.506 29.616C188.506 29.808 188.434 29.964 188.29 30.084C188.17 30.204 188.026 30.264 187.858 30.264ZM195.058 30.264C194.818 30.264 194.614 30.18 194.446 30.012C193.366 28.908 192.394 27.96 191.53 27.168C190.666 26.352 189.67 25.5 188.542 24.612C188.638 24.54 189.418 23.82 190.882 22.452C193.45 20.028 194.818 18.816 194.986 18.816C195.178 18.816 195.346 18.876 195.49 18.996C195.634 19.116 195.706 19.296 195.706 19.536C195.658 19.752 195.466 20.16 195.13 20.76C194.794 21.336 194.314 22.032 193.69 22.848L192.394 24.576L193.798 26.556C194.326 27.276 194.77 27.912 195.13 28.464C195.49 29.016 195.682 29.4 195.706 29.616C195.706 29.808 195.634 29.964 195.49 30.084C195.37 30.204 195.226 30.264 195.058 30.264ZM199.144 33.108C198.712 33.084 198.496 32.82 198.496 32.316C198.52 31.956 198.592 31.74 198.712 31.668C198.832 31.596 199.06 31.56 199.396 31.56C200.092 31.56 200.608 31.44 200.944 31.2C201.28 30.936 201.484 30.624 201.556 30.264C201.652 29.88 201.712 29.388 201.736 28.788V14.496C201.712 13.896 201.652 13.416 201.556 13.056C201.484 12.672 201.28 12.36 200.944 12.12C200.608 11.856 200.092 11.724 199.396 11.724H199.18C198.94 11.724 198.772 11.688 198.676 11.616C198.58 11.52 198.52 11.304 198.496 10.968C198.496 10.752 198.544 10.572 198.64 10.428C198.76 10.26 198.928 10.176 199.144 10.176C200.68 10.248 202.096 10.284 203.392 10.284C204.832 10.284 206.332 10.248 207.892 10.176C208.108 10.176 208.264 10.26 208.36 10.428C208.48 10.572 208.54 10.752 208.54 10.968C208.516 11.328 208.444 11.544 208.324 11.616C208.204 11.688 207.976 11.724 207.64 11.724C206.944 11.724 206.428 11.856 206.092 12.12C205.756 12.36 205.54 12.672 205.444 13.056C205.372 13.416 205.324 13.896 205.3 14.496V27.24L215.632 14.208C216.544 13.056 217.264 12.216 217.792 11.688C218.32 11.16 218.776 10.8 219.16 10.608C219.568 10.416 220.036 10.296 220.564 10.248C221.14 10.2 221.752 10.176 222.4 10.176C222.832 10.176 223.048 10.44 223.048 10.968C223.024 11.328 222.952 11.544 222.832 11.616C222.712 11.688 222.484 11.724 222.148 11.724C221.452 11.724 220.936 11.856 220.6 12.12C220.264 12.36 220.048 12.672 219.952 13.056C219.88 13.416 219.832 13.896 219.808 14.496V28.788C219.832 29.388 219.88 29.88 219.952 30.264C220.048 30.624 220.264 30.936 220.6 31.2C220.936 31.44 221.452 31.56 222.148 31.56H222.364C222.604 31.56 222.772 31.608 222.868 31.704C222.964 31.776 223.024 31.98 223.048 32.316C223.048 32.532 222.988 32.724 222.868 32.892C222.772 33.036 222.616 33.108 222.4 33.108C220.864 33.036 219.448 33 218.152 33C216.736 33 215.248 33.036 213.688 33.108C213.472 33.108 213.304 33.036 213.184 32.892C213.088 32.724 213.04 32.532 213.04 32.316C213.064 31.956 213.136 31.74 213.256 31.668C213.4 31.596 213.628 31.56 213.94 31.56C214.636 31.56 215.152 31.44 215.488 31.2C215.824 30.936 216.028 30.624 216.1 30.264C216.196 29.88 216.256 29.388 216.28 28.788V16.08L205.912 29.04C205 30.168 204.292 30.996 203.788 31.524C203.308 32.028 202.876 32.4 202.492 32.64C202.132 32.856 201.712 32.988 201.232 33.036C200.44 33.108 199.744 33.132 199.144 33.108ZM227.046 33.108C226.854 33.108 226.698 33.036 226.578 32.892C226.482 32.724 226.434 32.532 226.434 32.316C226.458 31.956 226.53 31.74 226.65 31.668C226.77 31.596 226.998 31.56 227.334 31.56C228.03 31.56 228.546 31.44 228.882 31.2C229.218 30.936 229.422 30.624 229.494 30.264C229.59 29.88 229.65 29.388 229.674 28.788V14.496C229.65 13.896 229.59 13.416 229.494 13.056C229.422 12.672 229.218 12.36 228.882 12.12C228.546 11.856 228.03 11.724 227.334 11.724H227.118C226.878 11.724 226.71 11.688 226.614 11.616C226.518 11.52 226.458 11.304 226.434 10.968C226.434 10.752 226.482 10.572 226.578 10.428C226.698 10.26 226.854 10.176 227.046 10.176C228.582 10.248 230.01 10.284 231.33 10.284H242.454C243.078 10.284 243.39 10.572 243.39 11.148L243.498 16.224C243.498 16.44 243.402 16.62 243.21 16.764C243.042 16.884 242.85 16.944 242.634 16.944C242.346 16.944 242.07 16.884 241.806 16.764C241.566 16.644 241.434 16.488 241.41 16.296C241.218 15.12 241.002 14.22 240.762 13.596C240.546 12.972 240.21 12.516 239.754 12.228C239.322 11.916 238.698 11.748 237.882 11.724H233.238V28.788C233.262 29.388 233.31 29.88 233.382 30.264C233.478 30.624 233.694 30.936 234.03 31.2C234.366 31.44 234.882 31.56 235.578 31.56H235.794C236.01 31.56 236.166 31.608 236.262 31.704C236.382 31.776 236.454 31.98 236.478 32.316C236.478 32.532 236.418 32.724 236.298 32.892C236.202 33.036 236.046 33.108 235.83 33.108C234.27 33.036 232.782 33 231.366 33C230.046 33 228.606 33.036 227.046 33.108ZM246.751 33.108C246.559 33.108 246.403 33.036 246.283 32.892C246.163 32.724 246.103 32.532 246.103 32.316C246.127 31.956 246.199 31.74 246.319 31.668C246.463 31.596 246.703 31.56 247.039 31.56C247.735 31.56 248.251 31.44 248.587 31.2C248.923 30.936 249.127 30.624 249.199 30.264C249.295 29.88 249.355 29.388 249.379 28.788V14.496C249.355 13.896 249.295 13.416 249.199 13.056C249.127 12.672 248.923 12.36 248.587 12.12C248.251 11.856 247.735 11.724 247.039 11.724H246.823C246.583 11.724 246.403 11.688 246.283 11.616C246.187 11.52 246.127 11.304 246.103 10.968C246.103 10.752 246.163 10.572 246.283 10.428C246.403 10.26 246.559 10.176 246.751 10.176C248.311 10.248 249.751 10.284 251.071 10.284H256.471C258.559 10.284 260.575 10.716 262.519 11.58C264.487 12.444 265.471 14.172 265.471 16.764C265.471 18.204 265.039 19.488 264.175 20.616C263.311 21.744 262.183 22.62 260.791 23.244C259.423 23.868 257.995 24.18 256.507 24.18C255.139 24.18 253.939 23.988 252.907 23.604V28.788C252.931 29.388 252.979 29.88 253.051 30.264C253.147 30.624 253.363 30.936 253.699 31.2C254.035 31.44 254.551 31.56 255.247 31.56H255.463C255.703 31.56 255.871 31.608 255.967 31.704C256.087 31.776 256.159 31.98 256.183 32.316C256.183 32.532 256.123 32.724 256.003 32.892C255.907 33.036 255.751 33.108 255.535 33.108C253.999 33.036 252.499 33 251.035 33C249.739 33 248.311 33.036 246.751 33.108ZM255.463 22.56C256.327 22.56 257.215 22.392 258.127 22.056C259.063 21.696 259.855 21.096 260.503 20.256C261.151 19.392 261.475 18.264 261.475 16.872C261.475 14.76 260.803 13.356 259.459 12.66C258.115 11.964 256.687 11.616 255.175 11.616C254.551 11.616 254.083 11.688 253.771 11.832C253.459 11.952 253.231 12.204 253.087 12.588C252.967 12.972 252.907 13.572 252.907 14.388V22.164C253.483 22.428 254.335 22.56 255.463 22.56ZM264.166 33.108C263.95 33.108 263.794 33.036 263.698 32.892C263.578 32.724 263.518 32.532 263.518 32.316C263.542 31.956 263.614 31.74 263.734 31.668C263.854 31.596 263.998 31.56 264.166 31.56C264.334 31.56 264.442 31.56 264.49 31.56C265.21 31.56 265.738 31.38 266.074 31.02C266.41 30.636 266.674 30.216 266.866 29.76C267.082 29.28 267.226 28.956 267.298 28.788L273.598 13.884C273.742 13.524 273.814 13.236 273.814 13.02C273.814 12.588 273.646 12.276 273.31 12.084C272.974 11.892 272.506 11.736 271.906 11.616C271.498 11.544 271.246 11.472 271.15 11.4C271.054 11.328 271.006 11.124 271.006 10.788C271.006 10.5 271.078 10.308 271.222 10.212C271.39 10.116 271.642 10.068 271.978 10.068C273.178 10.068 274.126 10.164 274.822 10.356C275.542 10.524 276.166 10.884 276.694 11.436C277.222 11.964 277.714 12.78 278.17 13.884L284.218 28.788C284.578 29.7 284.926 30.384 285.262 30.84C285.598 31.296 286.102 31.536 286.774 31.56H286.99C287.23 31.56 287.398 31.608 287.494 31.704C287.59 31.776 287.65 31.98 287.674 32.316C287.674 32.532 287.614 32.724 287.494 32.892C287.398 33.036 287.242 33.108 287.026 33.108C285.49 33.036 284.17 33 283.066 33C281.626 33 280.138 33.036 278.602 33.108C278.386 33.108 278.218 33.036 278.098 32.892C278.002 32.724 277.954 32.532 277.954 32.316C277.978 31.98 278.038 31.776 278.134 31.704C278.23 31.608 278.398 31.56 278.638 31.56C279.454 31.56 280.03 31.488 280.366 31.344C280.702 31.176 280.87 30.888 280.87 30.48C280.87 30.168 280.726 29.604 280.438 28.788L279.214 25.8H270.322C269.722 27.288 269.374 28.152 269.278 28.392C269.206 28.632 269.17 28.764 269.17 28.788C268.882 29.7 268.738 30.288 268.738 30.552C268.738 30.96 268.918 31.236 269.278 31.38C269.638 31.5 270.322 31.56 271.33 31.56H271.546C271.786 31.56 271.954 31.608 272.05 31.704C272.146 31.776 272.206 31.98 272.23 32.316C272.23 32.532 272.17 32.724 272.05 32.892C271.954 33.036 271.798 33.108 271.582 33.108C270.046 33.036 268.738 33 267.658 33C266.89 33 265.726 33.036 264.166 33.108ZM271.006 24.252H278.566L274.93 15H274.822L271.006 24.252ZM289.625 30.264C289.457 30.264 289.301 30.204 289.157 30.084C289.037 29.964 288.977 29.808 288.977 29.616C289.001 29.4 289.193 29.016 289.553 28.464C289.913 27.912 290.357 27.276 290.885 26.556L292.289 24.576L290.993 22.848C290.369 22.032 289.889 21.336 289.553 20.76C289.217 20.16 289.025 19.752 288.977 19.536C288.977 19.296 289.049 19.116 289.193 18.996C289.337 18.876 289.505 18.816 289.697 18.816C289.865 18.816 291.233 20.028 293.801 22.452C295.265 23.82 296.045 24.54 296.141 24.612C295.013 25.5 294.017 26.352 293.153 27.168C292.289 27.96 291.317 28.908 290.237 30.012C290.069 30.18 289.865 30.264 289.625 30.264ZM296.825 30.264C296.657 30.264 296.501 30.216 296.357 30.12C296.237 30 296.177 29.832 296.177 29.616C296.201 29.4 296.393 29.016 296.753 28.464C297.113 27.912 297.557 27.276 298.085 26.556L299.489 24.576L298.193 22.848C297.569 22.032 297.089 21.336 296.753 20.76C296.417 20.16 296.225 19.752 296.177 19.536C296.177 19.296 296.249 19.116 296.393 18.996C296.537 18.876 296.705 18.816 296.897 18.816C297.065 18.816 298.433 20.028 301.001 22.452C302.465 23.82 303.245 24.54 303.341 24.612C302.213 25.5 301.217 26.352 300.353 27.168C299.489 27.96 298.517 28.908 297.437 30.012C297.269 30.18 297.065 30.264 296.825 30.264Z" fill="white"></path></svg> 