<svg width="1920" height="1638" viewBox="0 0 1920 1638" fill="none" xmlns="http://www.w3.org/2000/svg">
<path fill-rule="evenodd" clip-rule="evenodd" d="M1469.6 0.0274877L1469.86 9.78563C1469.86 124.519 1413.41 229.605 1322.83 306.681C1232.58 383.481 1108.24 432.437 972.196 435.213L960.016 435.433C882.16 435.433 808.386 420.537 742.386 393.908C777.522 438.436 807.292 486.299 830.907 536.822C849.3 540.029 867.998 542.549 886.968 544.369C910.651 546.678 935.011 547.832 960.015 547.832C1137.14 547.832 1297.51 486.59 1413.6 387.579C1529.7 288.541 1601.49 151.734 1601.49 0.634122H1661.58C1661.58 165.89 1583.06 315.533 1456.07 423.808C1329.12 532.137 1153.73 599.124 960.015 599.124C933.4 599.124 906.817 597.805 880.395 595.249C871.523 594.387 862.7 593.385 853.93 592.246C867.655 629.876 878.054 668.756 884.832 708.635C893.572 709.315 902.257 709.875 910.879 710.312C926.378 711.109 942.779 711.494 960.018 711.494C1190.15 711.494 1398.49 631.917 1549.26 503.302C1700.12 374.605 1793.43 196.869 1793.43 0.634122H1853.3C1853.3 20.3238 1852.43 39.8387 1850.71 59.1521C1856 58.8083 1861.33 58.4984 1866.71 58.2202C1884.85 57.2856 1902.41 56.8183 1919.32 56.8183V108.083C1902.09 108.083 1885.75 108.495 1870.22 109.265C1861.55 109.704 1852.81 110.269 1844.02 110.954C1837.25 150.846 1826.86 189.735 1813.14 227.372C1821.95 226.226 1830.8 225.219 1839.7 224.354C1865.45 221.853 1892 220.588 1919.32 220.588V271.661C1895.03 271.661 1870.67 272.87 1846.28 275.207C1827.29 277.051 1808.55 279.581 1790.13 282.798C1766.94 332.44 1737.82 379.507 1703.5 423.36C1766.27 398.155 1835.76 384.035 1908.56 384.035L1920 384.255L1918.58 435.327L1918.61 435.355L1908.56 435.327C1790.53 435.327 1682.4 477.658 1603.03 545.525C1523.38 613.64 1472.6 707.346 1469.73 809.792L1469.7 818.973C1469.7 924.884 1520.03 1020.79 1601.39 1090.17C1682.75 1159.57 1795.14 1202.51 1919.29 1202.51V1253.77C1778.55 1253.77 1651.14 1205.09 1558.89 1126.42C1466.67 1047.75 1409.61 939.04 1409.61 818.973L1409.86 808.61C1411.61 746.233 1428.99 686.745 1458.67 633.106C1406.38 663.165 1350.15 688.629 1290.8 708.82C1287.03 724.523 1284.08 740.485 1281.94 756.682C1279.24 776.885 1277.88 797.666 1277.88 818.996C1277.88 970.096 1349.67 1106.9 1465.74 1205.94C1581.83 1304.98 1742.2 1366.22 1919.32 1366.22V1417.49C1725.61 1417.49 1550.19 1350.5 1423.27 1242.17C1296.28 1133.87 1217.76 984.253 1217.76 818.996C1217.76 796.291 1219.3 773.614 1222.3 751.074C1223.31 743.494 1224.49 735.956 1225.83 728.462C1181.7 740.175 1136.12 749.049 1089.36 754.833C1088.56 762.288 1087.9 769.697 1087.39 777.052C1086.45 790.273 1086 804.265 1086 818.971C1086 1015.29 1179.25 1193.02 1330.05 1321.64C1480.91 1450.34 1689.26 1529.94 1919.29 1529.94V1580.99C1896.21 1580.99 1873.33 1580.24 1850.69 1578.77C1851.1 1583.3 1851.46 1587.85 1851.79 1592.45C1852.88 1607.92 1853.43 1622.9 1853.43 1637.33H1793.34C1793.34 1622.63 1792.85 1608.69 1791.95 1595.44C1791.44 1588.04 1790.77 1580.57 1789.97 1573.07C1743.22 1567.29 1697.64 1558.43 1653.53 1546.73C1654.87 1554.26 1656.05 1561.83 1657.07 1569.44C1660 1591.38 1661.48 1614.03 1661.48 1637.34H1601.62C1601.62 1616.61 1600.2 1595.83 1597.46 1575.02C1595.3 1558.82 1592.33 1542.82 1588.56 1527.1C1530.37 1507.32 1475.19 1482.48 1423.79 1453.21C1453.34 1506.76 1469.89 1566.04 1469.89 1628.15L1469.63 1637.94L1409.77 1636.73H1409.73L1409.77 1628.15C1409.77 1527.49 1360.15 1435.21 1280.59 1367.51C1200.74 1299.56 1090.9 1256.24 970.809 1253.79L960.047 1253.77C835.896 1253.77 723.474 1296.7 642.147 1366.11C560.787 1435.52 510.456 1531.42 510.456 1637.3H450.362C450.362 1517.24 507.427 1408.55 599.646 1329.85C691.897 1251.18 819.334 1202.5 960.047 1202.5L972.227 1202.72C1045.32 1204.21 1115.03 1219.03 1177.89 1244.34C1142.66 1199.74 1112.81 1151.78 1089.15 1101.15C1070.75 1097.94 1052.04 1095.42 1033.06 1093.6C1009.38 1091.29 985.02 1090.14 960.016 1090.14C782.893 1090.14 622.525 1151.38 506.43 1250.42C390.335 1349.43 318.545 1486.24 318.545 1637.34H258.451C258.451 1472.08 336.976 1322.44 463.962 1214.16C590.916 1105.83 766.299 1038.87 960.016 1038.87C986.631 1038.87 1013.21 1040.17 1039.64 1042.72C1048.52 1043.58 1057.34 1044.59 1066.12 1045.73C1052.39 1008.09 1041.99 969.196 1035.21 929.306C1026.46 928.626 1017.78 928.066 1009.15 927.629C993.656 926.831 977.255 926.447 960.017 926.447C729.889 926.447 521.542 1006.02 370.777 1134.64C219.914 1263.34 126.6 1441.07 126.6 1637.31H66.7638C66.7638 1617.63 67.6369 1598.13 69.3518 1578.83C64.0635 1579.17 58.7331 1579.48 53.3599 1579.75C35.2191 1580.66 17.6582 1581.12 0.741747 1581.12V1529.86C17.9804 1529.86 34.3169 1529.45 49.8478 1528.68C58.5195 1528.24 67.2552 1527.67 76.0452 1526.99C82.8167 1487.11 93.2047 1448.23 106.916 1410.6C98.1053 1411.75 89.2427 1412.75 80.3296 1413.62C54.6166 1416.12 28.0658 1417.38 0.741747 1417.38V1366.31C25.037 1366.31 49.3967 1365.1 73.7886 1362.76C92.7652 1360.92 111.507 1358.39 129.921 1355.17C153.519 1304.65 183.268 1256.79 218.378 1212.27C152.369 1238.9 78.5863 1253.8 0.741101 1253.8V1202.54C124.892 1202.54 237.281 1159.6 318.641 1090.19C400.001 1020.81 450.332 924.91 450.332 819L450.3 809.819C447.432 707.372 396.683 613.666 316.998 545.552C237.636 477.657 129.467 435.353 11.471 435.353L1.41776 435.381L0 384.309V384.281L11.471 384.061C145.965 384.061 269.149 432.22 359.499 509.488C449.526 586.481 506.913 692.556 510.168 808.637L510.425 819C510.425 885.393 492.976 948.315 461.783 1004.6C513.967 974.643 570.062 949.255 629.275 929.115C633.034 913.423 635.988 897.472 638.121 881.288C640.828 861.084 642.181 840.304 642.181 818.973C642.181 667.873 570.391 531.067 454.296 432.028C338.233 332.99 177.865 271.747 0.741747 271.747V220.483C194.459 220.483 369.875 287.47 496.796 395.8C623.783 504.101 702.275 653.717 702.275 818.973C702.275 841.678 700.76 864.355 697.764 886.895C696.754 894.465 695.579 901.992 694.244 909.476C738.355 897.767 783.931 888.895 830.678 883.111C831.475 875.655 832.132 868.245 832.644 860.889C833.579 847.668 834.03 833.676 834.03 818.97C834.03 622.653 740.748 444.917 589.982 316.302C439.119 187.605 230.773 108 0.741747 108V56.9282C23.8066 56.9282 46.6666 57.673 69.2904 59.136C68.8893 54.6323 68.5308 50.0939 68.215 45.5216C67.1516 30.046 66.6039 15.0652 66.6039 0.634122H126.698C126.698 15.3401 127.181 29.2763 128.083 42.5254C128.598 49.9139 129.258 57.3569 130.06 64.8462C176.808 70.623 222.38 79.4852 266.484 91.1826C265.148 83.6808 263.973 76.137 262.961 68.5563C260.029 46.5936 258.546 23.9437 258.546 0.634122H318.414C318.414 21.3599 319.832 42.1406 322.571 62.9488C324.732 79.1291 327.695 95.1088 331.462 110.81C390.708 130.949 446.825 156.339 499.023 186.306C467.799 129.992 450.331 67.0453 450.331 0.632218H510.425C510.425 106.542 560.756 202.42 642.116 271.826C723.443 341.233 835.865 384.168 960.016 384.168L970.778 384.141C1090.87 381.695 1200.71 338.401 1280.56 270.424C1360.15 202.722 1409.74 110.446 1409.74 9.78563L1409.7 1.20946L1469.57 0L1469.6 0.0274877ZM891.44 877.394C914.074 875.928 936.944 875.182 960.017 875.182C976.965 875.182 994.526 875.649 1012.7 876.556C1018.01 876.823 1023.28 877.128 1028.5 877.469C1026.79 858.161 1025.91 838.653 1025.91 818.971C1025.91 804.512 1026.46 789.531 1027.52 774.028C1027.83 769.5 1028.19 765.007 1028.59 760.549C1005.97 762.013 983.111 762.759 960.05 762.759C943.101 762.759 925.54 762.292 907.367 761.384C902.047 761.117 896.769 760.811 891.532 760.47C893.249 779.769 894.123 799.269 894.123 818.943C894.123 833.402 893.576 848.382 892.512 863.885C892.199 868.424 891.84 872.927 891.44 877.394Z" fill="#F4F1F0"/>
<path d="M1184.73 192.361C1242.28 143.295 1277.85 75.5107 1277.85 0.634122H1217.66C1217.66 61.3545 1188.82 116.33 1142.2 156.105C1095.57 195.907 1031.13 220.508 959.952 220.508C888.774 220.508 824.363 195.907 777.706 156.105C731.081 116.33 702.21 61.327 702.21 0.634122H642.116C642.116 75.5107 677.689 143.295 735.237 192.361C792.753 241.427 872.212 271.773 959.984 271.773C1047.76 271.773 1127.22 241.427 1184.73 192.361Z" fill="#F4F1F0"/>
<path d="M1086 0.634122C1086 30.2934 1071.89 57.1489 1049.11 76.6102C1026.39 95.9891 994.881 108.001 960.049 108.001C925.185 108.001 893.705 96.0165 870.988 76.6102C848.207 57.1489 834.094 30.2659 834.094 0.634122H894.188C894.188 16.1372 901.567 30.1834 913.456 40.3814C925.443 50.6068 941.941 56.929 960.049 56.929C978.158 56.929 994.655 50.6068 1006.64 40.3814C1018.56 30.2109 1025.94 16.1647 1025.94 0.634122H1086Z" fill="#F4F1F0"/>
<path d="M0.741747 547.835C88.5139 547.835 167.973 578.181 225.489 627.274C283.005 676.34 318.578 744.125 318.578 819.001C318.578 893.878 283.005 961.663 225.489 1010.73C167.973 1059.82 88.5139 1090.17 0.741747 1090.17V1038.9C71.8875 1038.9 136.363 1014.27 182.988 974.499C229.645 934.697 258.484 879.749 258.484 819.029C258.484 758.308 229.645 703.333 182.988 663.558C136.363 623.783 71.9197 599.182 0.741747 599.182V547.835Z" fill="#F4F1F0"/>
<path d="M89.8028 742.994C66.9898 723.56 35.5091 711.52 0.741747 711.52V762.757C18.9471 762.757 35.4124 769.052 47.3345 779.223C59.321 789.448 66.732 803.522 66.732 818.97C66.732 834.418 59.321 848.492 47.3345 858.717C35.3802 868.86 18.9148 875.155 0.741747 875.155V926.419C35.5091 926.419 67.022 914.38 89.8028 894.946C112.551 875.567 126.6 848.712 126.6 818.97C126.6 789.256 112.551 762.373 89.8028 742.994Z" fill="#F4F1F0"/>
<path d="M1737.08 663.497C1783.7 623.722 1848.18 599.121 1919.32 599.121V547.774C1831.55 547.774 1752.09 578.12 1694.58 627.213C1637.06 676.279 1601.49 744.064 1601.49 818.94C1601.49 893.817 1637.06 961.601 1694.58 1010.67C1752.09 1059.76 1831.55 1090.11 1919.32 1090.11V1038.84C1848.15 1038.84 1783.7 1014.21 1737.08 974.438C1690.42 934.663 1661.58 879.688 1661.58 818.968C1661.58 758.247 1690.42 703.299 1737.08 663.497Z" fill="#F4F1F0"/>
<path d="M1919.32 762.783C1901.15 762.783 1884.68 769.077 1872.73 779.248C1860.74 789.473 1853.33 803.519 1853.33 818.995C1853.33 834.443 1860.74 848.517 1872.73 858.742C1884.65 868.885 1901.12 875.18 1919.32 875.18V926.445C1884.55 926.445 1853.07 914.405 1830.26 894.971C1807.54 875.592 1793.46 848.709 1793.46 818.995C1793.46 789.253 1807.51 762.398 1830.26 743.019C1853.07 723.585 1884.59 711.546 1919.32 711.546V762.783Z" fill="#F4F1F0"/>
<path d="M1217.76 1637.33C1217.76 1576.64 1188.92 1521.64 1142.29 1481.86C1095.64 1442.06 1031.23 1417.46 960.048 1417.46C888.87 1417.46 824.426 1442.06 777.801 1481.86C731.176 1521.64 702.305 1576.61 702.305 1637.33H642.212C642.212 1562.46 677.785 1494.67 735.333 1445.61C792.849 1396.54 872.308 1366.19 960.08 1366.19C1047.85 1366.19 1127.31 1396.54 1184.83 1445.61C1242.37 1494.67 1277.95 1562.46 1277.95 1637.33H1217.76Z" fill="#F4F1F0"/>
<path d="M1006.61 1597.59C1018.53 1607.76 1025.91 1621.83 1025.91 1637.34H1085.97C1085.97 1607.7 1071.86 1580.82 1049.08 1561.36C1026.3 1541.93 994.815 1529.89 960.016 1529.89C925.249 1529.89 893.736 1541.93 870.955 1561.36C848.174 1580.82 834.061 1607.68 834.061 1637.34H894.155C894.155 1621.81 901.533 1607.73 913.423 1597.59C925.345 1587.42 941.843 1581.12 960.016 1581.12C978.221 1581.12 994.719 1587.42 1006.61 1597.59Z" fill="#F4F1F0"/>
</svg>
