<svg width="194" height="207" viewBox="0 0 194 207" fill="none" xmlns="http://www.w3.org/2000/svg">
<path fill-rule="evenodd" clip-rule="evenodd" d="M148.028 0.00347386L148.053 1.23669C148.053 15.7366 142.367 29.0172 133.244 38.7579C124.153 48.4638 111.628 54.6508 97.9255 55.0016L96.6987 55.0294C88.8566 55.0294 81.4256 53.1469 74.7777 49.7816C78.3168 55.409 81.3154 61.4578 83.6941 67.8429C85.5468 68.2482 87.4301 68.5666 89.3409 68.7966C91.7264 69.0884 94.18 69.2343 96.6986 69.2343C114.54 69.2343 130.693 61.4945 142.387 48.9817C154.08 36.4653 161.312 19.1759 161.312 0.0801394L167.365 0.0801394C167.365 20.965 159.455 39.8767 146.664 53.5602C133.877 67.2507 116.211 75.7165 96.6986 75.7165C94.0178 75.7165 91.3402 75.5497 88.6788 75.2267C87.7851 75.1178 86.8965 74.9912 86.013 74.8472C87.3956 79.6029 88.443 84.5165 89.1258 89.5563C90.006 89.6422 90.8809 89.713 91.7494 89.7682C93.3105 89.869 94.9625 89.9176 96.6989 89.9176C119.879 89.9176 140.865 79.8608 156.051 63.6066C171.247 47.342 180.646 24.88 180.646 0.0801394L186.676 0.0801394C186.676 2.56849 186.588 5.03476 186.415 7.47555C186.948 7.43211 187.485 7.39294 188.026 7.35778C189.853 7.23967 191.622 7.18061 193.326 7.18061V13.6594C191.59 13.6594 189.944 13.7115 188.38 13.8087C187.506 13.8643 186.627 13.9356 185.741 14.0222C185.059 19.0637 184.012 23.9785 182.63 28.7349C183.518 28.5902 184.41 28.4629 185.306 28.3536C187.899 28.0375 190.574 27.8777 193.326 27.8777V34.3321C190.879 34.3321 188.425 34.4849 185.968 34.7802C184.056 35.0133 182.168 35.3331 180.313 35.7396C177.977 42.0133 175.044 47.9615 171.587 53.5036C177.909 50.3182 184.909 48.5338 192.242 48.5338L193.394 48.5616L193.251 55.016L193.255 55.0195L192.242 55.016C180.353 55.016 169.461 60.3658 161.467 68.9427C153.444 77.551 148.329 89.3933 148.04 102.34L148.037 103.501C148.037 116.885 153.107 129.006 161.302 137.774C169.497 146.545 180.818 151.971 193.323 151.971V158.45C179.146 158.45 166.313 152.298 157.021 142.356C147.732 132.414 141.984 118.675 141.984 103.501L142.01 102.191C142.186 94.3079 143.937 86.7899 146.926 80.0111C141.659 83.8098 135.996 87.0279 130.017 89.5797C129.638 91.5642 129.34 93.5815 129.125 95.6284C128.853 98.1816 128.716 100.808 128.716 103.504C128.716 122.599 135.947 139.889 147.638 152.405C159.332 164.921 175.485 172.661 193.326 172.661V179.14C173.814 179.14 156.145 170.674 143.36 156.984C130.569 143.297 122.66 124.388 122.66 103.504C122.66 100.634 122.816 97.7683 123.118 94.9197C123.219 93.9617 123.338 93.009 123.473 92.062C119.028 93.5423 114.437 94.6638 109.727 95.3947C109.646 96.3369 109.58 97.2732 109.529 98.2027C109.434 99.8736 109.389 101.642 109.389 103.5C109.389 128.311 118.782 150.773 133.971 167.027C149.167 183.291 170.153 193.352 193.323 193.352V199.803C190.998 199.803 188.694 199.708 186.413 199.523C186.454 200.095 186.49 200.671 186.523 201.251C186.634 203.207 186.689 205.1 186.689 206.924H180.636C180.636 205.065 180.587 203.304 180.496 201.63C180.444 200.694 180.378 199.751 180.297 198.802C175.587 198.072 170.996 196.952 166.553 195.473C166.689 196.425 166.808 197.382 166.91 198.344C167.206 201.116 167.355 203.979 167.355 206.924H161.325C161.325 204.305 161.182 201.679 160.906 199.049C160.688 197.002 160.389 194.98 160.009 192.993C154.148 190.494 148.591 187.354 143.413 183.655C146.389 190.422 148.057 197.914 148.057 205.763L148.031 207L142 206.847H141.997L142 205.763C142 193.042 137.002 181.38 128.989 172.824C120.946 164.237 109.882 158.762 97.7859 158.453L96.7018 158.449C84.1966 158.449 72.8728 163.876 64.681 172.647C56.4859 181.419 51.4163 193.539 51.4163 206.92H45.3633C45.3633 191.746 51.1112 178.011 60.4 168.065C69.6921 158.123 82.5284 151.971 96.7018 151.971L97.9287 151.998C105.291 152.187 112.312 154.06 118.644 157.258C115.096 151.621 112.089 145.561 109.706 139.162C107.852 138.757 105.968 138.438 104.056 138.208C101.671 137.916 99.2173 137.77 96.6987 137.77C78.8578 137.77 62.7046 145.51 51.0107 158.026C39.3169 170.539 32.0858 187.829 32.0858 206.924H26.0328C26.0328 186.04 33.9423 167.128 46.7331 153.444C59.5207 139.754 77.1863 131.291 96.6987 131.291C99.3796 131.291 102.057 131.455 104.719 131.778C105.613 131.887 106.502 132.014 107.386 132.158C106.003 127.401 104.955 122.486 104.272 117.444C103.392 117.358 102.517 117.288 101.648 117.232C100.087 117.132 98.4352 117.083 96.6988 117.083C73.5189 117.083 52.533 127.14 37.3469 143.394C22.1511 159.659 12.7519 182.121 12.7519 206.92H6.72487C6.72487 204.434 6.81281 201.969 6.98554 199.53C6.45287 199.573 5.91596 199.612 5.37474 199.646C3.54748 199.761 1.77864 199.82 0.0747133 199.82L0.0747133 193.341C1.8111 193.341 3.45661 193.289 5.02097 193.192C5.89444 193.136 6.77436 193.065 7.65974 192.978C8.34181 187.938 9.38816 183.025 10.7692 178.27C9.88177 178.414 8.98908 178.541 8.09129 178.651C5.50132 178.967 2.82696 179.127 0.0747133 179.127L0.0747133 172.672C2.52188 172.672 4.97554 172.519 7.43244 172.224C9.34388 171.991 11.2316 171.671 13.0864 171.265C15.4634 164.879 18.4599 158.831 21.9964 153.205C15.3475 156.571 7.9157 158.454 0.0746483 158.454L0.0746483 151.975C12.5799 151.975 23.9004 146.549 32.0955 137.777C40.2906 129.009 45.3602 116.889 45.3602 103.504L45.357 102.344C45.0681 89.3967 39.9563 77.5543 31.93 68.9461C23.9361 60.3656 13.0407 55.0194 1.15543 55.0194L0.142805 55.0228L0 48.5684L0 48.5649L1.15543 48.5371C14.7025 48.5371 27.1103 54.6233 36.2109 64.3884C45.2791 74.1186 51.0594 87.5243 51.3872 102.194L51.4132 103.504C51.4132 111.895 49.6556 119.847 46.5137 126.961C51.7699 123.174 57.4201 119.966 63.3844 117.42C63.7631 115.437 64.0606 113.421 64.2755 111.376C64.5481 108.823 64.6844 106.196 64.6844 103.501C64.6844 84.4048 57.4533 67.1154 45.7595 54.5991C34.0689 42.0828 17.9157 34.343 0.0747133 34.343L0.0747133 27.8643C19.5871 27.8643 37.2561 36.3301 50.0404 50.0206C62.8312 63.7076 70.7374 82.6158 70.7374 103.501C70.7374 106.37 70.5849 109.236 70.2831 112.085C70.1813 113.041 70.063 113.993 69.9285 114.938C74.3717 113.458 78.9624 112.337 83.671 111.606C83.7513 110.664 83.8174 109.728 83.869 108.798C83.9632 107.127 84.0086 105.359 84.0086 103.5C84.0086 78.69 74.6127 56.228 59.4266 39.9738C44.2308 23.7092 23.2449 13.6489 0.0747133 13.6489L0.0747133 7.19451C2.39795 7.19451 4.70055 7.28864 6.97936 7.47352C6.93895 6.90435 6.90285 6.3308 6.87103 5.75295C6.76393 3.79717 6.70875 1.90392 6.70875 0.0801394L12.7618 0.0801394C12.7618 1.93865 12.8104 3.6999 12.9013 5.3743C12.9531 6.30805 13.0197 7.24869 13.1004 8.19517C17.8092 8.92524 22.3995 10.0452 26.8419 11.5235C26.7073 10.5755 26.589 9.62208 26.487 8.66405C26.1917 5.88843 26.0424 3.02597 26.0424 0.0801394L32.0727 0.0801394C32.0727 2.69943 32.2155 5.32567 32.4913 7.95538C32.709 10.0002 33.0075 12.0197 33.3869 14.004C39.3545 16.5492 45.0069 19.758 50.2647 23.5451C47.1196 16.4282 45.3601 8.47309 45.3601 0.0798988L51.4132 0.0798988C51.4132 13.4647 56.4827 25.5815 64.6778 34.353C72.8697 43.1245 84.1935 48.5507 96.6987 48.5507L97.7827 48.5472C109.879 48.238 120.943 42.7667 128.986 34.1758C137.002 25.6197 141.997 13.958 141.997 1.23669L141.994 0.15285L148.024 0L148.028 0.00347386ZM89.7913 110.884C92.0712 110.699 94.3747 110.604 96.6988 110.604C98.406 110.604 100.175 110.663 102.005 110.778C102.54 110.812 103.071 110.85 103.597 110.893C103.424 108.453 103.336 105.988 103.336 103.5C103.336 101.673 103.391 99.7798 103.498 97.8206C103.53 97.2483 103.566 96.6805 103.606 96.1171C101.327 96.3022 99.025 96.3964 96.7021 96.3964C94.995 96.3964 93.2261 96.3373 91.3956 96.2227C90.8597 96.1889 90.3281 96.1503 89.8006 96.1071C89.9736 98.5461 90.0616 101.011 90.0616 103.497C90.0616 105.324 90.0064 107.217 89.8993 109.177C89.8677 109.75 89.8317 110.319 89.7913 110.884Z" fill="url(#paint0_linear_114_35)"/>
<path d="M119.333 24.3103C125.13 18.1095 128.713 9.54293 128.713 0.0801394L122.65 0.0801394C122.65 7.7539 119.746 14.7016 115.049 19.7283C110.353 24.7584 103.862 27.8675 96.6923 27.8675C89.5228 27.8675 83.0349 24.7584 78.3353 19.7283C73.639 14.7016 70.7309 7.75042 70.7309 0.0801394L64.6779 0.0801394C64.6779 9.54293 68.261 18.1095 74.0576 24.3103C79.851 30.5111 87.8546 34.3463 96.6955 34.3463C105.536 34.3463 113.54 30.5111 119.333 24.3103Z" fill="url(#paint1_linear_114_35)"/>
<path d="M109.389 0.0801394C109.389 3.82843 107.967 7.2224 105.673 9.68189C103.385 12.131 100.211 13.649 96.7021 13.649C93.1904 13.649 90.0194 12.1344 87.7313 9.68189C85.4367 7.2224 84.0151 3.82496 84.0151 0.0801394L90.0681 0.0801394C90.0681 2.0394 90.8113 3.81454 92.009 5.10334C93.2163 6.39562 94.8781 7.19461 96.7021 7.19461C98.5261 7.19461 100.188 6.39562 101.395 5.10334C102.596 3.81801 103.339 2.04287 103.339 0.0801394L109.389 0.0801394Z" fill="url(#paint2_linear_114_35)"/>
<path d="M0.0747133 69.2346C8.91567 69.2346 16.9193 73.0697 22.7126 79.274C28.506 85.4749 32.0891 94.0414 32.0891 103.504C32.0891 112.967 28.506 121.534 22.7126 127.734C16.9193 133.939 8.91567 137.774 0.0747133 137.774L0.0747133 131.295C7.24095 131.295 13.7354 128.183 18.4317 123.156C23.1313 118.126 26.0361 111.181 26.0361 103.508C26.0361 95.8339 23.1313 88.8862 18.4317 83.8595C13.7354 78.8329 7.24419 75.7238 0.0747133 75.7238L0.0747133 69.2346Z" fill="url(#paint3_linear_114_35)"/>
<path d="M9.04549 93.8985C6.74762 91.4425 3.57669 89.9209 0.0747133 89.9209L0.0747133 96.3962C1.90846 96.3962 3.56695 97.1917 4.76782 98.477C5.97517 99.7693 6.72166 101.548 6.72166 103.5C6.72166 105.453 5.97517 107.231 4.76782 108.523C3.56371 109.805 1.90522 110.601 0.0747133 110.601L0.0747133 117.08C3.57669 117.08 6.75087 115.558 9.04549 113.102C11.3369 110.653 12.7519 107.259 12.7519 103.5C12.7519 99.745 11.3369 96.3476 9.04549 93.8985Z" fill="url(#paint4_linear_114_35)"/>
<path d="M174.969 83.8518C179.666 78.8251 186.16 75.716 193.326 75.716V69.2269C184.485 69.2269 176.482 73.062 170.688 79.2663C164.895 85.4672 161.312 94.0337 161.312 103.496C161.312 112.959 164.895 121.526 170.688 127.727C176.482 133.931 184.485 137.766 193.326 137.766V131.287C186.157 131.287 179.666 128.175 174.969 123.148C170.27 118.121 167.365 111.174 167.365 103.5C167.365 95.8262 170.27 88.882 174.969 83.8518Z" fill="url(#paint5_linear_114_35)"/>
<path d="M193.326 96.3994C191.495 96.3994 189.837 97.1949 188.633 98.4802C187.425 99.7725 186.679 101.548 186.679 103.503C186.679 105.456 187.425 107.234 188.633 108.527C189.834 109.808 191.492 110.604 193.326 110.604L193.326 117.083C189.824 117.083 186.653 115.561 184.355 113.105C182.067 110.656 180.649 107.259 180.649 103.503C180.649 99.7447 182.064 96.3507 184.355 93.9017C186.653 91.4457 189.827 89.9241 193.326 89.9241V96.3994Z" fill="url(#paint6_linear_114_35)"/>
<path d="M122.66 206.924C122.66 199.253 119.755 192.302 115.059 187.276C110.359 182.245 103.871 179.136 96.7019 179.136C89.5324 179.136 83.0413 182.245 78.3449 187.276C73.6486 192.302 70.7405 199.25 70.7405 206.924H64.6875C64.6875 197.461 68.2706 188.894 74.0672 182.694C79.8606 176.493 87.8642 172.658 96.7051 172.658C105.546 172.658 113.55 176.493 119.343 182.694C125.14 188.894 128.723 197.461 128.723 206.924H122.66Z" fill="url(#paint7_linear_114_35)"/>
<path d="M101.392 201.901C102.593 203.186 103.336 204.965 103.336 206.924H109.386C109.386 203.179 107.964 199.782 105.669 197.322C103.375 194.866 100.204 193.345 96.6987 193.345C93.1967 193.345 90.0226 194.866 87.7279 197.322C85.4333 199.782 84.0118 203.176 84.0118 206.924H90.0648C90.0648 204.961 90.808 203.183 92.0056 201.901C93.2065 200.616 94.8682 199.82 96.6987 199.82C98.5325 199.82 100.194 200.616 101.392 201.901Z" fill="url(#paint8_linear_114_35)"/>
<defs>
<linearGradient id="paint0_linear_114_35" x1="96.6971" y1="0" x2="96.6971" y2="207" gradientUnits="userSpaceOnUse">
<stop stop-color="#F8F7F6"/>
<stop offset="1" stop-color="#F8F7F6" stop-opacity="0"/>
</linearGradient>
<linearGradient id="paint1_linear_114_35" x1="96.6971" y1="0" x2="96.6971" y2="207" gradientUnits="userSpaceOnUse">
<stop stop-color="#F8F7F6"/>
<stop offset="1" stop-color="#F8F7F6" stop-opacity="0"/>
</linearGradient>
<linearGradient id="paint2_linear_114_35" x1="96.6971" y1="0" x2="96.6971" y2="207" gradientUnits="userSpaceOnUse">
<stop stop-color="#F8F7F6"/>
<stop offset="1" stop-color="#F8F7F6" stop-opacity="0"/>
</linearGradient>
<linearGradient id="paint3_linear_114_35" x1="96.6971" y1="0" x2="96.6971" y2="207" gradientUnits="userSpaceOnUse">
<stop stop-color="#F8F7F6"/>
<stop offset="1" stop-color="#F8F7F6" stop-opacity="0"/>
</linearGradient>
<linearGradient id="paint4_linear_114_35" x1="96.6971" y1="0" x2="96.6971" y2="207" gradientUnits="userSpaceOnUse">
<stop stop-color="#F8F7F6"/>
<stop offset="1" stop-color="#F8F7F6" stop-opacity="0"/>
</linearGradient>
<linearGradient id="paint5_linear_114_35" x1="96.6971" y1="0" x2="96.6971" y2="207" gradientUnits="userSpaceOnUse">
<stop stop-color="#F8F7F6"/>
<stop offset="1" stop-color="#F8F7F6" stop-opacity="0"/>
</linearGradient>
<linearGradient id="paint6_linear_114_35" x1="96.6971" y1="0" x2="96.6971" y2="207" gradientUnits="userSpaceOnUse">
<stop stop-color="#F8F7F6"/>
<stop offset="1" stop-color="#F8F7F6" stop-opacity="0"/>
</linearGradient>
<linearGradient id="paint7_linear_114_35" x1="96.6971" y1="0" x2="96.6971" y2="207" gradientUnits="userSpaceOnUse">
<stop stop-color="#F8F7F6"/>
<stop offset="1" stop-color="#F8F7F6" stop-opacity="0"/>
</linearGradient>
<linearGradient id="paint8_linear_114_35" x1="96.6971" y1="0" x2="96.6971" y2="207" gradientUnits="userSpaceOnUse">
<stop stop-color="#F8F7F6"/>
<stop offset="1" stop-color="#F8F7F6" stop-opacity="0"/>
</linearGradient>
</defs>
</svg>
