<svg width="342" height="701" viewBox="0 0 342 701" fill="none" xmlns="http://www.w3.org/2000/svg">
<circle cx="230.186" cy="347.337" r="214.974" transform="rotate(-144.105 230.186 347.337)" stroke="#83756C" stroke-width="0.903252"/>
<path d="M126.706 254.605C144.058 230.629 171.64 215.744 206.721 209.391C241.806 203.037 284.365 205.224 331.608 215.373C426.092 235.67 539.229 287.797 648.605 366.957C757.981 446.118 842.852 537.299 891.66 620.708C916.064 662.414 931.441 702.157 936.37 737.471C941.298 772.781 935.777 803.633 918.425 827.608C901.073 851.583 873.492 866.469 838.41 872.822C803.325 879.175 760.766 876.989 713.523 866.84C619.039 846.542 505.902 794.416 396.526 715.255C287.15 636.095 202.279 544.914 153.471 461.504C129.067 419.799 113.69 380.055 108.761 344.742C103.833 309.432 109.354 278.58 126.706 254.605Z" stroke="#83756C" stroke-width="0.903252"/>
<path d="M125.059 30.413C132.271 20.4478 146.38 16.0654 165.92 16.8326C185.44 17.599 210.252 23.5026 238.682 33.9474C295.537 54.8348 366.763 93.8456 438.874 146.036C510.986 198.226 570.301 253.694 607.91 301.174C626.716 324.917 640.077 346.641 646.905 364.943C653.74 383.265 653.986 398.037 646.774 408.002C639.562 417.967 625.453 422.35 605.913 421.583C586.393 420.816 561.582 414.913 533.151 404.468C476.296 383.58 405.07 344.57 332.959 292.379C260.848 240.189 201.532 184.721 163.924 137.241C145.118 113.499 131.756 91.7742 124.928 73.4718C118.093 55.1501 117.847 40.3782 125.059 30.413Z" stroke="#83756C" stroke-width="0.903252"/>
</svg>
