<svg width="694" height="451" viewBox="0 0 694 451" fill="none" xmlns="http://www.w3.org/2000/svg">
<g clip-path="url(#clip0_95_27)">
<rect width="693.976" height="451" fill="white"/>
<path d="M693.976 0H0V451H693.976V0Z" fill="#D1B8B8"/>
<path fill-rule="evenodd" clip-rule="evenodd" d="M248.614 146.788C248.651 141.397 253.01 137.034 258.4 136.991H436.14C441.546 136.991 445.926 141.381 445.926 146.788V304.776C445.889 310.167 441.531 314.53 436.14 314.572H258.4C252.994 314.567 248.614 310.183 248.614 304.776V146.788ZM426.196 156.723H268.346V294.842L360.018 203.15C363.87 199.299 370.115 199.299 373.968 203.15L426.196 255.478V156.723ZM288.075 196.185C288.075 207.082 296.909 215.916 307.806 215.916C318.704 215.916 327.538 207.082 327.538 196.185C327.538 185.287 318.704 176.453 307.806 176.453C296.909 176.453 288.075 185.287 288.075 196.185Z" fill="white"/>
</g>
<defs>
<clipPath id="clip0_95_27">
<rect width="693.976" height="451" fill="white"/>
</clipPath>
</defs>
</svg>
