<svg width="694" height="451" viewBox="0 0 694 451" fill="none" xmlns="http://www.w3.org/2000/svg">
<g clip-path="url(#clip0_204_30)">
<rect width="693.976" height="451" fill="white"/>
<path d="M693.976 0H0V451H693.976V0Z" fill="#D1B8B8"/>
<path d="M302.607 214.37H267.313V288.323H340.051V301.27H252V120H339.428V133.072H267.313V201.422H302.607V214.37Z" fill="#F1E1E1"/>
<path d="M363.783 209.835C363.783 210.854 364.197 211.364 365.025 211.364C366.522 211.364 368.513 208.864 370.997 203.864C371.093 203.672 371.172 203.481 371.236 203.29C371.331 203.099 371.459 202.972 371.618 202.908C371.809 202.844 371.937 202.892 372 203.051C372.064 203.179 372.032 203.402 371.905 203.72C369.357 209.644 366.777 212.606 364.166 212.606C363.306 212.606 362.621 212.224 362.111 211.459C361.602 210.695 361.347 209.947 361.347 209.214C361.347 208.45 361.427 207.749 361.586 207.112C359.739 210.169 358.146 211.905 356.809 212.319C356.426 212.478 356.044 212.558 355.662 212.558C355.312 212.558 354.961 212.51 354.611 212.415C353.051 212.001 352.27 210.759 352.27 208.689C352.27 207.287 352.621 205.743 353.321 204.055C354.054 202.335 355.073 200.695 356.379 199.134C357.684 197.574 359.261 196.523 361.108 195.981C361.777 195.758 362.557 195.647 363.449 195.647C364.373 195.647 365.392 195.933 366.506 196.507C368.672 192.43 370.519 188.656 372.048 185.185C372.494 184.134 372.924 183.465 373.338 183.178C373.784 182.86 374.182 182.7 374.532 182.7C374.914 182.7 375.137 182.7 375.201 182.7C375.297 182.7 375.599 182.748 376.109 182.844C376.65 182.907 377.064 182.923 377.351 182.892C376.618 183.56 374.675 186.809 371.523 192.637C367.51 200.09 365.089 205.058 364.261 207.542C363.943 208.466 363.783 209.23 363.783 209.835ZM366.124 197.271C365.71 196.857 365.121 196.65 364.357 196.65C363.624 196.65 362.589 197.207 361.251 198.322C359.118 200.105 357.35 202.303 355.949 204.915C355.025 206.634 354.563 208.052 354.563 209.166C354.563 209.676 354.659 210.138 354.85 210.552C355.073 210.966 355.407 211.173 355.853 211.173C356.936 211.173 358.274 210.058 359.866 207.829C361.458 205.599 363.545 202.08 366.124 197.271ZM373.347 205.249C372.901 206.332 372.678 207.542 372.678 208.88C372.678 209.771 372.869 210.488 373.251 211.029C373.665 211.539 374.239 211.794 374.971 211.794C377.869 211.794 380.497 209.071 382.853 203.625C383.076 203.115 383.347 202.892 383.666 202.956C383.793 202.988 383.857 203.067 383.857 203.195C383.857 203.322 383.49 204.166 382.758 205.727C382.057 207.255 381.341 208.497 380.608 209.453C378.984 211.682 376.977 212.797 374.589 212.797C373.315 212.797 372.232 212.383 371.34 211.555C370.449 210.727 370.003 209.596 370.003 208.163C370.003 206.73 370.337 205.217 371.006 203.625C371.707 202 372.646 200.504 373.825 199.134C375.003 197.733 376.356 196.714 377.885 196.077C378.618 195.758 379.318 195.599 379.987 195.599C380.656 195.599 381.277 195.79 381.85 196.172C382.392 196.618 382.662 197.112 382.662 197.653C382.662 199.564 381.516 201.395 379.223 203.147C378.522 203.688 377.535 204.182 376.261 204.628C374.987 205.042 374.016 205.249 373.347 205.249ZM381.373 197.605C381.373 196.968 381.118 196.65 380.608 196.65C379.716 196.65 378.363 197.749 376.548 199.946C375.465 201.284 374.509 202.781 373.681 204.437C374.223 204.437 375.003 204.246 376.022 203.864C377.073 203.481 377.981 202.972 378.745 202.335C380.497 200.838 381.373 199.261 381.373 197.605ZM391.791 201.618C392.906 200.281 393.463 199.15 393.463 198.226C393.463 197.303 393.081 196.841 392.317 196.841C390.82 196.841 389.116 198.21 387.205 200.949C386.6 201.809 386.011 202.94 385.438 204.341C384.864 205.743 384.578 207.016 384.578 208.163C384.578 209.278 384.801 210.185 385.247 210.886C385.724 211.587 386.441 211.937 387.396 211.937C388.384 211.937 389.291 211.714 390.119 211.268C390.947 210.79 391.728 210.058 392.46 209.071C393.225 208.052 393.798 207.208 394.18 206.539C394.562 205.87 395.088 204.867 395.756 203.529C395.979 203.083 396.17 202.908 396.33 203.004C396.489 203.067 396.569 203.179 396.569 203.338C396.569 203.465 396.346 203.991 395.9 204.915C395.486 205.806 395.056 206.65 394.61 207.446C394.196 208.243 393.591 209.134 392.795 210.122C391.361 211.905 389.403 212.797 386.919 212.797C385.135 212.797 383.845 212.367 383.049 211.507C382.285 210.615 381.903 209.596 381.903 208.45C381.903 207.048 382.237 205.52 382.906 203.864C383.606 202.207 384.403 200.774 385.294 199.564C387.142 197.048 389.275 195.79 391.696 195.79C392.874 195.79 393.718 196.077 394.228 196.65C394.769 197.191 395.04 197.828 395.04 198.561C395.04 199.644 394.594 200.567 393.702 201.332C393.256 201.746 392.874 201.953 392.556 201.953C392.269 201.953 392.014 201.841 391.791 201.618ZM404.105 195.886C406.43 195.886 407.593 197.351 407.593 200.281C407.593 201.618 407.242 203.051 406.542 204.58C405.65 206.65 404.312 208.529 402.529 210.217C402.943 211.013 403.691 211.412 404.774 211.412C405.634 211.412 406.446 210.982 407.211 210.122C408.166 209.134 408.851 208.274 409.265 207.542C409.679 206.778 409.981 206.22 410.172 205.87C410.364 205.52 410.602 205.026 410.889 204.389C411.207 203.72 411.399 203.322 411.462 203.195C411.526 203.035 411.637 202.956 411.797 202.956C412.115 202.924 412.274 203.035 412.274 203.29C412.274 203.386 412.243 203.497 412.179 203.625L411.892 204.293C411.701 204.739 411.558 205.058 411.462 205.249C411.367 205.44 411.192 205.79 410.937 206.3C410.714 206.778 410.507 207.16 410.316 207.446C410.157 207.733 409.918 208.115 409.599 208.593C409.313 209.071 409.042 209.453 408.787 209.74C408.564 210.026 408.277 210.345 407.927 210.695C407.577 211.045 407.242 211.316 406.924 211.507C406.128 211.985 405.379 212.224 404.679 212.224C403.373 212.224 402.354 211.81 401.621 210.982C400.156 212.064 398.803 212.606 397.561 212.606C395.236 212.606 394.073 211.141 394.073 208.211C394.073 206.873 394.424 205.44 395.124 203.911C396.08 201.682 397.417 199.787 399.137 198.226C400.889 196.666 402.545 195.886 404.105 195.886ZM404.631 197.367C403.771 197.367 402.752 197.94 401.573 199.086C400.395 200.233 399.344 201.793 398.42 203.768C397.306 206.061 396.748 207.94 396.748 209.405C396.748 210.87 397.306 211.603 398.42 211.603C399.217 211.603 400.108 211.173 401.096 210.313C400.586 209.58 400.331 208.8 400.331 207.972C400.395 206.602 400.952 205.918 402.003 205.918C402.417 205.918 402.752 206.061 403.007 206.348C403.293 206.634 403.437 206.905 403.437 207.16C403.437 207.383 403.405 207.622 403.341 207.876C403.882 207.08 404.503 205.95 405.204 204.485C406 202.86 406.398 201.268 406.398 199.707C406.398 198.147 405.809 197.367 404.631 197.367ZM417.862 193.449C417.862 194.882 416.954 196.236 415.139 197.51C415.776 197.542 416.62 197.558 417.671 197.558C418.754 197.558 420.107 197.478 421.731 197.319C421.795 197.414 421.827 197.669 421.827 198.083C421.827 198.497 421.636 199.118 421.254 199.946C420.872 200.742 420.521 201.443 420.203 202.048C419.916 202.621 419.629 203.179 419.343 203.72C419.088 204.23 418.785 204.867 418.435 205.631C418.117 206.395 417.846 207.096 417.623 207.733C416.827 210.154 416.954 211.364 418.005 211.364C419.343 211.364 421.317 208.704 423.929 203.386C424.152 202.972 424.327 202.813 424.454 202.908C424.614 203.004 424.693 203.131 424.693 203.29C424.693 203.418 424.486 203.911 424.072 204.771C423.658 205.599 423.212 206.459 422.735 207.351C422.257 208.243 421.508 209.278 420.489 210.456C419.279 211.921 418.117 212.654 417.002 212.654C415.76 212.654 414.9 211.905 414.422 210.408C414.327 210.122 414.279 209.692 414.279 209.118C414.279 208.545 414.454 207.781 414.804 206.825C415.187 205.87 415.776 204.708 416.572 203.338C417.368 201.969 417.814 201.172 417.91 200.949C418.005 200.695 418.053 200.456 418.053 200.233C418.053 199.246 416.779 198.72 414.231 198.656L413.658 200.185C411.652 205.44 409.725 208.959 407.878 210.743C407.559 211.029 407.4 210.934 407.4 210.456C407.4 210.361 407.432 210.249 407.495 210.122C409.279 207.765 410.823 204.978 412.129 201.762C413.435 198.545 414.343 195.487 414.852 192.589C415.043 191.602 415.489 191.108 416.19 191.108C416.891 191.108 417.4 191.554 417.719 192.446C417.814 192.733 417.862 193.067 417.862 193.449Z" fill="#DDCACA"/>
<path d="M386.119 193.382L366.322 133.993L336.133 214.167L306.296 301.27H290.236L358.835 120H373.401L401.171 193.382H386.119Z" fill="#DDCACA"/>
<path d="M350.98 215.157V228.025H398.3L426.064 301.27H442L409.412 215.157H350.98Z" fill="#F1E1E1"/>
<path d="M260.896 307.742C261.627 307.742 262.382 307.814 263.161 307.957C263.956 308.1 264.592 308.307 265.069 308.577C265.212 308.656 265.299 308.728 265.331 308.792C265.379 308.855 265.411 308.974 265.427 309.149L265.689 311.82C265.689 311.852 265.649 311.884 265.57 311.915C265.49 311.931 265.442 311.907 265.427 311.844C265.061 310.556 264.393 309.642 263.424 309.102C262.454 308.545 261.301 308.267 259.966 308.267C258.742 308.267 257.677 308.537 256.771 309.078C255.88 309.602 255.189 310.349 254.696 311.319C254.203 312.273 253.957 313.394 253.957 314.681C253.957 315.81 254.132 316.875 254.481 317.877C254.831 318.862 255.316 319.729 255.936 320.476C256.572 321.223 257.295 321.811 258.106 322.24C258.933 322.654 259.807 322.86 260.729 322.86C261.842 322.86 262.819 322.558 263.662 321.954C264.52 321.334 265.18 320.357 265.641 319.021C265.657 318.958 265.705 318.942 265.784 318.974C265.88 318.989 265.927 319.013 265.927 319.045L265.593 321.74C265.562 321.93 265.522 322.058 265.474 322.121C265.442 322.169 265.355 322.225 265.212 322.288C264.449 322.606 263.694 322.837 262.947 322.98C262.199 323.123 261.444 323.194 260.681 323.194C259.171 323.194 257.875 322.964 256.794 322.503C255.713 322.026 254.831 321.406 254.148 320.643C253.464 319.864 252.963 319.013 252.645 318.091C252.327 317.153 252.168 316.231 252.168 315.325C252.168 314.181 252.407 313.147 252.884 312.225C253.361 311.303 254.012 310.508 254.839 309.841C255.666 309.173 256.596 308.656 257.629 308.291C258.678 307.925 259.767 307.742 260.896 307.742ZM271.434 308.434C270.449 308.434 269.702 308.688 269.193 309.197C268.7 309.706 268.342 310.572 268.12 311.796C268.12 311.828 268.072 311.844 267.977 311.844C267.897 311.844 267.857 311.828 267.857 311.796C267.889 311.589 267.921 311.303 267.953 310.938C267.985 310.556 268.016 310.151 268.048 309.722C268.096 309.292 268.128 308.879 268.144 308.482C268.175 308.068 268.191 307.734 268.191 307.48C268.191 307.401 268.231 307.361 268.311 307.361C268.406 307.361 268.454 307.401 268.454 307.48C268.454 307.639 268.533 307.758 268.692 307.838C268.851 307.901 269.026 307.949 269.217 307.981C269.423 307.997 269.598 308.005 269.741 308.005C271.108 308.052 272.706 308.076 274.534 308.076C275.663 308.076 276.553 308.068 277.205 308.052C277.873 308.021 278.516 308.005 279.136 308.005C279.677 308.005 280.09 307.973 280.376 307.909C280.678 307.83 280.869 307.663 280.949 307.409C280.965 307.345 281.012 307.313 281.092 307.313C281.171 307.313 281.211 307.345 281.211 307.409C281.195 307.647 281.171 307.973 281.139 308.386C281.108 308.8 281.084 309.229 281.068 309.674C281.052 310.119 281.036 310.532 281.02 310.914C281.004 311.295 280.996 311.589 280.996 311.796C280.996 311.828 280.949 311.844 280.853 311.844C280.758 311.844 280.71 311.828 280.71 311.796C280.663 310.556 280.408 309.69 279.947 309.197C279.486 308.688 278.723 308.434 277.658 308.434C276.99 308.434 276.49 308.466 276.156 308.529C275.822 308.593 275.599 308.736 275.488 308.958C275.393 309.165 275.345 309.507 275.345 309.984V320.977C275.345 321.438 275.401 321.787 275.512 322.026C275.623 322.264 275.838 322.423 276.156 322.503C276.49 322.582 276.99 322.622 277.658 322.622C277.706 322.622 277.73 322.67 277.73 322.765C277.73 322.86 277.706 322.908 277.658 322.908C277.245 322.908 276.776 322.9 276.251 322.884C275.726 322.868 275.154 322.86 274.534 322.86C273.946 322.86 273.39 322.868 272.865 322.884C272.34 322.9 271.864 322.908 271.434 322.908C271.403 322.908 271.387 322.86 271.387 322.765C271.387 322.67 271.403 322.622 271.434 322.622C272.086 322.622 272.579 322.582 272.913 322.503C273.262 322.423 273.493 322.264 273.604 322.026C273.716 321.787 273.771 321.438 273.771 320.977V309.936C273.771 309.459 273.716 309.117 273.604 308.911C273.493 308.688 273.27 308.553 272.937 308.505C272.603 308.458 272.102 308.434 271.434 308.434ZM287.12 323.194C286.675 323.194 286.277 323.091 285.927 322.884C285.594 322.678 285.427 322.376 285.427 321.978C285.427 321.724 285.514 321.501 285.689 321.31C285.864 321.104 286.11 321 286.428 321C286.698 321 286.897 321.072 287.024 321.215C287.167 321.342 287.271 321.493 287.334 321.668C287.414 321.843 287.493 322.002 287.573 322.145C287.668 322.288 287.787 322.36 287.93 322.36C288.089 322.36 288.24 322.288 288.383 322.145C288.527 321.986 288.662 321.748 288.789 321.43L294.059 309.936C294.313 309.38 294.313 308.966 294.059 308.696C293.804 308.426 293.248 308.291 292.389 308.291C292.342 308.291 292.318 308.243 292.318 308.148C292.318 308.052 292.342 308.005 292.389 308.005C292.771 308.005 293.137 308.021 293.486 308.052C293.836 308.068 294.289 308.076 294.846 308.076C295.116 308.076 295.346 308.076 295.537 308.076C295.728 308.06 295.911 308.044 296.086 308.029C296.276 308.013 296.499 308.005 296.753 308.005C296.785 308.005 296.801 308.052 296.801 308.148C296.801 308.243 296.785 308.291 296.753 308.291C296.34 308.291 295.942 308.442 295.561 308.744C295.195 309.046 294.877 309.483 294.607 310.055L289.29 321.573C289.051 322.097 288.757 322.503 288.407 322.789C288.073 323.059 287.644 323.194 287.12 323.194ZM289.766 319.951L284.377 309.984C284.059 309.38 283.757 308.951 283.471 308.696C283.201 308.426 282.812 308.291 282.303 308.291C282.271 308.291 282.255 308.243 282.255 308.148C282.255 308.052 282.271 308.005 282.303 308.005C282.541 308.005 282.764 308.013 282.971 308.029C283.193 308.044 283.424 308.06 283.662 308.076C283.916 308.076 284.187 308.076 284.473 308.076C284.934 308.076 285.331 308.076 285.665 308.076C286.015 308.06 286.317 308.044 286.571 308.029C286.841 308.013 287.088 308.005 287.31 308.005C287.358 308.005 287.382 308.052 287.382 308.148C287.382 308.243 287.358 308.291 287.31 308.291C286.706 308.291 286.253 308.402 285.951 308.625C285.649 308.847 285.649 309.221 285.951 309.745L290.577 318.234L289.766 319.951ZM312.356 322.622C312.499 322.622 312.579 322.638 312.594 322.67C312.626 322.686 312.642 322.765 312.642 322.908C312.642 323.131 312.618 323.369 312.571 323.623C312.539 323.894 312.507 324.275 312.475 324.768C312.443 325.261 312.428 325.96 312.428 326.866C312.428 326.93 312.38 326.962 312.284 326.962C312.189 326.962 312.141 326.93 312.141 326.866C312.141 325.515 311.839 324.514 311.235 323.862C310.647 323.226 309.669 322.908 308.302 322.908H300.839C300.219 322.908 299.662 323.019 299.169 323.242C298.693 323.48 298.319 323.886 298.049 324.458C297.778 325.046 297.643 325.849 297.643 326.866C297.643 326.93 297.596 326.962 297.5 326.962C297.405 326.962 297.357 326.93 297.357 326.866C297.357 326.199 297.341 325.65 297.309 325.221C297.294 324.792 297.262 324.442 297.214 324.172C297.182 323.902 297.151 323.671 297.119 323.48C297.103 323.29 297.095 323.091 297.095 322.884C297.095 322.757 297.103 322.678 297.119 322.646C297.151 322.614 297.222 322.598 297.333 322.598C298.017 322.598 298.621 322.376 299.146 321.93C299.686 321.469 300.163 320.865 300.576 320.118C301.006 319.371 301.371 318.544 301.673 317.638C301.991 316.732 302.246 315.818 302.436 314.896C302.627 313.958 302.77 313.084 302.865 312.273C302.961 311.446 303.009 310.755 303.009 310.198C303.009 309.817 302.961 309.483 302.865 309.197C302.77 308.911 302.548 308.688 302.198 308.529C301.864 308.37 301.323 308.291 300.576 308.291C300.545 308.291 300.529 308.243 300.529 308.148C300.529 308.052 300.545 308.005 300.576 308.005C300.672 308.005 300.934 308.005 301.363 308.005C301.808 308.005 302.365 308.005 303.032 308.005C303.7 308.005 304.415 308.005 305.179 308.005C305.957 308.005 306.728 308.005 307.492 308.005C308.255 308.005 308.962 308.005 309.614 308.005C310.266 308.005 310.798 308.005 311.211 308.005C311.625 308.005 311.863 308.005 311.927 308.005C311.959 308.005 311.974 308.052 311.974 308.148C311.974 308.243 311.959 308.291 311.927 308.291C311.339 308.291 310.893 308.338 310.591 308.434C310.289 308.513 310.091 308.672 309.995 308.911C309.9 309.133 309.852 309.475 309.852 309.936V320.977C309.852 321.374 309.86 321.692 309.876 321.93C309.908 322.153 309.995 322.312 310.138 322.407C310.281 322.503 310.52 322.566 310.854 322.598C311.203 322.614 311.704 322.622 312.356 322.622ZM308.302 320.929V309.984C308.302 309.491 308.27 309.149 308.207 308.958C308.159 308.752 308.008 308.633 307.754 308.601C307.499 308.553 307.062 308.529 306.442 308.529H305.274C304.813 308.529 304.479 308.601 304.272 308.744C304.066 308.887 303.931 309.157 303.867 309.555C303.803 309.952 303.74 310.54 303.676 311.319C303.644 311.605 303.589 312.043 303.509 312.631C303.43 313.219 303.311 313.887 303.152 314.634C303.009 315.381 302.826 316.168 302.603 316.994C302.381 317.805 302.118 318.592 301.816 319.355C301.514 320.118 301.165 320.794 300.767 321.382C300.37 321.954 299.917 322.391 299.408 322.694V322.384H306.323C306.975 322.384 307.436 322.36 307.706 322.312C307.992 322.264 308.159 322.145 308.207 321.954C308.27 321.748 308.302 321.406 308.302 320.929ZM317.203 321.191L316.798 320.81L327.29 309.626L327.671 309.984L317.203 321.191ZM314.103 322.908C314.071 322.908 314.055 322.86 314.055 322.765C314.055 322.67 314.071 322.622 314.103 322.622C314.691 322.622 315.136 322.582 315.438 322.503C315.74 322.423 315.939 322.264 316.035 322.026C316.146 321.787 316.201 321.438 316.201 320.977V309.936C316.201 309.475 316.146 309.133 316.035 308.911C315.939 308.672 315.74 308.513 315.438 308.434C315.152 308.338 314.715 308.291 314.127 308.291C314.095 308.291 314.079 308.243 314.079 308.148C314.079 308.052 314.095 308.005 314.127 308.005C314.508 308.005 314.938 308.021 315.415 308.052C315.907 308.068 316.416 308.076 316.941 308.076C317.529 308.076 318.061 308.068 318.538 308.052C319.015 308.021 319.444 308.005 319.826 308.005C319.858 308.005 319.874 308.052 319.874 308.148C319.874 308.243 319.858 308.291 319.826 308.291C319.238 308.291 318.793 308.338 318.491 308.434C318.189 308.529 317.982 308.696 317.871 308.935C317.775 309.173 317.728 309.523 317.728 309.984V320.977C317.728 321.438 317.775 321.787 317.871 322.026C317.966 322.264 318.165 322.423 318.467 322.503C318.785 322.582 319.238 322.622 319.826 322.622C319.858 322.622 319.874 322.67 319.874 322.765C319.874 322.86 319.858 322.908 319.826 322.908C319.429 322.908 318.991 322.9 318.514 322.884C318.053 322.868 317.529 322.86 316.941 322.86C316.416 322.86 315.907 322.868 315.415 322.884C314.922 322.9 314.485 322.908 314.103 322.908ZM324.5 322.908C324.468 322.908 324.452 322.86 324.452 322.765C324.452 322.67 324.468 322.622 324.5 322.622C325.12 322.622 325.573 322.582 325.859 322.503C326.161 322.423 326.36 322.264 326.455 322.026C326.55 321.787 326.598 321.438 326.598 320.977V309.984C326.598 309.523 326.55 309.173 326.455 308.935C326.36 308.696 326.161 308.529 325.859 308.434C325.573 308.338 325.12 308.291 324.5 308.291C324.468 308.291 324.452 308.243 324.452 308.148C324.452 308.052 324.468 308.005 324.5 308.005C324.897 308.005 325.326 308.021 325.787 308.052C326.264 308.068 326.797 308.076 327.385 308.076C327.91 308.076 328.418 308.068 328.911 308.052C329.404 308.021 329.841 308.005 330.223 308.005C330.254 308.005 330.27 308.052 330.27 308.148C330.27 308.243 330.254 308.291 330.223 308.291C329.634 308.291 329.189 308.338 328.887 308.434C328.585 308.513 328.387 308.672 328.291 308.911C328.196 309.133 328.148 309.475 328.148 309.936V320.977C328.148 321.438 328.196 321.787 328.291 322.026C328.387 322.264 328.585 322.423 328.887 322.503C329.189 322.582 329.634 322.622 330.223 322.622C330.254 322.622 330.27 322.67 330.27 322.765C330.27 322.86 330.254 322.908 330.223 322.908C329.841 322.908 329.404 322.9 328.911 322.884C328.418 322.868 327.91 322.86 327.385 322.86C326.797 322.86 326.264 322.868 325.787 322.884C325.326 322.9 324.897 322.908 324.5 322.908ZM344.389 322.622C344.42 322.622 344.436 322.67 344.436 322.765C344.436 322.86 344.42 322.908 344.389 322.908C343.991 322.908 343.546 322.9 343.053 322.884C342.576 322.868 342.076 322.86 341.551 322.86C340.995 322.86 340.478 322.868 340.001 322.884C339.54 322.9 339.111 322.908 338.713 322.908C338.682 322.908 338.666 322.86 338.666 322.765C338.666 322.67 338.682 322.622 338.713 322.622C339.317 322.622 339.763 322.582 340.049 322.503C340.335 322.423 340.526 322.264 340.621 322.026C340.716 321.787 340.764 321.438 340.764 320.977V315.063L341.193 315.182C340.748 315.182 340.351 315.222 340.001 315.301C339.651 315.381 339.309 315.548 338.976 315.802C338.658 316.041 338.316 316.406 337.95 316.899C337.585 317.392 337.155 318.06 336.663 318.902C336.059 319.967 335.566 320.778 335.184 321.334C334.819 321.891 334.524 322.28 334.302 322.503C334.095 322.725 333.92 322.852 333.777 322.884C333.65 322.9 333.515 322.908 333.372 322.908H330.916C330.868 322.908 330.844 322.86 330.844 322.765C330.844 322.67 330.868 322.622 330.916 322.622C331.52 322.606 332.045 322.447 332.49 322.145C332.935 321.827 333.372 321.358 333.801 320.738C334.246 320.118 334.731 319.347 335.256 318.425C335.733 317.583 336.178 316.931 336.591 316.47C337.004 315.993 337.442 315.651 337.903 315.444C338.379 315.238 338.904 315.111 339.476 315.063L339.643 315.23C337.926 315.214 336.631 314.88 335.756 314.228C334.882 313.577 334.445 312.702 334.445 311.605C334.445 310.874 334.628 310.238 334.993 309.698C335.375 309.141 335.892 308.712 336.543 308.41C337.211 308.092 337.958 307.933 338.785 307.933C339.119 307.933 339.564 307.957 340.12 308.005C340.677 308.052 341.154 308.076 341.551 308.076C342.076 308.076 342.576 308.068 343.053 308.052C343.53 308.021 343.967 308.005 344.365 308.005C344.396 308.005 344.412 308.052 344.412 308.148C344.412 308.243 344.396 308.291 344.365 308.291C343.777 308.291 343.331 308.338 343.029 308.434C342.743 308.513 342.544 308.672 342.433 308.911C342.338 309.133 342.29 309.475 342.29 309.936V320.977C342.29 321.438 342.338 321.787 342.433 322.026C342.544 322.264 342.751 322.423 343.053 322.503C343.355 322.582 343.8 322.622 344.389 322.622ZM336.043 311.009C336.043 312.122 336.361 313.044 336.996 313.775C337.648 314.491 338.61 314.848 339.882 314.848C340.088 314.848 340.327 314.84 340.597 314.824C340.867 314.793 341.082 314.753 341.241 314.705L340.764 314.872V309.984C340.764 309.523 340.661 309.165 340.454 308.911C340.263 308.656 340.009 308.482 339.691 308.386C339.389 308.291 339.079 308.243 338.761 308.243C336.949 308.243 336.043 309.165 336.043 311.009ZM366.544 322.622C366.687 322.622 366.767 322.638 366.782 322.67C366.814 322.686 366.83 322.765 366.83 322.908C366.83 323.131 366.806 323.369 366.759 323.623C366.727 323.894 366.695 324.275 366.663 324.768C366.631 325.261 366.616 325.96 366.616 326.866C366.616 326.93 366.568 326.962 366.472 326.962C366.377 326.962 366.329 326.93 366.329 326.866C366.329 325.515 366.027 324.514 365.423 323.862C364.835 323.226 363.857 322.908 362.49 322.908H355.027C354.407 322.908 353.85 323.019 353.357 323.242C352.881 323.48 352.507 323.886 352.237 324.458C351.966 325.046 351.831 325.849 351.831 326.866C351.831 326.93 351.784 326.962 351.688 326.962C351.593 326.962 351.545 326.93 351.545 326.866C351.545 326.199 351.529 325.65 351.497 325.221C351.482 324.792 351.45 324.442 351.402 324.172C351.37 323.902 351.339 323.671 351.307 323.48C351.291 323.29 351.283 323.091 351.283 322.884C351.283 322.757 351.291 322.678 351.307 322.646C351.339 322.614 351.41 322.598 351.521 322.598C352.205 322.598 352.809 322.376 353.334 321.93C353.874 321.469 354.351 320.865 354.764 320.118C355.194 319.371 355.559 318.544 355.861 317.638C356.179 316.732 356.434 315.818 356.624 314.896C356.815 313.958 356.958 313.084 357.053 312.273C357.149 311.446 357.197 310.755 357.197 310.198C357.197 309.817 357.149 309.483 357.053 309.197C356.958 308.911 356.736 308.688 356.386 308.529C356.052 308.37 355.511 308.291 354.764 308.291C354.733 308.291 354.717 308.243 354.717 308.148C354.717 308.052 354.733 308.005 354.764 308.005C354.86 308.005 355.122 308.005 355.551 308.005C355.996 308.005 356.553 308.005 357.22 308.005C357.888 308.005 358.603 308.005 359.367 308.005C360.145 308.005 360.916 308.005 361.68 308.005C362.443 308.005 363.15 308.005 363.802 308.005C364.454 308.005 364.986 308.005 365.399 308.005C365.813 308.005 366.051 308.005 366.115 308.005C366.147 308.005 366.162 308.052 366.162 308.148C366.162 308.243 366.147 308.291 366.115 308.291C365.527 308.291 365.081 308.338 364.779 308.434C364.477 308.513 364.279 308.672 364.183 308.911C364.088 309.133 364.04 309.475 364.04 309.936V320.977C364.04 321.374 364.048 321.692 364.064 321.93C364.096 322.153 364.183 322.312 364.326 322.407C364.469 322.503 364.708 322.566 365.042 322.598C365.391 322.614 365.892 322.622 366.544 322.622ZM362.49 320.929V309.984C362.49 309.491 362.458 309.149 362.395 308.958C362.347 308.752 362.196 308.633 361.942 308.601C361.687 308.553 361.25 308.529 360.63 308.529H359.462C359.001 308.529 358.667 308.601 358.46 308.744C358.254 308.887 358.119 309.157 358.055 309.555C357.991 309.952 357.928 310.54 357.864 311.319C357.832 311.605 357.777 312.043 357.697 312.631C357.618 313.219 357.499 313.887 357.34 314.634C357.197 315.381 357.014 316.168 356.791 316.994C356.569 317.805 356.306 318.592 356.004 319.355C355.702 320.118 355.353 320.794 354.955 321.382C354.558 321.954 354.105 322.391 353.596 322.694V322.384H360.511C361.163 322.384 361.624 322.36 361.894 322.312C362.18 322.264 362.347 322.145 362.395 321.954C362.458 321.748 362.49 321.406 362.49 320.929ZM378.473 322.908H368.482C368.45 322.908 368.434 322.86 368.434 322.765C368.434 322.67 368.45 322.622 368.482 322.622C369.07 322.622 369.507 322.582 369.793 322.503C370.079 322.423 370.27 322.264 370.366 322.026C370.477 321.787 370.533 321.438 370.533 320.977V309.936C370.533 309.475 370.477 309.133 370.366 308.911C370.27 308.672 370.079 308.513 369.793 308.434C369.507 308.338 369.07 308.291 368.482 308.291C368.45 308.291 368.434 308.243 368.434 308.148C368.434 308.052 368.45 308.005 368.482 308.005H378.068C378.211 308.005 378.282 308.076 378.282 308.219L378.33 311.152C378.33 311.2 378.282 311.232 378.187 311.248C378.107 311.248 378.068 311.224 378.068 311.176C378.02 310.318 377.758 309.658 377.281 309.197C376.82 308.736 376.216 308.505 375.469 308.505H374.014C373.474 308.505 373.06 308.545 372.774 308.625C372.504 308.704 372.313 308.855 372.202 309.078C372.106 309.3 372.059 309.626 372.059 310.055V320.881C372.059 321.295 372.106 321.613 372.202 321.835C372.313 322.058 372.496 322.209 372.75 322.288C373.02 322.368 373.418 322.407 373.942 322.407H375.85C376.613 322.407 377.249 322.137 377.758 321.597C378.282 321.04 378.624 320.293 378.783 319.355C378.783 319.307 378.831 319.292 378.926 319.307C379.022 319.323 379.069 319.355 379.069 319.403C379.006 319.816 378.95 320.317 378.902 320.905C378.871 321.493 378.855 322.042 378.855 322.55C378.855 322.789 378.727 322.908 378.473 322.908ZM377.138 317.352C377.138 316.653 376.963 316.152 376.613 315.85C376.279 315.548 375.715 315.397 374.92 315.397H371.343V314.896H374.992C375.755 314.896 376.295 314.769 376.613 314.514C376.947 314.244 377.114 313.815 377.114 313.227C377.114 313.195 377.162 313.179 377.257 313.179C377.352 313.179 377.4 313.195 377.4 313.227C377.4 313.704 377.392 314.077 377.376 314.348C377.376 314.602 377.376 314.872 377.376 315.158C377.376 315.524 377.384 315.882 377.4 316.231C377.416 316.581 377.424 316.955 377.424 317.352C377.424 317.384 377.376 317.4 377.281 317.4C377.185 317.4 377.138 317.384 377.138 317.352ZM392.711 322.908C392.568 322.908 392.433 322.884 392.306 322.837C392.179 322.789 392.012 322.646 391.805 322.407C391.599 322.169 391.297 321.779 390.899 321.239C390.502 320.683 389.953 319.904 389.254 318.902C388.761 318.187 388.34 317.599 387.99 317.137C387.656 316.676 387.346 316.327 387.06 316.088C386.79 315.834 386.496 315.659 386.178 315.564C385.86 315.452 385.47 315.397 385.009 315.397C384.85 315.397 384.683 315.405 384.509 315.421C384.334 315.437 384.159 315.452 383.984 315.468L383.96 315.039C384.962 314.991 385.741 314.968 386.297 314.968C386.822 314.968 387.251 315.015 387.585 315.111C387.934 315.19 388.244 315.357 388.515 315.611C388.801 315.85 389.111 316.2 389.445 316.661C389.794 317.106 390.232 317.694 390.756 318.425C391.392 319.315 391.956 320.07 392.449 320.69C392.958 321.31 393.467 321.787 393.975 322.121C394.484 322.439 395.064 322.606 395.716 322.622C395.748 322.622 395.764 322.67 395.764 322.765C395.764 322.86 395.748 322.908 395.716 322.908H392.711ZM381.075 322.908C381.043 322.908 381.027 322.86 381.027 322.765C381.027 322.67 381.043 322.622 381.075 322.622C381.663 322.622 382.108 322.582 382.41 322.503C382.712 322.423 382.911 322.264 383.006 322.026C383.102 321.787 383.149 321.438 383.149 320.977V309.936C383.149 309.475 383.102 309.133 383.006 308.911C382.911 308.672 382.712 308.513 382.41 308.434C382.124 308.338 381.687 308.291 381.099 308.291C381.067 308.291 381.051 308.243 381.051 308.148C381.051 308.052 381.067 308.005 381.099 308.005C381.48 308.005 381.909 308.021 382.386 308.052C382.863 308.068 383.364 308.076 383.889 308.076C384.461 308.076 384.986 308.068 385.462 308.052C385.955 308.021 386.392 308.005 386.774 308.005C386.806 308.005 386.822 308.052 386.822 308.148C386.822 308.243 386.806 308.291 386.774 308.291C386.186 308.291 385.741 308.338 385.439 308.434C385.152 308.529 384.954 308.696 384.842 308.935C384.747 309.173 384.699 309.523 384.699 309.984V320.977C384.699 321.438 384.747 321.787 384.842 322.026C384.938 322.264 385.137 322.423 385.439 322.503C385.741 322.582 386.186 322.622 386.774 322.622C386.806 322.622 386.822 322.67 386.822 322.765C386.822 322.86 386.806 322.908 386.774 322.908C386.377 322.908 385.939 322.9 385.462 322.884C384.986 322.868 384.461 322.86 383.889 322.86C383.364 322.86 382.855 322.868 382.363 322.884C381.886 322.9 381.456 322.908 381.075 322.908ZM387.06 315.349L386.631 315.134L389.635 310.938C390.383 309.92 390.74 309.229 390.708 308.863C390.693 308.482 390.287 308.291 389.492 308.291C389.461 308.291 389.445 308.243 389.445 308.148C389.445 308.052 389.461 308.005 389.492 308.005C389.874 308.005 390.263 308.021 390.661 308.052C391.058 308.068 391.575 308.076 392.211 308.076C392.847 308.076 393.339 308.068 393.689 308.052C394.055 308.021 394.405 308.005 394.738 308.005C394.786 308.005 394.81 308.052 394.81 308.148C394.81 308.243 394.786 308.291 394.738 308.291C394.182 308.291 393.673 308.386 393.212 308.577C392.751 308.752 392.298 309.038 391.853 309.435C391.424 309.817 390.971 310.326 390.494 310.962L387.06 315.349ZM403.825 323.194C402.681 323.194 401.639 322.996 400.701 322.598C399.779 322.185 398.985 321.62 398.317 320.905C397.665 320.19 397.156 319.371 396.791 318.449C396.441 317.511 396.266 316.518 396.266 315.468C396.266 314.181 396.513 313.052 397.005 312.082C397.514 311.113 398.182 310.31 399.008 309.674C399.835 309.022 400.741 308.537 401.727 308.219C402.712 307.901 403.69 307.742 404.66 307.742C405.836 307.742 406.885 307.957 407.807 308.386C408.745 308.8 409.54 309.364 410.192 310.079C410.844 310.795 411.337 311.605 411.67 312.511C412.02 313.418 412.195 314.348 412.195 315.301C412.195 316.414 411.972 317.447 411.527 318.401C411.082 319.355 410.47 320.19 409.691 320.905C408.928 321.62 408.038 322.185 407.02 322.598C406.019 322.996 404.954 323.194 403.825 323.194ZM404.66 322.694C405.741 322.694 406.71 322.439 407.569 321.93C408.427 321.406 409.111 320.643 409.62 319.641C410.128 318.64 410.383 317.416 410.383 315.969C410.383 314.475 410.104 313.155 409.548 312.011C409.008 310.85 408.229 309.944 407.211 309.292C406.21 308.625 405.025 308.291 403.658 308.291C401.894 308.291 400.519 308.863 399.533 310.008C398.563 311.136 398.078 312.678 398.078 314.634C398.078 315.762 398.229 316.82 398.531 317.805C398.849 318.775 399.302 319.633 399.891 320.38C400.479 321.112 401.178 321.684 401.989 322.097C402.8 322.495 403.69 322.694 404.66 322.694ZM417.933 320.881C417.933 321.358 417.996 321.724 418.124 321.978C418.251 322.217 418.521 322.384 418.934 322.479C419.348 322.574 419.96 322.622 420.77 322.622C420.818 322.622 420.842 322.67 420.842 322.765C420.842 322.86 420.818 322.908 420.77 322.908C420.262 322.908 419.705 322.9 419.101 322.884C418.513 322.868 417.869 322.86 417.17 322.86C416.645 322.86 416.136 322.868 415.644 322.884C415.167 322.9 414.737 322.908 414.356 322.908C414.324 322.908 414.308 322.86 414.308 322.765C414.308 322.67 414.324 322.622 414.356 322.622C414.944 322.622 415.381 322.582 415.667 322.503C415.954 322.423 416.144 322.264 416.24 322.026C416.335 321.787 416.383 321.438 416.383 320.977V309.936C416.383 309.475 416.335 309.133 416.24 308.911C416.144 308.672 415.954 308.513 415.667 308.434C415.381 308.338 414.944 308.291 414.356 308.291C414.324 308.291 414.308 308.243 414.308 308.148C414.308 308.052 414.324 308.005 414.356 308.005C414.737 308.005 415.167 308.021 415.644 308.052C416.121 308.068 416.621 308.076 417.146 308.076C417.559 308.076 418.06 308.052 418.648 308.005C419.252 307.957 419.856 307.933 420.46 307.933C421.367 307.933 422.177 308.068 422.893 308.338C423.624 308.609 424.204 309.03 424.633 309.602C425.063 310.175 425.285 310.922 425.301 311.844C425.301 312.686 425.142 313.41 424.824 314.014C424.522 314.618 424.109 315.119 423.584 315.516C423.075 315.898 422.511 316.184 421.891 316.374C421.271 316.565 420.651 316.661 420.031 316.661C419.84 316.661 419.642 316.653 419.435 316.637C419.244 316.621 419.061 316.589 418.887 316.541C418.823 316.525 418.799 316.47 418.815 316.374C418.847 316.263 418.887 316.215 418.934 316.231C419.077 316.263 419.22 316.287 419.364 316.303C419.522 316.319 419.666 316.327 419.793 316.327C420.445 316.327 421.057 316.184 421.629 315.898C422.201 315.611 422.662 315.174 423.012 314.586C423.362 313.982 423.536 313.235 423.536 312.345C423.536 311.47 423.378 310.739 423.06 310.151C422.742 309.547 422.304 309.086 421.748 308.768C421.192 308.45 420.572 308.291 419.888 308.291C419.364 308.291 418.958 308.323 418.672 308.386C418.402 308.434 418.211 308.577 418.1 308.815C417.988 309.054 417.933 309.443 417.933 309.984V320.881ZM430.333 315.015L430.691 314.514H435.603L435.77 315.015H430.333ZM441.922 322.622C441.986 322.622 442.017 322.67 442.017 322.765C442.017 322.86 441.986 322.908 441.922 322.908C441.461 322.908 440.992 322.892 440.515 322.86C440.038 322.829 439.577 322.813 439.132 322.813C438.639 322.813 438.21 322.829 437.844 322.86C437.479 322.892 437.073 322.908 436.628 322.908C436.565 322.908 436.533 322.86 436.533 322.765C436.533 322.67 436.565 322.622 436.628 322.622C437.471 322.622 437.995 322.503 438.202 322.264C438.409 322.01 438.353 321.541 438.035 320.857L432.741 309.674L433.338 308.935L428.712 319.88C428.314 320.849 428.29 321.549 428.64 321.978C428.99 322.407 429.681 322.622 430.715 322.622C430.794 322.622 430.834 322.67 430.834 322.765C430.834 322.86 430.794 322.908 430.715 322.908C430.238 322.908 429.8 322.892 429.403 322.86C429.006 322.829 428.505 322.813 427.901 322.813C427.328 322.813 426.867 322.829 426.518 322.86C426.184 322.892 425.771 322.908 425.278 322.908C425.214 322.908 425.182 322.86 425.182 322.765C425.182 322.67 425.214 322.622 425.278 322.622C425.707 322.622 426.081 322.542 426.399 322.384C426.716 322.209 427.011 321.915 427.281 321.501C427.567 321.072 427.877 320.46 428.211 319.665L433.242 307.79C433.274 307.742 433.33 307.719 433.409 307.719C433.489 307.719 433.536 307.742 433.552 307.79L439.18 319.641C439.545 320.42 439.871 321.032 440.157 321.477C440.444 321.907 440.722 322.209 440.992 322.384C441.278 322.542 441.588 322.622 441.922 322.622Z" fill="#F1E1E1"/>
</g>
<defs>
<clipPath id="clip0_204_30">
<rect width="693.976" height="451" fill="white"/>
</clipPath>
</defs>
</svg>
